SplineFontDB: 3.1
FontName: OxygenSans-Bold
FullName: OxygenSans Bold
FamilyName: OxygenSans
Weight: Bold
Copyright: Copyright 2009-2012 vernon adams.
Version: 1.001;PS (version unavailable);hotconv 1.0.57;makeotf.lib2.0.21895 DEVELOPMENT
ItalicAngle: 0
UnderlinePosition: 0
UnderlineWidth: 0
Ascent: 1548
Descent: 500
sfntRevision: 0x00010041
LayerCount: 2
Layer: 0 1 "Back"  1
Layer: 1 1 "Fore"  0
XUID: [1021 14 500265001 4538595]
FSType: 0
OS2Version: 1
OS2_WeightWidthSlopeOnly: 0
OS2_UseTypoMetrics: 1
CreationTime: 1350955586
ModificationTime: 1352133975
PfmFamily: 81
TTFWeight: 700
TTFWidth: 5
LineGap: 0
VLineGap: 0
Panose: 0 0 0 0 0 0 0 0 0 0
OS2TypoAscent: 1548
OS2TypoAOffset: 0
OS2TypoDescent: -500
OS2TypoDOffset: 0
OS2TypoLinegap: 0
OS2WinAscent: 1901
OS2WinAOffset: 0
OS2WinDescent: 483
OS2WinDOffset: 0
HheadAscent: 2291
HheadAOffset: 0
HheadDescent: -599
HheadDOffset: 0
OS2SubXSize: 1331
OS2SubYSize: 1228
OS2SubXOff: 0
OS2SubYOff: 153
OS2SupXSize: 1331
OS2SupYSize: 1228
OS2SupXOff: 0
OS2SupYOff: 716
OS2StrikeYSize: 50
OS2StrikeYPos: 610
OS2Vendor: 'newt'
OS2CodePages: 2000019f.00000000
OS2UnicodeRanges: 0000008f.00000000.00000000.00000000
Lookup: 258 0 0 "'kern' Horizontal Kerning in Latin lookup 0"  {"'kern' Horizontal Kerning in Latin lookup 0 per glyph data 0"  "'kern' Horizontal Kerning in Latin lookup 0 kerning class 1"  } ['kern' ('latn' <'dflt' > ) ]
MarkAttachClasses: 1
DEI: 91125
KernClass2: 28 21 "'kern' Horizontal Kerning in Latin lookup 0 kerning class 1" 
 81 A Agrave Aacute Acircumflex Atilde Adieresis Aring Amacron Abreve Aogonek uni0202
 1 B
 75 D O Q Eth Ograve Oacute Ocircumflex Otilde Odieresis Oslash uni020C uni020E
 1 F
 1 K
 1 L
 1 P
 44 R Racute Rcommaaccent Rcaron uni0210 uni0212
 22 T Tcommaaccent uni021A
 45 U Ugrave Uacute Ucircumflex Udieresis uni0216
 1 V
 1 W
 18 Y Yacute Ydieresis
 1 a
 69 b o p ograve oacute ocircumflex otilde odieresis oslash thorn uni020F
 1 c
 1 d
 1 e
 1 f
 24 h m n ntilde hbar nacute

StartChar: .notdef
Encoding: 65536 -1 0
Width: 1024
Flags: W
LayerCount: 2
UndoRedoHistory
Layer: 1
Undoes
UndoOperation
Index: 0
Type: 1
WasModified: 0
WasOrder2: 1
Width: 1024
VWidth: 2048
LBearingChange: 0
UnicodeEnc: 0
InstructionsLength: 0
SplineSet
204 -398 m 1,0,-1
 820 -398 l 1,1,-1
 820 1399 l 1,2,-1
 204 1399 l 1,3,-1
 204 -398 l 1,0,-1
102 -500 m 1,4,-1
 102 1501 l 1,5,-1
 922 1501 l 1,6,-1
 922 -500 l 1,7,-1
 102 -500 l 1,4,-1
EndSplineSet
EndUndoOperation
UndoOperation
Index: 1
Type: 1
WasModified: 0
WasOrder2: 1
Width: 1024
VWidth: 2048
LBearingChange: 0
UnicodeEnc: 0
InstructionsLength: 0
SplineSet
204 -398 m 1,0,-1
 204 1399 l 1,1,-1
 820 1399 l 1,2,-1
 820 -398 l 1,3,-1
 204 -398 l 1,0,-1
102 -500 m 1,4,-1
 922 -500 l 1,5,-1
 922 1501 l 1,6,-1
 102 1501 l 1,7,-1
 102 -500 l 1,4,-1
EndSplineSet
EndUndoOperation
EndUndoes
Redoes
EndRedoes
EndUndoRedoHistory
Fore
SplineSet
204 -398 m 1,0,-1
 820 -398 l 1,1,-1
 820 1399 l 1,2,-1
 204 1399 l 1,3,-1
 204 -398 l 1,0,-1
102 -500 m 1,4,-1
 102 1501 l 1,5,-1
 922 1501 l 1,6,-1
 922 -500 l 1,7,-1
 102 -500 l 1,4,-1
EndSplineSet
EndChar

StartChar: exclam
Encoding: 33 33 4
Width: 617
GlyphClass: 2
Flags: W
LayerCount: 2
UndoRedoHistory
Layer: 1
Undoes
UndoOperation
Index: 0
Type: 1
WasModified: 0
WasOrder2: 1
Width: 617
VWidth: 2048
LBearingChange: 0
UnicodeEnc: 0
InstructionsLength: 0
SplineSet
309 -7 m 0,0,1
 247 -7 247 -7 204.5 36.5 c 128,-1,2
 162 80 162 80 162 139 c 0,3,4
 162 199 162 199 204.5 242.5 c 128,-1,5
 247 286 247 286 309 286 c 0,6,7
 370 286 370 286 412.5 242.5 c 128,-1,8
 455 199 455 199 455 139 c 0,9,10
 455 80 455 80 412.5 36.5 c 128,-1,11
 370 -7 370 -7 309 -7 c 0,0,1
430 1127 m 1,12,-1
 373 418 l 1,13,-1
 260 418 l 1,14,-1
 196 1127 l 1,15,-1
 196 1335 l 1,16,-1
 430 1335 l 1,17,-1
 430 1127 l 1,12,-1
EndSplineSet
EndUndoOperation
UndoOperation
Index: 1
Type: 1
WasModified: 0
WasOrder2: 1
Width: 617
VWidth: 2048
LBearingChange: 0
UnicodeEnc: 0
InstructionsLength: 0
SplineSet
309 -7 m 0,0,1
 247 -7 247 -7 204.5 36.5 c 128,-1,2
 162 80 162 80 162 139 c 0,3,4
 162 199 162 199 204.5 242.5 c 128,-1,5
 247 286 247 286 309 286 c 0,6,7
 370 286 370 286 412.5 242.5 c 128,-1,8
 455 199 455 199 455 139 c 0,9,10
 455 80 455 80 412.5 36.5 c 128,-1,11
 370 -7 370 -7 309 -7 c 0,0,1
430 1127 m 1,12,-1
 373 418 l 1,13,-1
 260 418 l 1,14,-1
 196 1127 l 1,15,-1
 196 1335 l 1,16,-1
 430 1335 l 1,17,-1
 430 1127 l 1,12,-1
EndSplineSet
EndUndoOperation
EndUndoes
Redoes
EndRedoes
EndUndoRedoHistory
Fore
SplineSet
309 -7 m 0,0,1
 247 -7 247 -7 204.5 36.5 c 128,-1,2
 162 80 162 80 162 139 c 0,3,4
 162 199 162 199 204.5 242.5 c 128,-1,5
 247 286 247 286 309 286 c 0,6,7
 370 286 370 286 412.5 242.5 c 128,-1,8
 455 199 455 199 455 139 c 0,9,10
 455 80 455 80 412.5 36.5 c 128,-1,11
 370 -7 370 -7 309 -7 c 0,0,1
430 1127 m 1,12,-1
 373 418 l 1,13,-1
 260 418 l 1,14,-1
 196 1127 l 1,15,-1
 196 1335 l 1,16,-1
 430 1335 l 1,17,-1
 430 1127 l 1,12,-1
EndSplineSet
EndChar

StartChar: quotedbl
Encoding: 34 34 5
Width: 689
GlyphClass: 2
Flags: W
LayerCount: 2
UndoRedoHistory
Layer: 1
Undoes
UndoOperation
Index: 0
Type: 1
WasModified: 0
WasOrder2: 1
Width: 689
VWidth: 2048
LBearingChange: 0
UnicodeEnc: 0
InstructionsLength: 0
SplineSet
429 854 m 1,0,-1
 399 1347 l 1,1,-1
 618 1347 l 1,2,-1
 589 854 l 1,3,-1
 429 854 l 1,0,-1
122 848 m 1,4,-1
 90 1347 l 1,5,-1
 311 1347 l 1,6,-1
 283 848 l 1,7,-1
 122 848 l 1,4,-1
EndSplineSet
EndUndoOperation
UndoOperation
Index: 1
Type: 1
WasModified: 0
WasOrder2: 1
Width: 689
VWidth: 2048
LBearingChange: 0
UnicodeEnc: 0
InstructionsLength: 0
SplineSet
429 854 m 1,0,-1
 589 854 l 1,1,-1
 618 1347 l 1,2,-1
 399 1347 l 1,3,-1
 429 854 l 1,0,-1
122 848 m 1,4,-1
 283 848 l 1,5,-1
 311 1347 l 1,6,-1
 90 1347 l 1,7,-1
 122 848 l 1,4,-1
EndSplineSet
EndUndoOperation
EndUndoes
Redoes
EndRedoes
EndUndoRedoHistory
Fore
SplineSet
429 854 m 1,0,-1
 399 1347 l 1,1,-1
 618 1347 l 1,2,-1
 589 854 l 1,3,-1
 429 854 l 1,0,-1
122 848 m 1,4,-1
 90 1347 l 1,5,-1
 311 1347 l 1,6,-1
 283 848 l 1,7,-1
 122 848 l 1,4,-1
EndSplineSet
EndChar

StartChar: numbersign
Encoding: 35 35 6
Width: 1045
GlyphClass: 2
Flags: W
LayerCount: 2
UndoRedoHistory
Layer: 1
Undoes
UndoOperation
Index: 0
Type: 1
WasModified: 0
WasOrder2: 1
Width: 1045
VWidth: 2048
LBearingChange: 0
UnicodeEnc: 0
InstructionsLength: 0
SplineSet
440 547 m 1,0,-1
 590 547 l 1,1,-1
 638 809 l 1,2,-1
 490 809 l 1,3,-1
 440 547 l 1,0,-1
252 547 m 1,4,-1
 297 808 l 1,5,-1
 111 808 l 1,6,-1
 118 990 l 1,7,-1
 329 990 l 1,8,-1
 399 1336 l 1,9,-1
 590 1336 l 1,10,-1
 524 990 l 1,11,-1
 672 990 l 1,12,-1
 737 1336 l 1,13,-1
 925 1336 l 1,14,-1
 859 990 l 1,15,-1
 1020 990 l 1,16,-1
 1008 809 l 1,17,-1
 825 809 l 1,18,-1
 776 547 l 1,19,-1
 949 547 l 1,20,-1
 940 369 l 1,21,-1
 747 369 l 1,22,-1
 676 -13 l 1,23,-1
 485 -13 l 1,24,-1
 554 369 l 1,25,-1
 408 369 l 1,26,-1
 338 -13 l 1,27,-1
 151 -13 l 1,28,-1
 218 369 l 1,29,-1
 40 369 l 1,30,-1
 49 547 l 1,31,-1
 252 547 l 1,4,-1
EndSplineSet
EndUndoOperation
UndoOperation
Index: 1
Type: 1
WasModified: 0
WasOrder2: 1
Width: 1045
VWidth: 2048
LBearingChange: 0
UnicodeEnc: 0
InstructionsLength: 0
SplineSet
440 547 m 1,0,-1
 590 547 l 1,1,-1
 638 809 l 1,2,-1
 490 809 l 1,3,-1
 440 547 l 1,0,-1
252 547 m 1,4,-1
 297 808 l 1,5,-1
 111 808 l 1,6,-1
 118 990 l 1,7,-1
 329 990 l 1,8,-1
 399 1336 l 1,9,-1
 590 1336 l 1,10,-1
 524 990 l 1,11,-1
 672 990 l 1,12,-1
 737 1336 l 1,13,-1
 925 1336 l 1,14,-1
 859 990 l 1,15,-1
 1020 990 l 1,16,-1
 1008 809 l 1,17,-1
 825 809 l 1,18,-1
 776 547 l 1,19,-1
 949 547 l 1,20,-1
 940 369 l 1,21,-1
 747 369 l 1,22,-1
 676 -13 l 1,23,-1
 485 -13 l 1,24,-1
 554 369 l 1,25,-1
 408 369 l 1,26,-1
 338 -13 l 1,27,-1
 151 -13 l 1,28,-1
 218 369 l 1,29,-1
 40 369 l 1,30,-1
 49 547 l 1,31,-1
 252 547 l 1,4,-1
EndSplineSet
EndUndoOperation
EndUndoes
Redoes
EndRedoes
EndUndoRedoHistory
Fore
SplineSet
440 547 m 1,0,-1
 590 547 l 1,1,-1
 638 809 l 1,2,-1
 490 809 l 1,3,-1
 440 547 l 1,0,-1
252 547 m 1,4,-1
 297 808 l 1,5,-1
 111 808 l 1,6,-1
 118 990 l 1,7,-1
 329 990 l 1,8,-1
 399 1336 l 1,9,-1
 590 1336 l 1,10,-1
 524 990 l 1,11,-1
 672 990 l 1,12,-1
 737 1336 l 1,13,-1
 925 1336 l 1,14,-1
 859 990 l 1,15,-1
 1020 990 l 1,16,-1
 1008 809 l 1,17,-1
 825 809 l 1,18,-1
 776 547 l 1,19,-1
 949 547 l 1,20,-1
 940 369 l 1,21,-1
 747 369 l 1,22,-1
 676 -13 l 1,23,-1
 485 -13 l 1,24,-1
 554 369 l 1,25,-1
 408 369 l 1,26,-1
 338 -13 l 1,27,-1
 151 -13 l 1,28,-1
 218 369 l 1,29,-1
 40 369 l 1,30,-1
 49 547 l 1,31,-1
 252 547 l 1,4,-1
EndSplineSet
EndChar

StartChar: dollar
Encoding: 36 36 7
Width: 1053
GlyphClass: 2
Flags: W
LayerCount: 2
UndoRedoHistory
Layer: 1
Undoes
UndoOperation
Index: 0
Type: 1
WasModified: 0
WasOrder2: 1
Width: 1053
VWidth: 2048
LBearingChange: 0
UnicodeEnc: 0
InstructionsLength: 0
SplineSet
606 -148 m 1,0,-1
 487 -148 l 1,1,-1
 487 -17 l 1,2,3
 236 -14 236 -14 68 82 c 1,4,-1
 133 300 l 1,5,6
 190 265 190 265 291 240 c 128,-1,7
 392 215 392 215 487 211 c 1,8,-1
 487 572 l 1,9,-1
 349 617 l 2,10,11
 223 658 223 658 153 747.5 c 128,-1,12
 83 837 83 837 83 975 c 0,13,14
 83 1144 83 1144 193.5 1242.5 c 128,-1,15
 304 1341 304 1341 487 1356 c 1,16,-1
 487 1480 l 1,17,-1
 606 1480 l 1,18,-1
 606 1356 l 1,19,20
 803 1346 803 1346 963 1255 c 1,21,-1
 882 1048 l 1,22,23
 725 1117 725 1117 606 1126 c 1,24,-1
 606 801 l 1,25,-1
 658 783 l 1,26,27
 838 723 838 723 918 631.5 c 128,-1,28
 998 540 998 540 998 381 c 0,29,30
 998 213 998 213 892.5 112 c 128,-1,31
 787 11 787 11 606 -11 c 1,32,-1
 606 -148 l 1,0,-1
606 220 m 1,33,-1
 609 220 l 1,34,35
 725 251 725 251 725 385 c 0,36,37
 725 482 725 482 606 532 c 1,38,-1
 606 220 l 1,33,-1
487 841 m 1,39,-1
 487 1123 l 1,40,41
 352 1101 352 1101 352 980 c 0,42,43
 352 885 352 885 450 853 c 2,44,-1
 487 841 l 1,39,-1
EndSplineSet
EndUndoOperation
UndoOperation
Index: 1
Type: 1
WasModified: 0
WasOrder2: 1
Width: 1053
VWidth: 2048
LBearingChange: 0
UnicodeEnc: 0
InstructionsLength: 0
SplineSet
606 -148 m 1,0,-1
 487 -148 l 1,1,-1
 487 -17 l 1,2,3
 236 -14 236 -14 68 82 c 1,4,-1
 133 300 l 1,5,6
 190 265 190 265 291 240 c 128,-1,7
 392 215 392 215 487 211 c 1,8,-1
 487 572 l 1,9,-1
 349 617 l 2,10,11
 223 658 223 658 153 747.5 c 128,-1,12
 83 837 83 837 83 975 c 0,13,14
 83 1144 83 1144 193.5 1242.5 c 128,-1,15
 304 1341 304 1341 487 1356 c 1,16,-1
 487 1480 l 1,17,-1
 606 1480 l 1,18,-1
 606 1356 l 1,19,20
 803 1346 803 1346 963 1255 c 1,21,-1
 882 1048 l 1,22,23
 725 1117 725 1117 606 1126 c 1,24,-1
 606 801 l 1,25,-1
 658 783 l 1,26,27
 838 723 838 723 918 631.5 c 128,-1,28
 998 540 998 540 998 381 c 0,29,30
 998 213 998 213 892.5 112 c 128,-1,31
 787 11 787 11 606 -11 c 1,32,-1
 606 -148 l 1,0,-1
606 220 m 1,33,-1
 609 220 l 1,34,35
 725 251 725 251 725 385 c 0,36,37
 725 482 725 482 606 532 c 1,38,-1
 606 220 l 1,33,-1
487 841 m 1,39,-1
 487 1123 l 1,40,41
 352 1101 352 1101 352 980 c 0,42,43
 352 885 352 885 450 853 c 2,44,-1
 487 841 l 1,39,-1
EndSplineSet
EndUndoOperation
EndUndoes
Redoes
EndRedoes
EndUndoRedoHistory
Fore
SplineSet
606 -148 m 1,0,-1
 487 -148 l 1,1,-1
 487 -17 l 1,2,3
 236 -14 236 -14 68 82 c 1,4,-1
 133 300 l 1,5,6
 190 265 190 265 291 240 c 128,-1,7
 392 215 392 215 487 211 c 1,8,-1
 487 572 l 1,9,-1
 349 617 l 2,10,11
 223 658 223 658 153 747.5 c 128,-1,12
 83 837 83 837 83 975 c 0,13,14
 83 1144 83 1144 193.5 1242.5 c 128,-1,15
 304 1341 304 1341 487 1356 c 1,16,-1
 487 1480 l 1,17,-1
 606 1480 l 1,18,-1
 606 1356 l 1,19,20
 803 1346 803 1346 963 1255 c 1,21,-1
 882 1048 l 1,22,23
 725 1117 725 1117 606 1126 c 1,24,-1
 606 801 l 1,25,-1
 658 783 l 1,26,27
 838 723 838 723 918 631.5 c 128,-1,28
 998 540 998 540 998 381 c 0,29,30
 998 213 998 213 892.5 112 c 128,-1,31
 787 11 787 11 606 -11 c 1,32,-1
 606 -148 l 1,0,-1
606 220 m 1,33,-1
 609 220 l 1,34,35
 725 251 725 251 725 385 c 0,36,37
 725 482 725 482 606 532 c 1,38,-1
 606 220 l 1,33,-1
487 841 m 1,39,-1
 487 1123 l 1,40,41
 352 1101 352 1101 352 980 c 0,42,43
 352 885 352 885 450 853 c 2,44,-1
 487 841 l 1,39,-1
EndSplineSet
EndChar

StartChar: ampersand
Encoding: 38 38 8
Width: 1261
GlyphClass: 2
Flags: W
LayerCount: 2
UndoRedoHistory
Layer: 1
Undoes
UndoOperation
Index: 0
Type: 1
WasModified: 0
WasOrder2: 1
Width: 1261
VWidth: 2048
LBearingChange: 0
UnicodeEnc: 0
InstructionsLength: 0
SplineSet
511 863 m 1,0,1
 549 884 549 884 575.5 902 c 128,-1,2
 602 920 602 920 629 945 c 128,-1,3
 656 970 656 970 670 1001 c 128,-1,4
 684 1032 684 1032 684 1067 c 0,5,6
 684 1128 684 1128 648 1158.5 c 128,-1,7
 612 1189 612 1189 551 1189 c 0,8,9
 486 1189 486 1189 449.5 1157.5 c 128,-1,10
 413 1126 413 1126 413 1061 c 0,11,12
 413 1007 413 1007 438 960.5 c 128,-1,13
 463 914 463 914 511 863 c 1,0,1
522 178 m 0,14,15
 671 178 671 178 784 266 c 1,16,17
 763 289 763 289 620.5 445.5 c 128,-1,18
 478 602 478 602 452 630 c 1,19,20
 361 579 361 579 315.5 529.5 c 128,-1,21
 270 480 270 480 270 399 c 0,22,23
 270 290 270 290 340 234 c 128,-1,24
 410 178 410 178 522 178 c 0,14,15
517 -1 m 0,25,26
 442 -1 442 -1 374.5 12.5 c 128,-1,27
 307 26 307 26 246 56.5 c 128,-1,28
 185 87 185 87 141 131.5 c 128,-1,29
 97 176 97 176 71 242 c 128,-1,30
 45 308 45 308 45 389 c 0,31,32
 45 459 45 459 68 518 c 128,-1,33
 91 577 91 577 136 623.5 c 128,-1,34
 181 670 181 670 227 703 c 128,-1,35
 273 736 273 736 339 772 c 1,36,37
 305 812 305 812 287 835 c 128,-1,38
 269 858 269 858 244.5 896 c 128,-1,39
 220 934 220 934 209 972.5 c 128,-1,40
 198 1011 198 1011 198 1052 c 0,41,42
 198 1129 198 1129 226.5 1189 c 128,-1,43
 255 1249 255 1249 303.5 1285.5 c 128,-1,44
 352 1322 352 1322 413 1340.5 c 128,-1,45
 474 1359 474 1359 544 1359 c 0,46,47
 610 1359 610 1359 671.5 1342 c 128,-1,48
 733 1325 733 1325 786 1291.5 c 128,-1,49
 839 1258 839 1258 871 1200 c 128,-1,50
 903 1142 903 1142 903 1068 c 0,51,52
 903 1007 903 1007 880 953.5 c 128,-1,53
 857 900 857 900 815.5 858 c 128,-1,54
 774 816 774 816 729 785 c 128,-1,55
 684 754 684 754 627 725 c 1,56,-1
 919 403 l 1,57,58
 986 481 986 481 1047 597 c 1,59,-1
 1216 488 l 1,60,61
 1149 355 1149 355 1060 256 c 1,62,-1
 1249 57 l 1,63,-1
 1041 4 l 1,64,-1
 917 134 l 1,65,66
 734 -1 734 -1 517 -1 c 0,25,26
EndSplineSet
EndUndoOperation
UndoOperation
Index: 1
Type: 1
WasModified: 0
WasOrder2: 1
Width: 1261
VWidth: 2048
LBearingChange: 0
UnicodeEnc: 0
InstructionsLength: 0
SplineSet
511 863 m 1,0,1
 463 914 463 914 438 960.5 c 128,-1,2
 413 1007 413 1007 413 1061 c 0,3,4
 413 1126 413 1126 449.5 1157.5 c 128,-1,5
 486 1189 486 1189 551 1189 c 0,6,7
 612 1189 612 1189 648 1158.5 c 128,-1,8
 684 1128 684 1128 684 1067 c 0,9,10
 684 1032 684 1032 670 1001 c 128,-1,11
 656 970 656 970 629 945 c 128,-1,12
 602 920 602 920 575.5 902 c 128,-1,13
 549 884 549 884 511 863 c 1,0,1
522 178 m 0,14,15
 410 178 410 178 340 234 c 128,-1,16
 270 290 270 290 270 399 c 0,17,18
 270 480 270 480 315.5 529.5 c 128,-1,19
 361 579 361 579 452 630 c 1,20,21
 478 602 478 602 620.5 445.5 c 128,-1,22
 763 289 763 289 784 266 c 1,23,24
 671 178 671 178 522 178 c 0,14,15
517 -1 m 0,25,26
 734 -1 734 -1 917 134 c 1,27,-1
 1041 4 l 1,28,-1
 1249 57 l 1,29,-1
 1060 256 l 1,30,31
 1149 355 1149 355 1216 488 c 1,32,-1
 1047 597 l 1,33,34
 986 481 986 481 919 403 c 1,35,-1
 627 725 l 1,36,37
 684 754 684 754 729 785 c 128,-1,38
 774 816 774 816 815.5 858 c 128,-1,39
 857 900 857 900 880 953.5 c 128,-1,40
 903 1007 903 1007 903 1068 c 0,41,42
 903 1142 903 1142 871 1200 c 128,-1,43
 839 1258 839 1258 786 1291.5 c 128,-1,44
 733 1325 733 1325 671.5 1342 c 128,-1,45
 610 1359 610 1359 544 1359 c 0,46,47
 474 1359 474 1359 413 1340.5 c 128,-1,48
 352 1322 352 1322 303.5 1285.5 c 128,-1,49
 255 1249 255 1249 226.5 1189 c 128,-1,50
 198 1129 198 1129 198 1052 c 0,51,52
 198 1011 198 1011 209 972.5 c 128,-1,53
 220 934 220 934 244.5 896 c 128,-1,54
 269 858 269 858 287 835 c 128,-1,55
 305 812 305 812 339 772 c 1,56,57
 273 736 273 736 227 703 c 128,-1,58
 181 670 181 670 136 623.5 c 128,-1,59
 91 577 91 577 68 518 c 128,-1,60
 45 459 45 459 45 389 c 0,61,62
 45 308 45 308 71 242 c 128,-1,63
 97 176 97 176 141 131.5 c 128,-1,64
 185 87 185 87 246 56.5 c 128,-1,65
 307 26 307 26 374.5 12.5 c 128,-1,66
 442 -1 442 -1 517 -1 c 0,25,26
EndSplineSet
EndUndoOperation
EndUndoes
Redoes
EndRedoes
EndUndoRedoHistory
Fore
SplineSet
511 863 m 1,0,1
 549 884 549 884 575.5 902 c 128,-1,2
 602 920 602 920 629 945 c 128,-1,3
 656 970 656 970 670 1001 c 128,-1,4
 684 1032 684 1032 684 1067 c 0,5,6
 684 1128 684 1128 648 1158.5 c 128,-1,7
 612 1189 612 1189 551 1189 c 0,8,9
 486 1189 486 1189 449.5 1157.5 c 128,-1,10
 413 1126 413 1126 413 1061 c 0,11,12
 413 1007 413 1007 438 960.5 c 128,-1,13
 463 914 463 914 511 863 c 1,0,1
522 178 m 0,14,15
 671 178 671 178 784 266 c 1,16,17
 763 289 763 289 620.5 445.5 c 128,-1,18
 478 602 478 602 452 630 c 1,19,20
 361 579 361 579 315.5 529.5 c 128,-1,21
 270 480 270 480 270 399 c 0,22,23
 270 290 270 290 340 234 c 128,-1,24
 410 178 410 178 522 178 c 0,14,15
517 -1 m 0,25,26
 442 -1 442 -1 374.5 12.5 c 128,-1,27
 307 26 307 26 246 56.5 c 128,-1,28
 185 87 185 87 141 131.5 c 128,-1,29
 97 176 97 176 71 242 c 128,-1,30
 45 308 45 308 45 389 c 0,31,32
 45 459 45 459 68 518 c 128,-1,33
 91 577 91 577 136 623.5 c 128,-1,34
 181 670 181 670 227 703 c 128,-1,35
 273 736 273 736 339 772 c 1,36,37
 305 812 305 812 287 835 c 128,-1,38
 269 858 269 858 244.5 896 c 128,-1,39
 220 934 220 934 209 972.5 c 128,-1,40
 198 1011 198 1011 198 1052 c 0,41,42
 198 1129 198 1129 226.5 1189 c 128,-1,43
 255 1249 255 1249 303.5 1285.5 c 128,-1,44
 352 1322 352 1322 413 1340.5 c 128,-1,45
 474 1359 474 1359 544 1359 c 0,46,47
 610 1359 610 1359 671.5 1342 c 128,-1,48
 733 1325 733 1325 786 1291.5 c 128,-1,49
 839 1258 839 1258 871 1200 c 128,-1,50
 903 1142 903 1142 903 1068 c 0,51,52
 903 1007 903 1007 880 953.5 c 128,-1,53
 857 900 857 900 815.5 858 c 128,-1,54
 774 816 774 816 729 785 c 128,-1,55
 684 754 684 754 627 725 c 1,56,-1
 919 403 l 1,57,58
 986 481 986 481 1047 597 c 1,59,-1
 1216 488 l 1,60,61
 1149 355 1149 355 1060 256 c 1,62,-1
 1249 57 l 1,63,-1
 1041 4 l 1,64,-1
 917 134 l 1,65,66
 734 -1 734 -1 517 -1 c 0,25,26
EndSplineSet
EndChar

StartChar: quotesingle
Encoding: 39 39 9
Width: 514
GlyphClass: 2
Flags: W
LayerCount: 2
UndoRedoHistory
Layer: 1
Undoes
UndoOperation
Index: 0
Type: 1
WasModified: 0
WasOrder2: 1
Width: 514
VWidth: 2048
LBearingChange: 0
UnicodeEnc: 0
InstructionsLength: 0
SplineSet
184 833 m 1,0,-1
 152 1341 l 1,1,-1
 362 1341 l 1,2,-1
 337 833 l 1,3,-1
 184 833 l 1,0,-1
EndSplineSet
EndUndoOperation
UndoOperation
Index: 1
Type: 1
WasModified: 0
WasOrder2: 1
Width: 514
VWidth: 2048
LBearingChange: 0
UnicodeEnc: 0
InstructionsLength: 0
SplineSet
184 833 m 1,0,-1
 152 1341 l 1,1,-1
 362 1341 l 1,2,-1
 337 833 l 1,3,-1
 184 833 l 1,0,-1
EndSplineSet
EndUndoOperation
EndUndoes
Redoes
EndRedoes
EndUndoRedoHistory
Fore
SplineSet
184 833 m 1,0,-1
 152 1341 l 1,1,-1
 362 1341 l 1,2,-1
 337 833 l 1,3,-1
 184 833 l 1,0,-1
EndSplineSet
EndChar

StartChar: parenleft
Encoding: 40 40 10
Width: 570
GlyphClass: 2
Flags: W
LayerCount: 2
UndoRedoHistory
Layer: 1
Undoes
UndoOperation
Index: 0
Type: 1
WasModified: 0
WasOrder2: 1
Width: 570
VWidth: 2048
LBearingChange: 0
UnicodeEnc: 0
InstructionsLength: 0
SplineSet
565 -245 m 1,0,-1
 333 -245 l 1,1,-1
 330 -237 l 1,2,3
 76 115 76 115 76 550 c 0,4,5
 76 996 76 996 329 1354 c 1,6,-1
 332 1362 l 1,7,-1
 566 1362 l 1,8,-1
 556 1343 l 1,9,10
 468 1217 468 1217 392.5 992.5 c 128,-1,11
 317 768 317 768 317 552 c 0,12,13
 317 338 317 338 393 117.5 c 128,-1,14
 469 -103 469 -103 555 -226 c 1,15,-1
 565 -245 l 1,0,-1
EndSplineSet
EndUndoOperation
UndoOperation
Index: 1
Type: 1
WasModified: 0
WasOrder2: 1
Width: 570
VWidth: 2048
LBearingChange: 0
UnicodeEnc: 0
InstructionsLength: 0
SplineSet
565 -245 m 1,0,-1
 333 -245 l 1,1,-1
 330 -237 l 1,2,3
 76 115 76 115 76 550 c 0,4,5
 76 996 76 996 329 1354 c 1,6,-1
 332 1362 l 1,7,-1
 566 1362 l 1,8,-1
 556 1343 l 1,9,10
 468 1217 468 1217 392.5 992.5 c 128,-1,11
 317 768 317 768 317 552 c 0,12,13
 317 338 317 338 393 117.5 c 128,-1,14
 469 -103 469 -103 555 -226 c 1,15,-1
 565 -245 l 1,0,-1
EndSplineSet
EndUndoOperation
EndUndoes
Redoes
EndRedoes
EndUndoRedoHistory
Fore
SplineSet
565 -245 m 1,0,-1
 333 -245 l 1,1,-1
 330 -237 l 1,2,3
 76 115 76 115 76 550 c 0,4,5
 76 996 76 996 329 1354 c 1,6,-1
 332 1362 l 1,7,-1
 566 1362 l 1,8,-1
 556 1343 l 1,9,10
 468 1217 468 1217 392.5 992.5 c 128,-1,11
 317 768 317 768 317 552 c 0,12,13
 317 338 317 338 393 117.5 c 128,-1,14
 469 -103 469 -103 555 -226 c 1,15,-1
 565 -245 l 1,0,-1
EndSplineSet
EndChar

StartChar: parenright
Encoding: 41 41 11
Width: 570
GlyphClass: 2
Flags: W
LayerCount: 2
UndoRedoHistory
Layer: 1
Undoes
UndoOperation
Index: 0
Type: 1
WasModified: 0
WasOrder2: 1
Width: 570
VWidth: 2048
LBearingChange: 0
UnicodeEnc: 0
InstructionsLength: 0
SplineSet
260 -237 m 1,0,-1
 35 -226 l 1,1,2
 121 -102 121 -102 197 118.5 c 128,-1,3
 273 339 273 339 273 552 c 0,4,5
 273 768 273 768 197.5 992.5 c 128,-1,6
 122 1217 122 1217 34 1343 c 1,7,-1
 260 1354 l 1,8,9
 514 992 514 992 514 550 c 0,10,11
 514 115 514 115 260 -237 c 1,0,-1
EndSplineSet
EndUndoOperation
UndoOperation
Index: 1
Type: 1
WasModified: 0
WasOrder2: 1
Width: 570
VWidth: 2048
LBearingChange: 0
UnicodeEnc: 0
InstructionsLength: 0
SplineSet
260 -237 m 1,0,-1
 35 -226 l 1,1,2
 121 -102 121 -102 197 118.5 c 128,-1,3
 273 339 273 339 273 552 c 0,4,5
 273 768 273 768 197.5 992.5 c 128,-1,6
 122 1217 122 1217 34 1343 c 1,7,-1
 260 1354 l 1,8,9
 514 992 514 992 514 550 c 0,10,11
 514 115 514 115 260 -237 c 1,0,-1
EndSplineSet
EndUndoOperation
EndUndoes
Redoes
EndRedoes
EndUndoRedoHistory
Fore
SplineSet
260 -237 m 1,0,-1
 35 -226 l 1,1,2
 121 -102 121 -102 197 118.5 c 128,-1,3
 273 339 273 339 273 552 c 0,4,5
 273 768 273 768 197.5 992.5 c 128,-1,6
 122 1217 122 1217 34 1343 c 1,7,-1
 260 1354 l 1,8,9
 514 992 514 992 514 550 c 0,10,11
 514 115 514 115 260 -237 c 1,0,-1
EndSplineSet
EndChar

StartChar: asterisk
Encoding: 42 42 12
Width: 965
GlyphClass: 2
Flags: W
LayerCount: 2
UndoRedoHistory
Layer: 1
Undoes
UndoOperation
Index: 0
Type: 1
WasModified: 0
WasOrder2: 1
Width: 965
VWidth: 2048
LBearingChange: 0
UnicodeEnc: 0
InstructionsLength: 0
SplineSet
112 1159 m 1,0,-1
 411 1035 l 1,1,-1
 380 1378 l 1,2,-1
 601 1378 l 1,3,-1
 572 1035 l 1,4,-1
 874 1159 l 1,5,-1
 935 946 l 1,6,-1
 628 878 l 1,7,8
 628 878 628 878 841 610 c 1,9,-1
 645 498 l 1,10,-1
 490 783 l 1,11,-1
 342 500 l 1,12,-1
 141 610 l 1,13,-1
 354 878 l 1,14,-1
 48 946 l 1,15,-1
 112 1159 l 1,0,-1
EndSplineSet
EndUndoOperation
UndoOperation
Index: 1
Type: 1
WasModified: 0
WasOrder2: 1
Width: 965
VWidth: 2048
LBearingChange: 0
UnicodeEnc: 0
InstructionsLength: 0
SplineSet
112 1159 m 1,0,-1
 411 1035 l 1,1,-1
 380 1378 l 1,2,-1
 601 1378 l 1,3,-1
 572 1035 l 1,4,-1
 874 1159 l 1,5,-1
 935 946 l 1,6,-1
 628 878 l 1,7,8
 628 878 628 878 841 610 c 1,9,-1
 645 498 l 1,10,-1
 490 783 l 1,11,-1
 342 500 l 1,12,-1
 141 610 l 1,13,-1
 354 878 l 1,14,-1
 48 946 l 1,15,-1
 112 1159 l 1,0,-1
EndSplineSet
EndUndoOperation
EndUndoes
Redoes
EndRedoes
EndUndoRedoHistory
Fore
SplineSet
112 1159 m 1,0,-1
 411 1035 l 1,1,-1
 380 1378 l 1,2,-1
 601 1378 l 1,3,-1
 572 1035 l 1,4,-1
 874 1159 l 1,5,-1
 935 946 l 1,6,-1
 628 878 l 1,7,8
 841 610 l 1,9,-1
 645 498 l 1,10,-1
 490 783 l 1,11,-1
 342 500 l 1,12,-1
 141 610 l 1,13,-1
 354 878 l 1,14,-1
 48 946 l 1,15,-1
 112 1159 l 1,0,-1
EndSplineSet
EndChar

StartChar: plus
Encoding: 43 43 13
Width: 1035
GlyphClass: 2
Flags: W
LayerCount: 2
UndoRedoHistory
Layer: 1
Undoes
UndoOperation
Index: 0
Type: 1
WasModified: 0
WasOrder2: 1
Width: 1035
VWidth: 2048
LBearingChange: 0
UnicodeEnc: 0
InstructionsLength: 0
SplineSet
430 692 m 1,0,-1
 430 1065 l 1,1,-1
 623 1065 l 1,2,-1
 623 692 l 1,3,-1
 983 692 l 1,4,-1
 983 502 l 1,5,-1
 622 502 l 1,6,-1
 622 130 l 1,7,-1
 429 130 l 1,8,-1
 429 502 l 1,9,-1
 68 502 l 1,10,-1
 68 692 l 1,11,-1
 430 692 l 1,0,-1
EndSplineSet
EndUndoOperation
UndoOperation
Index: 1
Type: 1
WasModified: 0
WasOrder2: 1
Width: 1035
VWidth: 2048
LBearingChange: 0
UnicodeEnc: 0
InstructionsLength: 0
SplineSet
430 692 m 1,0,-1
 430 1065 l 1,1,-1
 623 1065 l 1,2,-1
 623 692 l 1,3,-1
 983 692 l 1,4,-1
 983 502 l 1,5,-1
 622 502 l 1,6,-1
 622 130 l 1,7,-1
 429 130 l 1,8,-1
 429 502 l 1,9,-1
 68 502 l 1,10,-1
 68 692 l 1,11,-1
 430 692 l 1,0,-1
EndSplineSet
EndUndoOperation
EndUndoes
Redoes
EndRedoes
EndUndoRedoHistory
Fore
SplineSet
430 692 m 1,0,-1
 430 1065 l 1,1,-1
 623 1065 l 1,2,-1
 623 692 l 1,3,-1
 983 692 l 1,4,-1
 983 502 l 1,5,-1
 622 502 l 1,6,-1
 622 130 l 1,7,-1
 429 130 l 1,8,-1
 429 502 l 1,9,-1
 68 502 l 1,10,-1
 68 692 l 1,11,-1
 430 692 l 1,0,-1
EndSplineSet
EndChar

StartChar: comma
Encoding: 44 44 14
Width: 443
GlyphClass: 2
Flags: W
LayerCount: 2
UndoRedoHistory
Layer: 1
Undoes
UndoOperation
Index: 0
Type: 1
WasModified: 0
WasOrder2: 1
Width: 443
VWidth: 2048
LBearingChange: 0
UnicodeEnc: 0
InstructionsLength: 0
SplineSet
226 -233 m 1,0,-1
 49 -233 l 1,1,-1
 137 245 l 1,2,-1
 374 245 l 1,3,-1
 369 190 l 1,4,-1
 226 -233 l 1,0,-1
EndSplineSet
EndUndoOperation
UndoOperation
Index: 1
Type: 1
WasModified: 0
WasOrder2: 1
Width: 443
VWidth: 2048
LBearingChange: 0
UnicodeEnc: 0
InstructionsLength: 0
SplineSet
226 -233 m 1,0,-1
 49 -233 l 1,1,-1
 137 245 l 1,2,-1
 374 245 l 1,3,-1
 369 190 l 1,4,-1
 226 -233 l 1,0,-1
EndSplineSet
EndUndoOperation
EndUndoes
Redoes
EndRedoes
EndUndoRedoHistory
Fore
SplineSet
226 -233 m 1,0,-1
 49 -233 l 1,1,-1
 137 245 l 1,2,-1
 374 245 l 1,3,-1
 369 190 l 1,4,-1
 226 -233 l 1,0,-1
EndSplineSet
EndChar

StartChar: hyphen
Encoding: 45 45 15
Width: 594
GlyphClass: 2
Flags: W
LayerCount: 2
UndoRedoHistory
Layer: 1
Undoes
UndoOperation
Index: 0
Type: 1
WasModified: 0
WasOrder2: 1
Width: 594
VWidth: 2048
LBearingChange: 0
UnicodeEnc: 0
InstructionsLength: 0
SplineSet
57 406 m 1,0,-1
 57 606 l 1,1,-1
 553 606 l 1,2,-1
 553 406 l 1,3,-1
 57 406 l 1,0,-1
EndSplineSet
EndUndoOperation
UndoOperation
Index: 1
Type: 1
WasModified: 0
WasOrder2: 1
Width: 594
VWidth: 2048
LBearingChange: 0
UnicodeEnc: 0
InstructionsLength: 0
SplineSet
57 406 m 1,0,-1
 57 606 l 1,1,-1
 553 606 l 1,2,-1
 553 406 l 1,3,-1
 57 406 l 1,0,-1
EndSplineSet
EndUndoOperation
EndUndoes
Redoes
EndRedoes
EndUndoRedoHistory
Fore
SplineSet
57 406 m 1,0,-1
 57 606 l 1,1,-1
 553 606 l 1,2,-1
 553 406 l 1,3,-1
 57 406 l 1,0,-1
EndSplineSet
EndChar

StartChar: period
Encoding: 46 46 16
Width: 538
GlyphClass: 2
Flags: W
LayerCount: 2
UndoRedoHistory
Layer: 1
Undoes
UndoOperation
Index: 0
Type: 1
WasModified: 0
WasOrder2: 1
Width: 538
VWidth: 2048
LBearingChange: 0
UnicodeEnc: 0
InstructionsLength: 0
SplineSet
270 3 m 0,0,1
 208 3 208 3 165 45.5 c 128,-1,2
 122 88 122 88 122 148 c 128,-1,3
 122 208 122 208 165 251.5 c 128,-1,4
 208 295 208 295 270 295 c 0,5,6
 331 295 331 295 373.5 251.5 c 128,-1,7
 416 208 416 208 416 148 c 0,8,9
 416 89 416 89 373.5 46 c 128,-1,10
 331 3 331 3 270 3 c 0,0,1
EndSplineSet
EndUndoOperation
UndoOperation
Index: 1
Type: 1
WasModified: 0
WasOrder2: 1
Width: 538
VWidth: 2048
LBearingChange: 0
UnicodeEnc: 0
InstructionsLength: 0
SplineSet
270 3 m 0,0,1
 208 3 208 3 165 45.5 c 128,-1,2
 122 88 122 88 122 148 c 128,-1,3
 122 208 122 208 165 251.5 c 128,-1,4
 208 295 208 295 270 295 c 0,5,6
 331 295 331 295 373.5 251.5 c 128,-1,7
 416 208 416 208 416 148 c 0,8,9
 416 89 416 89 373.5 46 c 128,-1,10
 331 3 331 3 270 3 c 0,0,1
EndSplineSet
EndUndoOperation
EndUndoes
Redoes
EndRedoes
EndUndoRedoHistory
Fore
SplineSet
270 3 m 0,0,1
 208 3 208 3 165 45.5 c 128,-1,2
 122 88 122 88 122 148 c 128,-1,3
 122 208 122 208 165 251.5 c 128,-1,4
 208 295 208 295 270 295 c 0,5,6
 331 295 331 295 373.5 251.5 c 128,-1,7
 416 208 416 208 416 148 c 0,8,9
 416 89 416 89 373.5 46 c 128,-1,10
 331 3 331 3 270 3 c 0,0,1
EndSplineSet
EndChar

StartChar: slash
Encoding: 47 47 17
Width: 851
GlyphClass: 2
Flags: W
LayerCount: 2
UndoRedoHistory
Layer: 1
Undoes
UndoOperation
Index: 0
Type: 1
WasModified: 0
WasOrder2: 1
Width: 851
VWidth: 2048
LBearingChange: 0
UnicodeEnc: 0
InstructionsLength: 0
SplineSet
26 -167 m 1,0,-1
 579 1364 l 1,1,-1
 793 1364 l 1,2,-1
 237 -167 l 1,3,-1
 26 -167 l 1,0,-1
EndSplineSet
EndUndoOperation
UndoOperation
Index: 1
Type: 1
WasModified: 0
WasOrder2: 1
Width: 851
VWidth: 2048
LBearingChange: 0
UnicodeEnc: 0
InstructionsLength: 0
SplineSet
26 -167 m 1,0,-1
 579 1364 l 1,1,-1
 793 1364 l 1,2,-1
 237 -167 l 1,3,-1
 26 -167 l 1,0,-1
EndSplineSet
EndUndoOperation
EndUndoes
Redoes
EndRedoes
EndUndoRedoHistory
Fore
SplineSet
26 -167 m 1,0,-1
 579 1364 l 1,1,-1
 793 1364 l 1,2,-1
 237 -167 l 1,3,-1
 26 -167 l 1,0,-1
EndSplineSet
EndChar

StartChar: zero
Encoding: 48 48 18
Width: 1139
GlyphClass: 2
Flags: W
LayerCount: 2
UndoRedoHistory
Layer: 1
Undoes
UndoOperation
Index: 0
Type: 1
WasModified: 0
WasOrder2: 1
Width: 1139
VWidth: 2048
LBearingChange: 0
UnicodeEnc: 0
InstructionsLength: 0
SplineSet
569 1 m 128,-1,1
 462 1 462 1 376.5 38 c 128,-1,2
 291 75 291 75 235.5 138 c 128,-1,3
 180 201 180 201 143 289 c 128,-1,4
 106 377 106 377 90 473.5 c 128,-1,5
 74 570 74 570 74 680 c 0,6,7
 74 792 74 792 90 890 c 128,-1,8
 106 988 106 988 143.5 1076 c 128,-1,9
 181 1164 181 1164 237 1227 c 128,-1,10
 293 1290 293 1290 378 1326.5 c 128,-1,11
 463 1363 463 1363 569 1363 c 0,12,13
 676 1363 676 1363 761 1326 c 128,-1,14
 846 1289 846 1289 902 1226 c 128,-1,15
 958 1163 958 1163 995.5 1075 c 128,-1,16
 1033 987 1033 987 1049 889 c 128,-1,17
 1065 791 1065 791 1065 680 c 0,18,19
 1065 570 1065 570 1049 473.5 c 128,-1,20
 1033 377 1033 377 996 289 c 128,-1,21
 959 201 959 201 903 138 c 128,-1,22
 847 75 847 75 761.5 38 c 128,-1,0
 676 1 676 1 569 1 c 128,-1,1
569 206 m 0,23,24
 803 206 803 206 803 687 c 0,25,26
 803 1159 803 1159 569 1159 c 0,27,28
 338 1159 338 1159 334 690 c 0,29,30
 334 590 334 590 345 508 c 128,-1,31
 356 426 356 426 381.5 355.5 c 128,-1,32
 407 285 407 285 454.5 245.5 c 128,-1,33
 502 206 502 206 569 206 c 0,23,24
EndSplineSet
EndUndoOperation
UndoOperation
Index: 1
Type: 1
WasModified: 0
WasOrder2: 1
Width: 1139
VWidth: 2048
LBearingChange: 0
UnicodeEnc: 0
InstructionsLength: 0
SplineSet
569 1 m 128,-1,1
 462 1 462 1 376.5 38 c 128,-1,2
 291 75 291 75 235.5 138 c 128,-1,3
 180 201 180 201 143 289 c 128,-1,4
 106 377 106 377 90 473.5 c 128,-1,5
 74 570 74 570 74 680 c 0,6,7
 74 792 74 792 90 890 c 128,-1,8
 106 988 106 988 143.5 1076 c 128,-1,9
 181 1164 181 1164 237 1227 c 128,-1,10
 293 1290 293 1290 378 1326.5 c 128,-1,11
 463 1363 463 1363 569 1363 c 0,12,13
 676 1363 676 1363 761 1326 c 128,-1,14
 846 1289 846 1289 902 1226 c 128,-1,15
 958 1163 958 1163 995.5 1075 c 128,-1,16
 1033 987 1033 987 1049 889 c 128,-1,17
 1065 791 1065 791 1065 680 c 0,18,19
 1065 570 1065 570 1049 473.5 c 128,-1,20
 1033 377 1033 377 996 289 c 128,-1,21
 959 201 959 201 903 138 c 128,-1,22
 847 75 847 75 761.5 38 c 128,-1,0
 676 1 676 1 569 1 c 128,-1,1
569 206 m 0,23,24
 803 206 803 206 803 687 c 0,25,26
 803 1159 803 1159 569 1159 c 0,27,28
 338 1159 338 1159 334 690 c 0,29,30
 334 590 334 590 345 508 c 128,-1,31
 356 426 356 426 381.5 355.5 c 128,-1,32
 407 285 407 285 454.5 245.5 c 128,-1,33
 502 206 502 206 569 206 c 0,23,24
EndSplineSet
EndUndoOperation
EndUndoes
Redoes
EndRedoes
EndUndoRedoHistory
Fore
SplineSet
569 1 m 128,-1,1
 462 1 462 1 376.5 38 c 128,-1,2
 291 75 291 75 235.5 138 c 128,-1,3
 180 201 180 201 143 289 c 128,-1,4
 106 377 106 377 90 473.5 c 128,-1,5
 74 570 74 570 74 680 c 0,6,7
 74 792 74 792 90 890 c 128,-1,8
 106 988 106 988 143.5 1076 c 128,-1,9
 181 1164 181 1164 237 1227 c 128,-1,10
 293 1290 293 1290 378 1326.5 c 128,-1,11
 463 1363 463 1363 569 1363 c 0,12,13
 676 1363 676 1363 761 1326 c 128,-1,14
 846 1289 846 1289 902 1226 c 128,-1,15
 958 1163 958 1163 995.5 1075 c 128,-1,16
 1033 987 1033 987 1049 889 c 128,-1,17
 1065 791 1065 791 1065 680 c 0,18,19
 1065 570 1065 570 1049 473.5 c 128,-1,20
 1033 377 1033 377 996 289 c 128,-1,21
 959 201 959 201 903 138 c 128,-1,22
 847 75 847 75 761.5 38 c 128,-1,0
 676 1 676 1 569 1 c 128,-1,1
569 206 m 0,23,24
 803 206 803 206 803 687 c 0,25,26
 803 1159 803 1159 569 1159 c 0,27,28
 338 1159 338 1159 334 690 c 0,29,30
 334 590 334 590 345 508 c 128,-1,31
 356 426 356 426 381.5 355.5 c 128,-1,32
 407 285 407 285 454.5 245.5 c 128,-1,33
 502 206 502 206 569 206 c 0,23,24
EndSplineSet
EndChar

StartChar: one
Encoding: 49 49 19
Width: 1015
GlyphClass: 2
Flags: W
LayerCount: 2
UndoRedoHistory
Layer: 1
Undoes
UndoOperation
Index: 0
Type: 1
WasModified: 0
WasOrder2: 1
Width: 1015
VWidth: 2048
LBearingChange: 0
UnicodeEnc: 0
InstructionsLength: 0
SplineSet
897 0 m 1,0,-1
 96 0 l 1,1,-1
 96 200 l 1,2,-1
 384 200 l 1,3,-1
 384 1102 l 1,4,5
 348 1077 348 1077 269.5 1048.5 c 128,-1,6
 191 1020 191 1020 96 1005 c 1,7,-1
 96 1206 l 1,8,9
 312 1265 312 1265 419 1342 c 1,10,-1
 640 1342 l 1,11,-1
 640 200 l 1,12,-1
 897 200 l 1,13,-1
 897 0 l 1,0,-1
EndSplineSet
EndUndoOperation
UndoOperation
Index: 1
Type: 1
WasModified: 0
WasOrder2: 1
Width: 1015
VWidth: 2048
LBearingChange: 0
UnicodeEnc: 0
InstructionsLength: 0
SplineSet
897 0 m 1,0,-1
 96 0 l 1,1,-1
 96 200 l 1,2,-1
 384 200 l 1,3,-1
 384 1102 l 1,4,5
 348 1077 348 1077 269.5 1048.5 c 128,-1,6
 191 1020 191 1020 96 1005 c 1,7,-1
 96 1206 l 1,8,9
 312 1265 312 1265 419 1342 c 1,10,-1
 640 1342 l 1,11,-1
 640 200 l 1,12,-1
 897 200 l 1,13,-1
 897 0 l 1,0,-1
EndSplineSet
EndUndoOperation
EndUndoes
Redoes
EndRedoes
EndUndoRedoHistory
Fore
SplineSet
897 0 m 1,0,-1
 96 0 l 1,1,-1
 96 200 l 1,2,-1
 384 200 l 1,3,-1
 384 1102 l 1,4,5
 348 1077 348 1077 269.5 1048.5 c 128,-1,6
 191 1020 191 1020 96 1005 c 1,7,-1
 96 1206 l 1,8,9
 312 1265 312 1265 419 1342 c 1,10,-1
 640 1342 l 1,11,-1
 640 200 l 1,12,-1
 897 200 l 1,13,-1
 897 0 l 1,0,-1
EndSplineSet
EndChar

StartChar: two
Encoding: 50 50 20
Width: 965
GlyphClass: 2
Flags: W
LayerCount: 2
UndoRedoHistory
Layer: 1
Undoes
UndoOperation
Index: 0
Type: 1
WasModified: 0
WasOrder2: 1
Width: 965
VWidth: 2048
LBearingChange: 0
UnicodeEnc: 0
InstructionsLength: 0
SplineSet
66 0 m 1,0,-1
 60 207 l 1,1,-1
 477 680 l 1,2,3
 539 748 539 748 578.5 828 c 128,-1,4
 618 908 618 908 618 970 c 0,5,6
 618 1050 618 1050 563.5 1104 c 128,-1,7
 509 1158 509 1158 427 1158 c 0,8,9
 347 1158 347 1158 268.5 1120.5 c 128,-1,10
 190 1083 190 1083 143 1046 c 1,11,-1
 68 1232 l 1,12,13
 132 1288 132 1288 229 1325.5 c 128,-1,14
 326 1363 326 1363 440 1363 c 0,15,16
 631 1363 631 1363 754 1258 c 128,-1,17
 877 1153 877 1153 877 972 c 0,18,19
 877 863 877 863 802 730.5 c 128,-1,20
 727 598 727 598 628 494 c 1,21,-1
 363 200 l 1,22,-1
 869 200 l 1,23,-1
 852 0 l 1,24,-1
 66 0 l 1,0,-1
EndSplineSet
EndUndoOperation
UndoOperation
Index: 1
Type: 1
WasModified: 0
WasOrder2: 1
Width: 965
VWidth: 2048
LBearingChange: 0
UnicodeEnc: 0
InstructionsLength: 0
SplineSet
66 0 m 1,0,-1
 60 207 l 1,1,-1
 477 680 l 1,2,3
 539 748 539 748 578.5 828 c 128,-1,4
 618 908 618 908 618 970 c 0,5,6
 618 1050 618 1050 563.5 1104 c 128,-1,7
 509 1158 509 1158 427 1158 c 0,8,9
 347 1158 347 1158 268.5 1120.5 c 128,-1,10
 190 1083 190 1083 143 1046 c 1,11,-1
 68 1232 l 1,12,13
 132 1288 132 1288 229 1325.5 c 128,-1,14
 326 1363 326 1363 440 1363 c 0,15,16
 631 1363 631 1363 754 1258 c 128,-1,17
 877 1153 877 1153 877 972 c 0,18,19
 877 863 877 863 802 730.5 c 128,-1,20
 727 598 727 598 628 494 c 1,21,-1
 363 200 l 1,22,-1
 869 200 l 1,23,-1
 852 0 l 1,24,-1
 66 0 l 1,0,-1
EndSplineSet
EndUndoOperation
EndUndoes
Redoes
EndRedoes
EndUndoRedoHistory
Fore
SplineSet
66 0 m 1,0,-1
 60 207 l 1,1,-1
 477 680 l 1,2,3
 539 748 539 748 578.5 828 c 128,-1,4
 618 908 618 908 618 970 c 0,5,6
 618 1050 618 1050 563.5 1104 c 128,-1,7
 509 1158 509 1158 427 1158 c 0,8,9
 347 1158 347 1158 268.5 1120.5 c 128,-1,10
 190 1083 190 1083 143 1046 c 1,11,-1
 68 1232 l 1,12,13
 132 1288 132 1288 229 1325.5 c 128,-1,14
 326 1363 326 1363 440 1363 c 0,15,16
 631 1363 631 1363 754 1258 c 128,-1,17
 877 1153 877 1153 877 972 c 0,18,19
 877 863 877 863 802 730.5 c 128,-1,20
 727 598 727 598 628 494 c 1,21,-1
 363 200 l 1,22,-1
 869 200 l 1,23,-1
 852 0 l 1,24,-1
 66 0 l 1,0,-1
EndSplineSet
EndChar

StartChar: three
Encoding: 51 51 21
Width: 998
GlyphClass: 2
Flags: W
LayerCount: 2
UndoRedoHistory
Layer: 1
Undoes
UndoOperation
Index: 0
Type: 1
WasModified: 0
WasOrder2: 1
Width: 998
VWidth: 2048
LBearingChange: 0
UnicodeEnc: 0
InstructionsLength: 0
SplineSet
642 385 m 0,0,1
 642 438 642 438 626 475.5 c 128,-1,2
 610 513 610 513 583.5 536 c 128,-1,3
 557 559 557 559 512 573 c 128,-1,4
 467 587 467 587 419 592 c 128,-1,5
 371 597 371 597 302 599 c 1,6,-1
 242 599 l 1,7,-1
 242 799 l 1,8,-1
 302 799 l 2,9,10
 362 799 362 799 407 804 c 128,-1,11
 452 809 452 809 493.5 821 c 128,-1,12
 535 833 535 833 561 853 c 128,-1,13
 587 873 587 873 602.5 905.5 c 128,-1,14
 618 938 618 938 618 981 c 0,15,16
 618 1054 618 1054 565 1106.5 c 128,-1,17
 512 1159 512 1159 415 1159 c 0,18,19
 251 1159 251 1159 125 1077 c 1,20,-1
 51 1264 l 1,21,22
 211 1363 211 1363 437 1363 c 0,23,24
 623 1363 623 1363 743.5 1261.5 c 128,-1,25
 864 1160 864 1160 864 1000 c 0,26,27
 864 897 864 897 815 822 c 128,-1,28
 766 747 766 747 673 707 c 1,29,30
 780 675 780 675 840 583.5 c 128,-1,31
 900 492 900 492 900 373 c 0,32,33
 900 252 900 252 835 163.5 c 128,-1,34
 770 75 770 75 665.5 33 c 128,-1,35
 561 -9 561 -9 430 -9 c 0,36,37
 315 -9 315 -9 212.5 21 c 128,-1,38
 110 51 110 51 49 103 c 1,39,-1
 126 287 l 1,40,41
 174 247 174 247 259 221.5 c 128,-1,42
 344 196 344 196 431 196 c 0,43,44
 528 196 528 196 585 248 c 128,-1,45
 642 300 642 300 642 385 c 0,0,1
EndSplineSet
EndUndoOperation
UndoOperation
Index: 1
Type: 1
WasModified: 0
WasOrder2: 1
Width: 998
VWidth: 2048
LBearingChange: 0
UnicodeEnc: 0
InstructionsLength: 0
SplineSet
642 385 m 0,0,1
 642 438 642 438 626 475.5 c 128,-1,2
 610 513 610 513 583.5 536 c 128,-1,3
 557 559 557 559 512 573 c 128,-1,4
 467 587 467 587 419 592 c 128,-1,5
 371 597 371 597 302 599 c 1,6,-1
 242 599 l 1,7,-1
 242 799 l 1,8,-1
 302 799 l 2,9,10
 362 799 362 799 407 804 c 128,-1,11
 452 809 452 809 493.5 821 c 128,-1,12
 535 833 535 833 561 853 c 128,-1,13
 587 873 587 873 602.5 905.5 c 128,-1,14
 618 938 618 938 618 981 c 0,15,16
 618 1054 618 1054 565 1106.5 c 128,-1,17
 512 1159 512 1159 415 1159 c 0,18,19
 251 1159 251 1159 125 1077 c 1,20,-1
 51 1264 l 1,21,22
 211 1363 211 1363 437 1363 c 0,23,24
 623 1363 623 1363 743.5 1261.5 c 128,-1,25
 864 1160 864 1160 864 1000 c 0,26,27
 864 897 864 897 815 822 c 128,-1,28
 766 747 766 747 673 707 c 1,29,30
 780 675 780 675 840 583.5 c 128,-1,31
 900 492 900 492 900 373 c 0,32,33
 900 252 900 252 835 163.5 c 128,-1,34
 770 75 770 75 665.5 33 c 128,-1,35
 561 -9 561 -9 430 -9 c 0,36,37
 315 -9 315 -9 212.5 21 c 128,-1,38
 110 51 110 51 49 103 c 1,39,-1
 126 287 l 1,40,41
 174 247 174 247 259 221.5 c 128,-1,42
 344 196 344 196 431 196 c 0,43,44
 528 196 528 196 585 248 c 128,-1,45
 642 300 642 300 642 385 c 0,0,1
EndSplineSet
EndUndoOperation
EndUndoes
Redoes
EndRedoes
EndUndoRedoHistory
Fore
SplineSet
642 385 m 0,0,1
 642 438 642 438 626 475.5 c 128,-1,2
 610 513 610 513 583.5 536 c 128,-1,3
 557 559 557 559 512 573 c 128,-1,4
 467 587 467 587 419 592 c 128,-1,5
 371 597 371 597 302 599 c 1,6,-1
 242 599 l 1,7,-1
 242 799 l 1,8,-1
 302 799 l 2,9,10
 362 799 362 799 407 804 c 128,-1,11
 452 809 452 809 493.5 821 c 128,-1,12
 535 833 535 833 561 853 c 128,-1,13
 587 873 587 873 602.5 905.5 c 128,-1,14
 618 938 618 938 618 981 c 0,15,16
 618 1054 618 1054 565 1106.5 c 128,-1,17
 512 1159 512 1159 415 1159 c 0,18,19
 251 1159 251 1159 125 1077 c 1,20,-1
 51 1264 l 1,21,22
 211 1363 211 1363 437 1363 c 0,23,24
 623 1363 623 1363 743.5 1261.5 c 128,-1,25
 864 1160 864 1160 864 1000 c 0,26,27
 864 897 864 897 815 822 c 128,-1,28
 766 747 766 747 673 707 c 1,29,30
 780 675 780 675 840 583.5 c 128,-1,31
 900 492 900 492 900 373 c 0,32,33
 900 252 900 252 835 163.5 c 128,-1,34
 770 75 770 75 665.5 33 c 128,-1,35
 561 -9 561 -9 430 -9 c 0,36,37
 315 -9 315 -9 212.5 21 c 128,-1,38
 110 51 110 51 49 103 c 1,39,-1
 126 287 l 1,40,41
 174 247 174 247 259 221.5 c 128,-1,42
 344 196 344 196 431 196 c 0,43,44
 528 196 528 196 585 248 c 128,-1,45
 642 300 642 300 642 385 c 0,0,1
EndSplineSet
EndChar

StartChar: four
Encoding: 52 52 22
Width: 1085
GlyphClass: 2
Flags: W
LayerCount: 2
UndoRedoHistory
Layer: 1
Undoes
UndoOperation
Index: 0
Type: 1
WasModified: 0
WasOrder2: 1
Width: 1085
VWidth: 2048
LBearingChange: 0
UnicodeEnc: 0
InstructionsLength: 0
SplineSet
620 494 m 1,0,-1
 622 1055 l 1,1,-1
 297 494 l 1,2,-1
 620 494 l 1,0,-1
566 1335 m 1,3,-1
 876 1335 l 1,4,-1
 876 498 l 1,5,-1
 1037 498 l 1,6,-1
 1023 296 l 1,7,-1
 876 296 l 1,8,-1
 876 8 l 1,9,-1
 619 8 l 1,10,-1
 619 296 l 1,11,-1
 38 296 l 1,12,-1
 38 473 l 1,13,-1
 566 1335 l 1,3,-1
EndSplineSet
EndUndoOperation
UndoOperation
Index: 1
Type: 1
WasModified: 0
WasOrder2: 1
Width: 1085
VWidth: 2048
LBearingChange: 0
UnicodeEnc: 0
InstructionsLength: 0
SplineSet
620 494 m 1,0,-1
 622 1055 l 1,1,-1
 297 494 l 1,2,-1
 620 494 l 1,0,-1
566 1335 m 1,3,-1
 876 1335 l 1,4,-1
 876 498 l 1,5,-1
 1037 498 l 1,6,-1
 1023 296 l 1,7,-1
 876 296 l 1,8,-1
 876 8 l 1,9,-1
 619 8 l 1,10,-1
 619 296 l 1,11,-1
 38 296 l 1,12,-1
 38 473 l 1,13,-1
 566 1335 l 1,3,-1
EndSplineSet
EndUndoOperation
EndUndoes
Redoes
EndRedoes
EndUndoRedoHistory
Fore
SplineSet
620 494 m 1,0,-1
 622 1055 l 1,1,-1
 297 494 l 1,2,-1
 620 494 l 1,0,-1
566 1335 m 1,3,-1
 876 1335 l 1,4,-1
 876 498 l 1,5,-1
 1037 498 l 1,6,-1
 1023 296 l 1,7,-1
 876 296 l 1,8,-1
 876 8 l 1,9,-1
 619 8 l 1,10,-1
 619 296 l 1,11,-1
 38 296 l 1,12,-1
 38 473 l 1,13,-1
 566 1335 l 1,3,-1
EndSplineSet
EndChar

StartChar: five
Encoding: 53 53 23
Width: 1003
GlyphClass: 2
Flags: W
LayerCount: 2
UndoRedoHistory
Layer: 1
Undoes
UndoOperation
Index: 0
Type: 1
WasModified: 0
WasOrder2: 1
Width: 1003
VWidth: 2048
LBearingChange: 0
UnicodeEnc: 0
InstructionsLength: 0
SplineSet
444 -9 m 0,0,1
 376 -9 376 -9 304.5 8 c 128,-1,2
 233 25 233 25 180.5 48 c 128,-1,3
 128 71 128 71 94.5 89.5 c 128,-1,4
 61 108 61 108 50 118 c 1,5,-1
 134 300 l 1,6,7
 151 287 151 287 183 267.5 c 128,-1,8
 215 248 215 248 285.5 223 c 128,-1,9
 356 198 356 198 420 198 c 0,10,11
 538 198 538 198 597.5 263.5 c 128,-1,12
 657 329 657 329 657 438 c 0,13,14
 657 541 657 541 603 601.5 c 128,-1,15
 549 662 549 662 463 662 c 0,16,17
 359 662 359 662 276 569 c 1,18,-1
 102 598 l 1,19,-1
 137 1335 l 1,20,-1
 859 1335 l 1,21,-1
 843 1128 l 1,22,-1
 362 1128 l 1,23,24
 361 1108 361 1108 350.5 975 c 128,-1,25
 340 842 340 842 339 807 c 1,26,27
 341 808 341 808 355 815 c 128,-1,28
 369 822 369 822 373.5 824 c 128,-1,29
 378 826 378 826 391 832 c 128,-1,30
 404 838 404 838 410 840 c 128,-1,31
 416 842 416 842 428 847 c 128,-1,32
 440 852 440 852 447.5 854 c 128,-1,33
 455 856 455 856 465 858.5 c 128,-1,34
 475 861 475 861 483.5 862 c 128,-1,35
 492 863 492 863 500 863 c 0,36,37
 681 863 681 863 794 744 c 128,-1,38
 907 625 907 625 907 436 c 0,39,40
 907 235 907 235 784 113 c 128,-1,41
 661 -9 661 -9 444 -9 c 0,0,1
EndSplineSet
EndUndoOperation
UndoOperation
Index: 1
Type: 1
WasModified: 0
WasOrder2: 1
Width: 1003
VWidth: 2048
LBearingChange: 0
UnicodeEnc: 0
InstructionsLength: 0
SplineSet
444 -9 m 0,0,1
 376 -9 376 -9 304.5 8 c 128,-1,2
 233 25 233 25 180.5 48 c 128,-1,3
 128 71 128 71 94.5 89.5 c 128,-1,4
 61 108 61 108 50 118 c 1,5,-1
 134 300 l 1,6,7
 151 287 151 287 183 267.5 c 128,-1,8
 215 248 215 248 285.5 223 c 128,-1,9
 356 198 356 198 420 198 c 0,10,11
 538 198 538 198 597.5 263.5 c 128,-1,12
 657 329 657 329 657 438 c 0,13,14
 657 541 657 541 603 601.5 c 128,-1,15
 549 662 549 662 463 662 c 0,16,17
 359 662 359 662 276 569 c 1,18,-1
 102 598 l 1,19,-1
 137 1335 l 1,20,-1
 859 1335 l 1,21,-1
 843 1128 l 1,22,-1
 362 1128 l 1,23,24
 361 1108 361 1108 350.5 975 c 128,-1,25
 340 842 340 842 339 807 c 1,26,27
 341 808 341 808 355 815 c 128,-1,28
 369 822 369 822 373.5 824 c 128,-1,29
 378 826 378 826 391 832 c 128,-1,30
 404 838 404 838 410 840 c 128,-1,31
 416 842 416 842 428 847 c 128,-1,32
 440 852 440 852 447.5 854 c 128,-1,33
 455 856 455 856 465 858.5 c 128,-1,34
 475 861 475 861 483.5 862 c 128,-1,35
 492 863 492 863 500 863 c 0,36,37
 681 863 681 863 794 744 c 128,-1,38
 907 625 907 625 907 436 c 0,39,40
 907 235 907 235 784 113 c 128,-1,41
 661 -9 661 -9 444 -9 c 0,0,1
EndSplineSet
EndUndoOperation
EndUndoes
Redoes
EndRedoes
EndUndoRedoHistory
Fore
SplineSet
444 -9 m 0,0,1
 376 -9 376 -9 304.5 8 c 128,-1,2
 233 25 233 25 180.5 48 c 128,-1,3
 128 71 128 71 94.5 89.5 c 128,-1,4
 61 108 61 108 50 118 c 1,5,-1
 134 300 l 1,6,7
 151 287 151 287 183 267.5 c 128,-1,8
 215 248 215 248 285.5 223 c 128,-1,9
 356 198 356 198 420 198 c 0,10,11
 538 198 538 198 597.5 263.5 c 128,-1,12
 657 329 657 329 657 438 c 0,13,14
 657 541 657 541 603 601.5 c 128,-1,15
 549 662 549 662 463 662 c 0,16,17
 359 662 359 662 276 569 c 1,18,-1
 102 598 l 1,19,-1
 137 1335 l 1,20,-1
 859 1335 l 1,21,-1
 843 1128 l 1,22,-1
 362 1128 l 1,23,24
 361 1108 361 1108 350.5 975 c 128,-1,25
 340 842 340 842 339 807 c 1,26,27
 341 808 341 808 355 815 c 128,-1,28
 369 822 369 822 373.5 824 c 128,-1,29
 378 826 378 826 391 832 c 128,-1,30
 404 838 404 838 410 840 c 128,-1,31
 416 842 416 842 428 847 c 128,-1,32
 440 852 440 852 447.5 854 c 128,-1,33
 455 856 455 856 465 858.5 c 128,-1,34
 475 861 475 861 483.5 862 c 128,-1,35
 492 863 492 863 500 863 c 0,36,37
 681 863 681 863 794 744 c 128,-1,38
 907 625 907 625 907 436 c 0,39,40
 907 235 907 235 784 113 c 128,-1,41
 661 -9 661 -9 444 -9 c 0,0,1
EndSplineSet
EndChar

StartChar: six
Encoding: 54 54 24
Width: 1140
GlyphClass: 2
Flags: W
LayerCount: 2
UndoRedoHistory
Layer: 1
Undoes
UndoOperation
Index: 0
Type: 1
WasModified: 0
WasOrder2: 1
Width: 1140
VWidth: 2048
LBearingChange: 0
UnicodeEnc: 0
InstructionsLength: 0
SplineSet
568 189 m 0,0,1
 680 189 680 189 742 252.5 c 128,-1,2
 804 316 804 316 804 422 c 0,3,4
 804 534 804 534 746 596.5 c 128,-1,5
 688 659 688 659 571 659 c 0,6,7
 453 659 453 659 398 595.5 c 128,-1,8
 343 532 343 532 343 420 c 0,9,10
 343 313 343 313 401 251 c 128,-1,11
 459 189 459 189 568 189 c 0,0,1
578 -9 m 0,12,13
 359 -9 359 -9 220.5 112 c 128,-1,14
 82 233 82 233 82 431 c 0,15,16
 82 550 82 550 128 646.5 c 128,-1,17
 174 743 174 743 264 862 c 1,18,-1
 615 1334 l 1,19,-1
 931 1334 l 1,20,-1
 542 835 l 1,21,22
 586 847 586 847 619 847 c 0,23,24
 813 847 813 847 940.5 729.5 c 128,-1,25
 1068 612 1068 612 1068 426 c 0,26,27
 1068 232 1068 232 929 111.5 c 128,-1,28
 790 -9 790 -9 578 -9 c 0,12,13
EndSplineSet
EndUndoOperation
UndoOperation
Index: 1
Type: 1
WasModified: 0
WasOrder2: 1
Width: 1140
VWidth: 2048
LBearingChange: 0
UnicodeEnc: 0
InstructionsLength: 0
SplineSet
568 189 m 0,0,1
 680 189 680 189 742 252.5 c 128,-1,2
 804 316 804 316 804 422 c 0,3,4
 804 534 804 534 746 596.5 c 128,-1,5
 688 659 688 659 571 659 c 0,6,7
 453 659 453 659 398 595.5 c 128,-1,8
 343 532 343 532 343 420 c 0,9,10
 343 313 343 313 401 251 c 128,-1,11
 459 189 459 189 568 189 c 0,0,1
578 -9 m 0,12,13
 359 -9 359 -9 220.5 112 c 128,-1,14
 82 233 82 233 82 431 c 0,15,16
 82 550 82 550 128 646.5 c 128,-1,17
 174 743 174 743 264 862 c 1,18,-1
 615 1334 l 1,19,-1
 931 1334 l 1,20,-1
 542 835 l 1,21,22
 586 847 586 847 619 847 c 0,23,24
 813 847 813 847 940.5 729.5 c 128,-1,25
 1068 612 1068 612 1068 426 c 0,26,27
 1068 232 1068 232 929 111.5 c 128,-1,28
 790 -9 790 -9 578 -9 c 0,12,13
EndSplineSet
EndUndoOperation
EndUndoes
Redoes
EndRedoes
EndUndoRedoHistory
Fore
SplineSet
568 189 m 0,0,1
 680 189 680 189 742 252.5 c 128,-1,2
 804 316 804 316 804 422 c 0,3,4
 804 534 804 534 746 596.5 c 128,-1,5
 688 659 688 659 571 659 c 0,6,7
 453 659 453 659 398 595.5 c 128,-1,8
 343 532 343 532 343 420 c 0,9,10
 343 313 343 313 401 251 c 128,-1,11
 459 189 459 189 568 189 c 0,0,1
578 -9 m 0,12,13
 359 -9 359 -9 220.5 112 c 128,-1,14
 82 233 82 233 82 431 c 0,15,16
 82 550 82 550 128 646.5 c 128,-1,17
 174 743 174 743 264 862 c 1,18,-1
 615 1334 l 1,19,-1
 931 1334 l 1,20,-1
 542 835 l 1,21,22
 586 847 586 847 619 847 c 0,23,24
 813 847 813 847 940.5 729.5 c 128,-1,25
 1068 612 1068 612 1068 426 c 0,26,27
 1068 232 1068 232 929 111.5 c 128,-1,28
 790 -9 790 -9 578 -9 c 0,12,13
EndSplineSet
EndChar

StartChar: seven
Encoding: 55 55 25
Width: 1021
GlyphClass: 2
Flags: W
LayerCount: 2
UndoRedoHistory
Layer: 1
Undoes
UndoOperation
Index: 0
Type: 1
WasModified: 0
WasOrder2: 1
Width: 1021
VWidth: 2048
LBearingChange: 0
UnicodeEnc: 0
InstructionsLength: 0
SplineSet
937 1342 m 1,0,-1
 937 1178 l 1,1,-1
 485 -1 l 1,2,-1
 229 -1 l 1,3,-1
 648 1138 l 1,4,-1
 88 1138 l 1,5,-1
 100 1342 l 1,6,-1
 937 1342 l 1,0,-1
EndSplineSet
EndUndoOperation
UndoOperation
Index: 1
Type: 1
WasModified: 0
WasOrder2: 1
Width: 1021
VWidth: 2048
LBearingChange: 0
UnicodeEnc: 0
InstructionsLength: 0
SplineSet
937 1342 m 1,0,-1
 937 1178 l 1,1,-1
 485 -1 l 1,2,-1
 229 -1 l 1,3,-1
 648 1138 l 1,4,-1
 88 1138 l 1,5,-1
 100 1342 l 1,6,-1
 937 1342 l 1,0,-1
EndSplineSet
EndUndoOperation
EndUndoes
Redoes
EndRedoes
EndUndoRedoHistory
Fore
SplineSet
937 1342 m 1,0,-1
 937 1178 l 1,1,-1
 485 -1 l 1,2,-1
 229 -1 l 1,3,-1
 648 1138 l 1,4,-1
 88 1138 l 1,5,-1
 100 1342 l 1,6,-1
 937 1342 l 1,0,-1
EndSplineSet
EndChar

StartChar: eight
Encoding: 56 56 26
Width: 1093
GlyphClass: 2
Flags: W
LayerCount: 2
UndoRedoHistory
Layer: 1
Undoes
UndoOperation
Index: 0
Type: 1
WasModified: 0
WasOrder2: 1
Width: 1093
VWidth: 2048
LBearingChange: 0
UnicodeEnc: 0
InstructionsLength: 0
SplineSet
549 781 m 1,0,1
 650 805 650 805 705.5 864.5 c 128,-1,2
 761 924 761 924 761 1016 c 0,3,4
 761 1092 761 1092 701.5 1138 c 128,-1,5
 642 1184 642 1184 549 1184 c 0,6,7
 455 1184 455 1184 394.5 1137.5 c 128,-1,8
 334 1091 334 1091 334 1016 c 0,9,10
 334 924 334 924 390.5 864.5 c 128,-1,11
 447 805 447 805 549 781 c 1,0,1
549 173 m 128,-1,13
 656 173 656 173 714.5 224 c 128,-1,14
 773 275 773 275 773 369 c 128,-1,15
 773 463 773 463 712.5 524.5 c 128,-1,16
 652 586 652 586 549 614 c 1,17,18
 445 586 445 586 384 524.5 c 128,-1,19
 323 463 323 463 323 368 c 0,20,21
 323 275 323 275 382.5 224 c 128,-1,12
 442 173 442 173 549 173 c 128,-1,13
549 1 m 128,-1,23
 422 1 422 1 318 42 c 128,-1,24
 214 83 214 83 149 169.5 c 128,-1,25
 84 256 84 256 84 375 c 0,26,27
 84 603 84 603 301 711 c 1,28,29
 109 813 109 813 109 1017 c 0,30,31
 109 1129 109 1129 170 1209 c 128,-1,32
 231 1289 231 1289 328.5 1326 c 128,-1,33
 426 1363 426 1363 548 1363 c 0,34,35
 671 1363 671 1363 768 1326 c 128,-1,36
 865 1289 865 1289 925 1209 c 128,-1,37
 985 1129 985 1129 985 1017 c 0,38,39
 985 814 985 814 806 711 c 1,40,41
 1009 602 1009 602 1009 374 c 0,42,43
 1009 255 1009 255 944.5 168.5 c 128,-1,44
 880 82 880 82 778 41.5 c 128,-1,22
 676 1 676 1 549 1 c 128,-1,23
EndSplineSet
EndUndoOperation
UndoOperation
Index: 1
Type: 1
WasModified: 0
WasOrder2: 1
Width: 1093
VWidth: 2048
LBearingChange: 0
UnicodeEnc: 0
InstructionsLength: 0
SplineSet
549 781 m 1,0,1
 650 805 650 805 705.5 864.5 c 128,-1,2
 761 924 761 924 761 1016 c 0,3,4
 761 1092 761 1092 701.5 1138 c 128,-1,5
 642 1184 642 1184 549 1184 c 0,6,7
 455 1184 455 1184 394.5 1137.5 c 128,-1,8
 334 1091 334 1091 334 1016 c 0,9,10
 334 924 334 924 390.5 864.5 c 128,-1,11
 447 805 447 805 549 781 c 1,0,1
549 173 m 128,-1,13
 656 173 656 173 714.5 224 c 128,-1,14
 773 275 773 275 773 369 c 128,-1,15
 773 463 773 463 712.5 524.5 c 128,-1,16
 652 586 652 586 549 614 c 1,17,18
 445 586 445 586 384 524.5 c 128,-1,19
 323 463 323 463 323 368 c 0,20,21
 323 275 323 275 382.5 224 c 128,-1,12
 442 173 442 173 549 173 c 128,-1,13
549 1 m 128,-1,23
 422 1 422 1 318 42 c 128,-1,24
 214 83 214 83 149 169.5 c 128,-1,25
 84 256 84 256 84 375 c 0,26,27
 84 603 84 603 301 711 c 1,28,29
 109 813 109 813 109 1017 c 0,30,31
 109 1129 109 1129 170 1209 c 128,-1,32
 231 1289 231 1289 328.5 1326 c 128,-1,33
 426 1363 426 1363 548 1363 c 0,34,35
 671 1363 671 1363 768 1326 c 128,-1,36
 865 1289 865 1289 925 1209 c 128,-1,37
 985 1129 985 1129 985 1017 c 0,38,39
 985 814 985 814 806 711 c 1,40,41
 1009 602 1009 602 1009 374 c 0,42,43
 1009 255 1009 255 944.5 168.5 c 128,-1,44
 880 82 880 82 778 41.5 c 128,-1,22
 676 1 676 1 549 1 c 128,-1,23
EndSplineSet
EndUndoOperation
EndUndoes
Redoes
EndRedoes
EndUndoRedoHistory
Fore
SplineSet
549 781 m 1,0,1
 650 805 650 805 705.5 864.5 c 128,-1,2
 761 924 761 924 761 1016 c 0,3,4
 761 1092 761 1092 701.5 1138 c 128,-1,5
 642 1184 642 1184 549 1184 c 0,6,7
 455 1184 455 1184 394.5 1137.5 c 128,-1,8
 334 1091 334 1091 334 1016 c 0,9,10
 334 924 334 924 390.5 864.5 c 128,-1,11
 447 805 447 805 549 781 c 1,0,1
549 173 m 128,-1,13
 656 173 656 173 714.5 224 c 128,-1,14
 773 275 773 275 773 369 c 128,-1,15
 773 463 773 463 712.5 524.5 c 128,-1,16
 652 586 652 586 549 614 c 1,17,18
 445 586 445 586 384 524.5 c 128,-1,19
 323 463 323 463 323 368 c 0,20,21
 323 275 323 275 382.5 224 c 128,-1,12
 442 173 442 173 549 173 c 128,-1,13
549 1 m 128,-1,23
 422 1 422 1 318 42 c 128,-1,24
 214 83 214 83 149 169.5 c 128,-1,25
 84 256 84 256 84 375 c 0,26,27
 84 603 84 603 301 711 c 1,28,29
 109 813 109 813 109 1017 c 0,30,31
 109 1129 109 1129 170 1209 c 128,-1,32
 231 1289 231 1289 328.5 1326 c 128,-1,33
 426 1363 426 1363 548 1363 c 0,34,35
 671 1363 671 1363 768 1326 c 128,-1,36
 865 1289 865 1289 925 1209 c 128,-1,37
 985 1129 985 1129 985 1017 c 0,38,39
 985 814 985 814 806 711 c 1,40,41
 1009 602 1009 602 1009 374 c 0,42,43
 1009 255 1009 255 944.5 168.5 c 128,-1,44
 880 82 880 82 778 41.5 c 128,-1,22
 676 1 676 1 549 1 c 128,-1,23
EndSplineSet
EndChar

StartChar: nine
Encoding: 57 57 27
Width: 1138
GlyphClass: 2
Flags: W
LayerCount: 2
UndoRedoHistory
Layer: 1
Undoes
UndoOperation
Index: 0
Type: 1
WasModified: 0
WasOrder2: 1
Width: 1138
VWidth: 2048
LBearingChange: 0
UnicodeEnc: 0
InstructionsLength: 0
SplineSet
566 687 m 0,0,1
 684 687 684 687 739 753 c 128,-1,2
 794 819 794 819 794 934 c 0,3,4
 794 1041 794 1041 736.5 1103.5 c 128,-1,5
 679 1166 679 1166 570 1166 c 0,6,7
 458 1166 458 1166 394.5 1101.5 c 128,-1,8
 331 1037 331 1037 331 930 c 0,9,10
 331 816 331 816 390 751.5 c 128,-1,11
 449 687 449 687 566 687 c 0,0,1
517 10 m 1,12,-1
 204 10 l 1,13,-1
 593 515 l 1,14,15
 550 502 550 502 516 502 c 0,16,17
 322 502 322 502 195 619 c 128,-1,18
 68 736 68 736 68 924 c 0,19,20
 68 1121 68 1121 207 1242 c 128,-1,21
 346 1363 346 1363 558 1363 c 0,22,23
 777 1363 777 1363 915.5 1242 c 128,-1,24
 1054 1121 1054 1121 1054 922 c 0,25,26
 1054 806 1054 806 1010.5 712 c 128,-1,27
 967 618 967 618 884 503 c 1,28,-1
 517 10 l 1,12,-1
EndSplineSet
EndUndoOperation
UndoOperation
Index: 1
Type: 1
WasModified: 0
WasOrder2: 1
Width: 1138
VWidth: 2048
LBearingChange: 0
UnicodeEnc: 0
InstructionsLength: 0
SplineSet
566 687 m 0,0,1
 684 687 684 687 739 753 c 128,-1,2
 794 819 794 819 794 934 c 0,3,4
 794 1041 794 1041 736.5 1103.5 c 128,-1,5
 679 1166 679 1166 570 1166 c 0,6,7
 458 1166 458 1166 394.5 1101.5 c 128,-1,8
 331 1037 331 1037 331 930 c 0,9,10
 331 816 331 816 390 751.5 c 128,-1,11
 449 687 449 687 566 687 c 0,0,1
517 10 m 1,12,-1
 204 10 l 1,13,-1
 593 515 l 1,14,15
 550 502 550 502 516 502 c 0,16,17
 322 502 322 502 195 619 c 128,-1,18
 68 736 68 736 68 924 c 0,19,20
 68 1121 68 1121 207 1242 c 128,-1,21
 346 1363 346 1363 558 1363 c 0,22,23
 777 1363 777 1363 915.5 1242 c 128,-1,24
 1054 1121 1054 1121 1054 922 c 0,25,26
 1054 806 1054 806 1010.5 712 c 128,-1,27
 967 618 967 618 884 503 c 1,28,-1
 517 10 l 1,12,-1
EndSplineSet
EndUndoOperation
EndUndoes
Redoes
EndRedoes
EndUndoRedoHistory
Fore
SplineSet
566 687 m 0,0,1
 684 687 684 687 739 753 c 128,-1,2
 794 819 794 819 794 934 c 0,3,4
 794 1041 794 1041 736.5 1103.5 c 128,-1,5
 679 1166 679 1166 570 1166 c 0,6,7
 458 1166 458 1166 394.5 1101.5 c 128,-1,8
 331 1037 331 1037 331 930 c 0,9,10
 331 816 331 816 390 751.5 c 128,-1,11
 449 687 449 687 566 687 c 0,0,1
517 10 m 1,12,-1
 204 10 l 1,13,-1
 593 515 l 1,14,15
 550 502 550 502 516 502 c 0,16,17
 322 502 322 502 195 619 c 128,-1,18
 68 736 68 736 68 924 c 0,19,20
 68 1121 68 1121 207 1242 c 128,-1,21
 346 1363 346 1363 558 1363 c 0,22,23
 777 1363 777 1363 915.5 1242 c 128,-1,24
 1054 1121 1054 1121 1054 922 c 0,25,26
 1054 806 1054 806 1010.5 712 c 128,-1,27
 967 618 967 618 884 503 c 1,28,-1
 517 10 l 1,12,-1
EndSplineSet
EndChar

StartChar: colon
Encoding: 58 58 28
Width: 400
GlyphClass: 2
Flags: W
LayerCount: 2
UndoRedoHistory
Layer: 1
Undoes
UndoOperation
Index: 0
Type: 1
WasModified: 0
WasOrder2: 1
Width: 400
VWidth: 2048
LBearingChange: 0
UnicodeEnc: 0
InstructionsLength: 0
SplineSet
83 768 m 1,0,-1
 83 1023 l 1,1,-1
 339 1023 l 1,2,-1
 339 768 l 1,3,-1
 83 768 l 1,0,-1
83 -6 m 1,4,-1
 83 260 l 1,5,-1
 339 260 l 1,6,-1
 339 -6 l 1,7,-1
 83 -6 l 1,4,-1
EndSplineSet
EndUndoOperation
UndoOperation
Index: 1
Type: 1
WasModified: 0
WasOrder2: 1
Width: 400
VWidth: 2048
LBearingChange: 0
UnicodeEnc: 0
InstructionsLength: 0
SplineSet
83 768 m 1,0,-1
 83 1023 l 1,1,-1
 339 1023 l 1,2,-1
 339 768 l 1,3,-1
 83 768 l 1,0,-1
83 -6 m 1,4,-1
 83 260 l 1,5,-1
 339 260 l 1,6,-1
 339 -6 l 1,7,-1
 83 -6 l 1,4,-1
EndSplineSet
EndUndoOperation
EndUndoes
Redoes
EndRedoes
EndUndoRedoHistory
Fore
SplineSet
83 768 m 1,0,-1
 83 1023 l 1,1,-1
 339 1023 l 1,2,-1
 339 768 l 1,3,-1
 83 768 l 1,0,-1
83 -6 m 1,4,-1
 83 260 l 1,5,-1
 339 260 l 1,6,-1
 339 -6 l 1,7,-1
 83 -6 l 1,4,-1
EndSplineSet
EndChar

StartChar: semicolon
Encoding: 59 59 29
Width: 454
GlyphClass: 2
Flags: W
LayerCount: 2
UndoRedoHistory
Layer: 1
Undoes
UndoOperation
Index: 0
Type: 1
WasModified: 0
WasOrder2: 1
Width: 454
VWidth: 2048
LBearingChange: 0
UnicodeEnc: 0
InstructionsLength: 0
SplineSet
108 767 m 1,0,-1
 108 1022 l 1,1,-1
 363 1022 l 1,2,-1
 363 767 l 1,3,-1
 108 767 l 1,0,-1
92 -287 m 1,4,-1
 142 248 l 1,5,-1
 366 248 l 1,6,-1
 250 -287 l 1,7,-1
 92 -287 l 1,4,-1
EndSplineSet
EndUndoOperation
UndoOperation
Index: 1
Type: 1
WasModified: 0
WasOrder2: 1
Width: 454
VWidth: 2048
LBearingChange: 0
UnicodeEnc: 0
InstructionsLength: 0
SplineSet
108 767 m 1,0,-1
 108 1022 l 1,1,-1
 363 1022 l 1,2,-1
 363 767 l 1,3,-1
 108 767 l 1,0,-1
92 -287 m 1,4,-1
 142 248 l 1,5,-1
 366 248 l 1,6,-1
 250 -287 l 1,7,-1
 92 -287 l 1,4,-1
EndSplineSet
EndUndoOperation
EndUndoes
Redoes
EndRedoes
EndUndoRedoHistory
Fore
SplineSet
108 767 m 1,0,-1
 108 1022 l 1,1,-1
 363 1022 l 1,2,-1
 363 767 l 1,3,-1
 108 767 l 1,0,-1
92 -287 m 1,4,-1
 142 248 l 1,5,-1
 366 248 l 1,6,-1
 250 -287 l 1,7,-1
 92 -287 l 1,4,-1
EndSplineSet
EndChar

StartChar: less
Encoding: 60 60 30
Width: 1048
GlyphClass: 2
Flags: W
LayerCount: 2
UndoRedoHistory
Layer: 1
Undoes
UndoOperation
Index: 0
Type: 1
WasModified: 0
WasOrder2: 1
Width: 1048
VWidth: 2048
LBearingChange: 0
UnicodeEnc: 0
InstructionsLength: 0
SplineSet
969 952 m 1,0,-1
 364 654 l 1,1,-1
 967 384 l 1,2,3
 967 384 967 384 969 169 c 1,4,-1
 96 588 l 1,5,-1
 96 710 l 1,6,-1
 969 1157 l 1,7,-1
 969 952 l 1,0,-1
EndSplineSet
EndUndoOperation
UndoOperation
Index: 1
Type: 1
WasModified: 0
WasOrder2: 1
Width: 1048
VWidth: 2048
LBearingChange: 0
UnicodeEnc: 0
InstructionsLength: 0
SplineSet
969 952 m 1,0,-1
 364 654 l 1,1,-1
 967 384 l 1,2,3
 967 384 967 384 969 169 c 1,4,-1
 96 588 l 1,5,-1
 96 710 l 1,6,-1
 969 1157 l 1,7,-1
 969 952 l 1,0,-1
EndSplineSet
EndUndoOperation
EndUndoes
Redoes
EndRedoes
EndUndoRedoHistory
Fore
SplineSet
969 952 m 1,0,-1
 364 654 l 1,1,-1
 967 384 l 1,2,3
 969 169 l 1,4,-1
 96 588 l 1,5,-1
 96 710 l 1,6,-1
 969 1157 l 1,7,-1
 969 952 l 1,0,-1
EndSplineSet
EndChar

StartChar: equal
Encoding: 61 61 31
Width: 1052
GlyphClass: 2
Flags: W
LayerCount: 2
UndoRedoHistory
Layer: 1
Undoes
UndoOperation
Index: 0
Type: 1
WasModified: 0
WasOrder2: 1
Width: 1052
VWidth: 2048
LBearingChange: 0
UnicodeEnc: 0
InstructionsLength: 0
SplineSet
76 680 m 1,0,-1
 76 881 l 1,1,-1
 995 881 l 1,2,-1
 995 680 l 1,3,-1
 76 680 l 1,0,-1
76 326 m 1,4,-1
 76 518 l 1,5,-1
 995 518 l 1,6,-1
 995 326 l 1,7,-1
 76 326 l 1,4,-1
EndSplineSet
EndUndoOperation
UndoOperation
Index: 1
Type: 1
WasModified: 0
WasOrder2: 1
Width: 1052
VWidth: 2048
LBearingChange: 0
UnicodeEnc: 0
InstructionsLength: 0
SplineSet
76 680 m 1,0,-1
 995 680 l 1,1,-1
 995 881 l 1,2,-1
 76 881 l 1,3,-1
 76 680 l 1,0,-1
76 326 m 1,4,-1
 995 326 l 1,5,-1
 995 518 l 1,6,-1
 76 518 l 1,7,-1
 76 326 l 1,4,-1
EndSplineSet
EndUndoOperation
EndUndoes
Redoes
EndRedoes
EndUndoRedoHistory
Fore
SplineSet
76 680 m 1,0,-1
 76 881 l 1,1,-1
 995 881 l 1,2,-1
 995 680 l 1,3,-1
 76 680 l 1,0,-1
76 326 m 1,4,-1
 76 518 l 1,5,-1
 995 518 l 1,6,-1
 995 326 l 1,7,-1
 76 326 l 1,4,-1
EndSplineSet
EndChar

StartChar: greater
Encoding: 62 62 32
Width: 1049
GlyphClass: 2
Flags: W
LayerCount: 2
UndoRedoHistory
Layer: 1
Undoes
UndoOperation
Index: 0
Type: 1
WasModified: 0
WasOrder2: 1
Width: 1049
VWidth: 2048
LBearingChange: 0
UnicodeEnc: 0
InstructionsLength: 0
SplineSet
100 1158 m 1,0,-1
 973 709 l 1,1,-1
 973 588 l 1,2,-1
 100 171 l 1,3,-1
 100 386 l 1,4,-1
 704 654 l 1,5,-1
 100 953 l 1,6,-1
 100 1158 l 1,0,-1
EndSplineSet
EndUndoOperation
UndoOperation
Index: 1
Type: 1
WasModified: 0
WasOrder2: 1
Width: 1049
VWidth: 2048
LBearingChange: 0
UnicodeEnc: 0
InstructionsLength: 0
SplineSet
100 1158 m 1,0,-1
 973 709 l 1,1,-1
 973 588 l 1,2,-1
 100 171 l 1,3,-1
 100 386 l 1,4,-1
 704 654 l 1,5,-1
 100 953 l 1,6,-1
 100 1158 l 1,0,-1
EndSplineSet
EndUndoOperation
EndUndoes
Redoes
EndRedoes
EndUndoRedoHistory
Fore
SplineSet
100 1158 m 1,0,-1
 973 709 l 1,1,-1
 973 588 l 1,2,-1
 100 171 l 1,3,-1
 100 386 l 1,4,-1
 704 654 l 1,5,-1
 100 953 l 1,6,-1
 100 1158 l 1,0,-1
EndSplineSet
EndChar

StartChar: question
Encoding: 63 63 33
Width: 773
GlyphClass: 2
Flags: W
LayerCount: 2
UndoRedoHistory
Layer: 1
Undoes
UndoOperation
Index: 0
Type: 1
WasModified: 0
WasOrder2: 1
Width: 773
VWidth: 2048
LBearingChange: 0
UnicodeEnc: 0
InstructionsLength: 0
SplineSet
338 -7 m 0,0,1
 278 -7 278 -7 234.5 36.5 c 128,-1,2
 191 80 191 80 191 139 c 0,3,4
 191 199 191 199 234 242.5 c 128,-1,5
 277 286 277 286 338 286 c 0,6,7
 397 286 397 286 437.5 242.5 c 128,-1,8
 478 199 478 199 478 139 c 0,9,10
 478 80 478 80 437.5 36.5 c 128,-1,11
 397 -7 397 -7 338 -7 c 0,0,1
395 423 m 1,12,-1
 283 429 l 1,13,14
 292 500 292 500 320.5 573 c 128,-1,15
 349 646 349 646 383 704 c 128,-1,16
 417 762 417 762 450 816.5 c 128,-1,17
 483 871 483 871 505 923.5 c 128,-1,18
 527 976 527 976 527 1019 c 0,19,20
 526 1092 526 1092 481.5 1134.5 c 128,-1,21
 437 1177 437 1177 357 1177 c 0,22,23
 304 1177 304 1177 254 1164 c 128,-1,24
 204 1151 204 1151 178 1137.5 c 128,-1,25
 152 1124 152 1124 117 1103 c 1,26,-1
 45 1267 l 1,27,28
 189 1363 189 1363 381 1363 c 0,29,30
 431 1363 431 1363 480 1351.5 c 128,-1,31
 529 1340 529 1340 574.5 1314.5 c 128,-1,32
 620 1289 620 1289 655 1253 c 128,-1,33
 690 1217 690 1217 711 1164.5 c 128,-1,34
 732 1112 732 1112 732 1050 c 128,-1,35
 732 988 732 988 710.5 927.5 c 128,-1,36
 689 867 689 867 651 809.5 c 128,-1,37
 613 752 613 752 572 697.5 c 128,-1,38
 531 643 531 643 480.5 568.5 c 128,-1,39
 430 494 430 494 395 423 c 1,12,-1
EndSplineSet
EndUndoOperation
UndoOperation
Index: 1
Type: 1
WasModified: 0
WasOrder2: 1
Width: 773
VWidth: 2048
LBearingChange: 0
UnicodeEnc: 0
InstructionsLength: 0
SplineSet
338 -7 m 0,0,1
 278 -7 278 -7 234.5 36.5 c 128,-1,2
 191 80 191 80 191 139 c 0,3,4
 191 199 191 199 234 242.5 c 128,-1,5
 277 286 277 286 338 286 c 0,6,7
 397 286 397 286 437.5 242.5 c 128,-1,8
 478 199 478 199 478 139 c 0,9,10
 478 80 478 80 437.5 36.5 c 128,-1,11
 397 -7 397 -7 338 -7 c 0,0,1
395 423 m 1,12,-1
 283 429 l 1,13,14
 292 500 292 500 320.5 573 c 128,-1,15
 349 646 349 646 383 704 c 128,-1,16
 417 762 417 762 450 816.5 c 128,-1,17
 483 871 483 871 505 923.5 c 128,-1,18
 527 976 527 976 527 1019 c 0,19,20
 526 1092 526 1092 481.5 1134.5 c 128,-1,21
 437 1177 437 1177 357 1177 c 0,22,23
 304 1177 304 1177 254 1164 c 128,-1,24
 204 1151 204 1151 178 1137.5 c 128,-1,25
 152 1124 152 1124 117 1103 c 1,26,-1
 45 1267 l 1,27,28
 189 1363 189 1363 381 1363 c 0,29,30
 431 1363 431 1363 480 1351.5 c 128,-1,31
 529 1340 529 1340 574.5 1314.5 c 128,-1,32
 620 1289 620 1289 655 1253 c 128,-1,33
 690 1217 690 1217 711 1164.5 c 128,-1,34
 732 1112 732 1112 732 1050 c 128,-1,35
 732 988 732 988 710.5 927.5 c 128,-1,36
 689 867 689 867 651 809.5 c 128,-1,37
 613 752 613 752 572 697.5 c 128,-1,38
 531 643 531 643 480.5 568.5 c 128,-1,39
 430 494 430 494 395 423 c 1,12,-1
EndSplineSet
EndUndoOperation
EndUndoes
Redoes
EndRedoes
EndUndoRedoHistory
Fore
SplineSet
338 -7 m 0,0,1
 278 -7 278 -7 234.5 36.5 c 128,-1,2
 191 80 191 80 191 139 c 0,3,4
 191 199 191 199 234 242.5 c 128,-1,5
 277 286 277 286 338 286 c 0,6,7
 397 286 397 286 437.5 242.5 c 128,-1,8
 478 199 478 199 478 139 c 0,9,10
 478 80 478 80 437.5 36.5 c 128,-1,11
 397 -7 397 -7 338 -7 c 0,0,1
395 423 m 1,12,-1
 283 429 l 1,13,14
 292 500 292 500 320.5 573 c 128,-1,15
 349 646 349 646 383 704 c 128,-1,16
 417 762 417 762 450 816.5 c 128,-1,17
 483 871 483 871 505 923.5 c 128,-1,18
 527 976 527 976 527 1019 c 0,19,20
 526 1092 526 1092 481.5 1134.5 c 128,-1,21
 437 1177 437 1177 357 1177 c 0,22,23
 304 1177 304 1177 254 1164 c 128,-1,24
 204 1151 204 1151 178 1137.5 c 128,-1,25
 152 1124 152 1124 117 1103 c 1,26,-1
 45 1267 l 1,27,28
 189 1363 189 1363 381 1363 c 0,29,30
 431 1363 431 1363 480 1351.5 c 128,-1,31
 529 1340 529 1340 574.5 1314.5 c 128,-1,32
 620 1289 620 1289 655 1253 c 128,-1,33
 690 1217 690 1217 711 1164.5 c 128,-1,34
 732 1112 732 1112 732 1050 c 128,-1,35
 732 988 732 988 710.5 927.5 c 128,-1,36
 689 867 689 867 651 809.5 c 128,-1,37
 613 752 613 752 572 697.5 c 128,-1,38
 531 643 531 643 480.5 568.5 c 128,-1,39
 430 494 430 494 395 423 c 1,12,-1
EndSplineSet
EndChar

StartChar: at
Encoding: 64 64 34
Width: 1662
GlyphClass: 2
Flags: W
LayerCount: 2
UndoRedoHistory
Layer: 1
Undoes
UndoOperation
Index: 0
Type: 1
WasModified: 0
WasOrder2: 1
Width: 1662
VWidth: 2048
LBearingChange: 0
UnicodeEnc: 0
InstructionsLength: 0
SplineSet
773 360 m 0,0,1
 822 360 822 360 858.5 381.5 c 128,-1,2
 895 403 895 403 917.5 446 c 128,-1,3
 940 489 940 489 953.5 540.5 c 128,-1,4
 967 592 967 592 976 664 c 0,5,6
 988 758 988 758 1000 872 c 1,7,8
 949 890 949 890 902 890 c 0,9,10
 822 890 822 890 760 840.5 c 128,-1,11
 698 791 698 791 666.5 714 c 128,-1,12
 635 637 635 637 635 549 c 0,13,14
 635 495 635 495 649 453.5 c 128,-1,15
 663 412 663 412 695 386 c 128,-1,16
 727 360 727 360 773 360 c 0,0,1
815 -119 m 0,17,18
 605 -119 605 -119 441.5 -32.5 c 128,-1,19
 278 54 278 54 185 217 c 128,-1,20
 92 380 92 380 92 596 c 128,-1,21
 92 812 92 812 193.5 986.5 c 128,-1,22
 295 1161 295 1161 474 1259.5 c 128,-1,23
 653 1358 653 1358 875 1358 c 0,24,25
 1020 1358 1020 1358 1147.5 1312 c 128,-1,26
 1275 1266 1275 1266 1368.5 1183.5 c 128,-1,27
 1462 1101 1462 1101 1516 979 c 128,-1,28
 1570 857 1570 857 1570 713 c 0,29,30
 1570 622 1570 622 1549 544 c 128,-1,31
 1528 466 1528 466 1493 412 c 128,-1,32
 1458 358 1458 358 1413 319 c 128,-1,33
 1368 280 1368 280 1320 261.5 c 128,-1,34
 1272 243 1272 243 1225 243 c 0,35,36
 1146 243 1146 243 1087 294 c 128,-1,37
 1028 345 1028 345 1011 440 c 1,38,39
 993 370 993 370 916.5 307 c 128,-1,40
 840 244 840 244 756 244 c 0,41,42
 686 244 686 244 631 269 c 128,-1,43
 576 294 576 294 542.5 337.5 c 128,-1,44
 509 381 509 381 491.5 436 c 128,-1,45
 474 491 474 491 474 554 c 256,46,47
 474 617 474 617 491 680.5 c 128,-1,48
 508 744 508 744 542.5 801.5 c 128,-1,49
 577 859 577 859 624 903 c 128,-1,50
 671 947 671 947 737 973.5 c 128,-1,51
 803 1000 803 1000 878 1000 c 0,52,53
 948 1000 948 1000 1037.5 981 c 128,-1,54
 1127 962 1127 962 1181 930 c 1,55,56
 1173 874 1173 874 1156 766.5 c 128,-1,57
 1139 659 1139 659 1130.5 592 c 128,-1,58
 1122 525 1122 525 1122 476 c 0,59,60
 1122 444 1122 444 1136 419 c 128,-1,61
 1150 394 1150 394 1173.5 381 c 128,-1,62
 1197 368 1197 368 1226 368 c 0,63,64
 1252 368 1252 368 1279 380 c 128,-1,65
 1306 392 1306 392 1331.5 419 c 128,-1,66
 1357 446 1357 446 1376.5 485.5 c 128,-1,67
 1396 525 1396 525 1408.5 586 c 128,-1,68
 1421 647 1421 647 1421 721 c 256,69,70
 1421 795 1421 795 1403 865 c 128,-1,71
 1385 935 1385 935 1343 1001.5 c 128,-1,72
 1301 1068 1301 1068 1239 1117 c 128,-1,73
 1177 1166 1177 1166 1081.5 1195.5 c 128,-1,74
 986 1225 986 1225 867 1225 c 0,75,76
 783 1225 783 1225 707.5 1206 c 128,-1,77
 632 1187 632 1187 571.5 1153.5 c 128,-1,78
 511 1120 511 1120 460 1073.5 c 128,-1,79
 409 1027 409 1027 372.5 971 c 128,-1,80
 336 915 336 915 310.5 852.5 c 128,-1,81
 285 790 285 790 272.5 723.5 c 128,-1,82
 260 657 260 657 260 590 c 0,83,84
 260 516 260 516 275.5 446 c 128,-1,85
 291 376 291 376 320.5 311.5 c 128,-1,86
 350 247 350 247 397.5 193 c 128,-1,87
 445 139 445 139 505 99 c 128,-1,88
 565 59 565 59 645 37 c 128,-1,89
 725 15 725 15 816 15 c 0,90,91
 929 15 929 15 1042.5 41.5 c 128,-1,92
 1156 68 1156 68 1243 118 c 1,93,-1
 1285 -3 l 1,94,95
 1201 -59 1201 -59 1074.5 -89 c 128,-1,96
 948 -119 948 -119 815 -119 c 0,17,18
EndSplineSet
EndUndoOperation
UndoOperation
Index: 1
Type: 1
WasModified: 0
WasOrder2: 1
Width: 1662
VWidth: 2048
LBearingChange: 0
UnicodeEnc: 0
InstructionsLength: 0
SplineSet
773 360 m 0,0,1
 822 360 822 360 858.5 381.5 c 128,-1,2
 895 403 895 403 917.5 446 c 128,-1,3
 940 489 940 489 953.5 540.5 c 128,-1,4
 967 592 967 592 976 664 c 0,5,6
 988 758 988 758 1000 872 c 1,7,8
 949 890 949 890 902 890 c 0,9,10
 822 890 822 890 760 840.5 c 128,-1,11
 698 791 698 791 666.5 714 c 128,-1,12
 635 637 635 637 635 549 c 0,13,14
 635 495 635 495 649 453.5 c 128,-1,15
 663 412 663 412 695 386 c 128,-1,16
 727 360 727 360 773 360 c 0,0,1
815 -119 m 0,17,18
 605 -119 605 -119 441.5 -32.5 c 128,-1,19
 278 54 278 54 185 217 c 128,-1,20
 92 380 92 380 92 596 c 128,-1,21
 92 812 92 812 193.5 986.5 c 128,-1,22
 295 1161 295 1161 474 1259.5 c 128,-1,23
 653 1358 653 1358 875 1358 c 0,24,25
 1020 1358 1020 1358 1147.5 1312 c 128,-1,26
 1275 1266 1275 1266 1368.5 1183.5 c 128,-1,27
 1462 1101 1462 1101 1516 979 c 128,-1,28
 1570 857 1570 857 1570 713 c 0,29,30
 1570 622 1570 622 1549 544 c 128,-1,31
 1528 466 1528 466 1493 412 c 128,-1,32
 1458 358 1458 358 1413 319 c 128,-1,33
 1368 280 1368 280 1320 261.5 c 128,-1,34
 1272 243 1272 243 1225 243 c 0,35,36
 1146 243 1146 243 1087 294 c 128,-1,37
 1028 345 1028 345 1011 440 c 1,38,39
 993 370 993 370 916.5 307 c 128,-1,40
 840 244 840 244 756 244 c 0,41,42
 686 244 686 244 631 269 c 128,-1,43
 576 294 576 294 542.5 337.5 c 128,-1,44
 509 381 509 381 491.5 436 c 128,-1,45
 474 491 474 491 474 554 c 256,46,47
 474 617 474 617 491 680.5 c 128,-1,48
 508 744 508 744 542.5 801.5 c 128,-1,49
 577 859 577 859 624 903 c 128,-1,50
 671 947 671 947 737 973.5 c 128,-1,51
 803 1000 803 1000 878 1000 c 0,52,53
 948 1000 948 1000 1037.5 981 c 128,-1,54
 1127 962 1127 962 1181 930 c 1,55,56
 1173 874 1173 874 1156 766.5 c 128,-1,57
 1139 659 1139 659 1130.5 592 c 128,-1,58
 1122 525 1122 525 1122 476 c 0,59,60
 1122 444 1122 444 1136 419 c 128,-1,61
 1150 394 1150 394 1173.5 381 c 128,-1,62
 1197 368 1197 368 1226 368 c 0,63,64
 1252 368 1252 368 1279 380 c 128,-1,65
 1306 392 1306 392 1331.5 419 c 128,-1,66
 1357 446 1357 446 1376.5 485.5 c 128,-1,67
 1396 525 1396 525 1408.5 586 c 128,-1,68
 1421 647 1421 647 1421 721 c 256,69,70
 1421 795 1421 795 1403 865 c 128,-1,71
 1385 935 1385 935 1343 1001.5 c 128,-1,72
 1301 1068 1301 1068 1239 1117 c 128,-1,73
 1177 1166 1177 1166 1081.5 1195.5 c 128,-1,74
 986 1225 986 1225 867 1225 c 0,75,76
 783 1225 783 1225 707.5 1206 c 128,-1,77
 632 1187 632 1187 571.5 1153.5 c 128,-1,78
 511 1120 511 1120 460 1073.5 c 128,-1,79
 409 1027 409 1027 372.5 971 c 128,-1,80
 336 915 336 915 310.5 852.5 c 128,-1,81
 285 790 285 790 272.5 723.5 c 128,-1,82
 260 657 260 657 260 590 c 0,83,84
 260 516 260 516 275.5 446 c 128,-1,85
 291 376 291 376 320.5 311.5 c 128,-1,86
 350 247 350 247 397.5 193 c 128,-1,87
 445 139 445 139 505 99 c 128,-1,88
 565 59 565 59 645 37 c 128,-1,89
 725 15 725 15 816 15 c 0,90,91
 929 15 929 15 1042.5 41.5 c 128,-1,92
 1156 68 1156 68 1243 118 c 1,93,-1
 1285 -3 l 1,94,95
 1201 -59 1201 -59 1074.5 -89 c 128,-1,96
 948 -119 948 -119 815 -119 c 0,17,18
EndSplineSet
EndUndoOperation
EndUndoes
Redoes
EndRedoes
EndUndoRedoHistory
Fore
SplineSet
773 360 m 0,0,1
 822 360 822 360 858.5 381.5 c 128,-1,2
 895 403 895 403 917.5 446 c 128,-1,3
 940 489 940 489 953.5 540.5 c 128,-1,4
 967 592 967 592 976 664 c 0,5,6
 988 758 988 758 1000 872 c 1,7,8
 949 890 949 890 902 890 c 0,9,10
 822 890 822 890 760 840.5 c 128,-1,11
 698 791 698 791 666.5 714 c 128,-1,12
 635 637 635 637 635 549 c 0,13,14
 635 495 635 495 649 453.5 c 128,-1,15
 663 412 663 412 695 386 c 128,-1,16
 727 360 727 360 773 360 c 0,0,1
815 -119 m 0,17,18
 605 -119 605 -119 441.5 -32.5 c 128,-1,19
 278 54 278 54 185 217 c 128,-1,20
 92 380 92 380 92 596 c 128,-1,21
 92 812 92 812 193.5 986.5 c 128,-1,22
 295 1161 295 1161 474 1259.5 c 128,-1,23
 653 1358 653 1358 875 1358 c 0,24,25
 1020 1358 1020 1358 1147.5 1312 c 128,-1,26
 1275 1266 1275 1266 1368.5 1183.5 c 128,-1,27
 1462 1101 1462 1101 1516 979 c 128,-1,28
 1570 857 1570 857 1570 713 c 0,29,30
 1570 622 1570 622 1549 544 c 128,-1,31
 1528 466 1528 466 1493 412 c 128,-1,32
 1458 358 1458 358 1413 319 c 128,-1,33
 1368 280 1368 280 1320 261.5 c 128,-1,34
 1272 243 1272 243 1225 243 c 0,35,36
 1146 243 1146 243 1087 294 c 128,-1,37
 1028 345 1028 345 1011 440 c 1,38,39
 993 370 993 370 916.5 307 c 128,-1,40
 840 244 840 244 756 244 c 0,41,42
 686 244 686 244 631 269 c 128,-1,43
 576 294 576 294 542.5 337.5 c 128,-1,44
 509 381 509 381 491.5 436 c 128,-1,45
 474 491 474 491 474 554 c 256,46,47
 474 617 474 617 491 680.5 c 128,-1,48
 508 744 508 744 542.5 801.5 c 128,-1,49
 577 859 577 859 624 903 c 128,-1,50
 671 947 671 947 737 973.5 c 128,-1,51
 803 1000 803 1000 878 1000 c 0,52,53
 948 1000 948 1000 1037.5 981 c 128,-1,54
 1127 962 1127 962 1181 930 c 1,55,56
 1173 874 1173 874 1156 766.5 c 128,-1,57
 1139 659 1139 659 1130.5 592 c 128,-1,58
 1122 525 1122 525 1122 476 c 0,59,60
 1122 444 1122 444 1136 419 c 128,-1,61
 1150 394 1150 394 1173.5 381 c 128,-1,62
 1197 368 1197 368 1226 368 c 0,63,64
 1252 368 1252 368 1279 380 c 128,-1,65
 1306 392 1306 392 1331.5 419 c 128,-1,66
 1357 446 1357 446 1376.5 485.5 c 128,-1,67
 1396 525 1396 525 1408.5 586 c 128,-1,68
 1421 647 1421 647 1421 721 c 256,69,70
 1421 795 1421 795 1403 865 c 128,-1,71
 1385 935 1385 935 1343 1001.5 c 128,-1,72
 1301 1068 1301 1068 1239 1117 c 128,-1,73
 1177 1166 1177 1166 1081.5 1195.5 c 128,-1,74
 986 1225 986 1225 867 1225 c 0,75,76
 783 1225 783 1225 707.5 1206 c 128,-1,77
 632 1187 632 1187 571.5 1153.5 c 128,-1,78
 511 1120 511 1120 460 1073.5 c 128,-1,79
 409 1027 409 1027 372.5 971 c 128,-1,80
 336 915 336 915 310.5 852.5 c 128,-1,81
 285 790 285 790 272.5 723.5 c 128,-1,82
 260 657 260 657 260 590 c 0,83,84
 260 516 260 516 275.5 446 c 128,-1,85
 291 376 291 376 320.5 311.5 c 128,-1,86
 350 247 350 247 397.5 193 c 128,-1,87
 445 139 445 139 505 99 c 128,-1,88
 565 59 565 59 645 37 c 128,-1,89
 725 15 725 15 816 15 c 0,90,91
 929 15 929 15 1042.5 41.5 c 128,-1,92
 1156 68 1156 68 1243 118 c 1,93,-1
 1285 -3 l 1,94,95
 1201 -59 1201 -59 1074.5 -89 c 128,-1,96
 948 -119 948 -119 815 -119 c 0,17,18
EndSplineSet
EndChar

StartChar: A
Encoding: 65 65 35
Width: 1359
GlyphClass: 2
Flags: W
LayerCount: 2
UndoRedoHistory
Layer: 1
Undoes
UndoOperation
Index: 0
Type: 1
WasModified: 0
WasOrder2: 1
Width: 1359
VWidth: 2048
LBearingChange: 0
UnicodeEnc: 0
InstructionsLength: 0
SplineSet
56 0 m 1,0,-1
 511 1336 l 1,1,-1
 849 1336 l 1,2,-1
 1303 0 l 1,3,-1
 1017 0 l 1,4,-1
 890 365 l 1,5,-1
 464 365 l 1,6,-1
 344 0 l 1,7,-1
 56 0 l 1,0,-1
522 555 m 1,8,-1
 834 555 l 1,9,-1
 684 1093 l 1,10,-1
 522 555 l 1,8,-1
EndSplineSet
EndUndoOperation
UndoOperation
Index: 1
Type: 1
WasModified: 0
WasOrder2: 1
Width: 1359
VWidth: 2048
LBearingChange: 0
UnicodeEnc: 0
InstructionsLength: 0
SplineSet
56 0 m 1,0,-1
 344 0 l 1,1,-1
 464 365 l 1,2,-1
 890 365 l 1,3,-1
 1017 0 l 1,4,-1
 1303 0 l 1,5,-1
 849 1336 l 1,6,-1
 511 1336 l 1,7,-1
 56 0 l 1,0,-1
522 555 m 1,8,-1
 684 1093 l 1,9,-1
 834 555 l 1,10,-1
 522 555 l 1,8,-1
EndSplineSet
EndUndoOperation
EndUndoes
Redoes
EndRedoes
EndUndoRedoHistory
Fore
SplineSet
56 0 m 1,0,-1
 511 1336 l 1,1,-1
 849 1336 l 1,2,-1
 1303 0 l 1,3,-1
 1017 0 l 1,4,-1
 890 365 l 1,5,-1
 464 365 l 1,6,-1
 344 0 l 1,7,-1
 56 0 l 1,0,-1
522 555 m 1,8,-1
 834 555 l 1,9,-1
 684 1093 l 1,10,-1
 522 555 l 1,8,-1
EndSplineSet
EndChar

StartChar: B
Encoding: 66 66 36
Width: 1320
GlyphClass: 2
Flags: W
LayerCount: 2
UndoRedoHistory
Layer: 1
Undoes
UndoOperation
Index: 0
Type: 1
WasModified: 0
WasOrder2: 1
Width: 1320
VWidth: 2048
LBearingChange: 0
UnicodeEnc: 0
InstructionsLength: 0
SplineSet
452 793 m 1,0,-1
 645 793 l 2,1,2
 762 793 762 793 816 830 c 128,-1,3
 870 867 870 867 870 956 c 0,4,5
 870 1055 870 1055 807 1090.5 c 128,-1,6
 744 1126 744 1126 597 1126 c 2,7,-1
 452 1126 l 1,8,-1
 452 793 l 1,0,-1
452 216 m 1,9,-1
 648 216 l 2,10,11
 783 216 783 216 846.5 261.5 c 128,-1,12
 910 307 910 307 910 412 c 128,-1,13
 910 517 910 517 846.5 560.5 c 128,-1,14
 783 604 783 604 642 604 c 2,15,-1
 452 604 l 1,16,-1
 452 216 l 1,9,-1
164 0 m 1,17,-1
 164 1336 l 1,18,-1
 631 1336 l 2,19,20
 891 1336 891 1336 1020.5 1259.5 c 128,-1,21
 1150 1183 1150 1183 1150 1000 c 0,22,23
 1150 967 1150 967 1140.5 930.5 c 128,-1,24
 1131 894 1131 894 1111 853.5 c 128,-1,25
 1091 813 1091 813 1052.5 776 c 128,-1,26
 1014 739 1014 739 963 715 c 1,27,28
 1072 677 1072 677 1135 593 c 128,-1,29
 1198 509 1198 509 1198 393 c 0,30,31
 1198 202 1198 202 1064.5 101 c 128,-1,32
 931 0 931 0 700 0 c 2,33,-1
 164 0 l 1,17,-1
EndSplineSet
EndUndoOperation
UndoOperation
Index: 1
Type: 1
WasModified: 0
WasOrder2: 1
Width: 1320
VWidth: 2048
LBearingChange: 0
UnicodeEnc: 0
InstructionsLength: 0
SplineSet
452 793 m 1,0,-1
 452 1126 l 1,1,-1
 597 1126 l 2,2,3
 744 1126 744 1126 807 1090.5 c 128,-1,4
 870 1055 870 1055 870 956 c 0,5,6
 870 867 870 867 816 830 c 128,-1,7
 762 793 762 793 645 793 c 2,8,-1
 452 793 l 1,0,-1
452 216 m 1,9,-1
 452 604 l 1,10,-1
 642 604 l 2,11,12
 783 604 783 604 846.5 560.5 c 128,-1,13
 910 517 910 517 910 412 c 128,-1,14
 910 307 910 307 846.5 261.5 c 128,-1,15
 783 216 783 216 648 216 c 2,16,-1
 452 216 l 1,9,-1
164 0 m 1,17,-1
 700 0 l 2,18,19
 931 0 931 0 1064.5 101 c 128,-1,20
 1198 202 1198 202 1198 393 c 0,21,22
 1198 509 1198 509 1135 593 c 128,-1,23
 1072 677 1072 677 963 715 c 1,24,25
 1014 739 1014 739 1052.5 776 c 128,-1,26
 1091 813 1091 813 1111 853.5 c 128,-1,27
 1131 894 1131 894 1140.5 930.5 c 128,-1,28
 1150 967 1150 967 1150 1000 c 0,29,30
 1150 1183 1150 1183 1020.5 1259.5 c 128,-1,31
 891 1336 891 1336 631 1336 c 2,32,-1
 164 1336 l 1,33,-1
 164 0 l 1,17,-1
EndSplineSet
EndUndoOperation
EndUndoes
Redoes
EndRedoes
EndUndoRedoHistory
Fore
SplineSet
452 793 m 1,0,-1
 645 793 l 2,1,2
 762 793 762 793 816 830 c 128,-1,3
 870 867 870 867 870 956 c 0,4,5
 870 1055 870 1055 807 1090.5 c 128,-1,6
 744 1126 744 1126 597 1126 c 2,7,-1
 452 1126 l 1,8,-1
 452 793 l 1,0,-1
452 216 m 1,9,-1
 648 216 l 2,10,11
 783 216 783 216 846.5 261.5 c 128,-1,12
 910 307 910 307 910 412 c 128,-1,13
 910 517 910 517 846.5 560.5 c 128,-1,14
 783 604 783 604 642 604 c 2,15,-1
 452 604 l 1,16,-1
 452 216 l 1,9,-1
164 0 m 1,17,-1
 164 1336 l 1,18,-1
 631 1336 l 2,19,20
 891 1336 891 1336 1020.5 1259.5 c 128,-1,21
 1150 1183 1150 1183 1150 1000 c 0,22,23
 1150 967 1150 967 1140.5 930.5 c 128,-1,24
 1131 894 1131 894 1111 853.5 c 128,-1,25
 1091 813 1091 813 1052.5 776 c 128,-1,26
 1014 739 1014 739 963 715 c 1,27,28
 1072 677 1072 677 1135 593 c 128,-1,29
 1198 509 1198 509 1198 393 c 0,30,31
 1198 202 1198 202 1064.5 101 c 128,-1,32
 931 0 931 0 700 0 c 2,33,-1
 164 0 l 1,17,-1
EndSplineSet
EndChar

StartChar: C
Encoding: 67 67 37
Width: 1222
GlyphClass: 2
Flags: W
LayerCount: 2
UndoRedoHistory
Layer: 1
Undoes
UndoOperation
Index: 0
Type: 1
WasModified: 0
WasOrder2: 1
Width: 1222
VWidth: 2048
LBearingChange: 0
UnicodeEnc: 0
InstructionsLength: 0
SplineSet
772 -16 m 0,0,1
 629 -16 629 -16 508.5 31 c 128,-1,2
 388 78 388 78 301 165 c 128,-1,3
 214 252 214 252 165 383.5 c 128,-1,4
 116 515 116 515 116 677 c 0,5,6
 116 838 116 838 164.5 967.5 c 128,-1,7
 213 1097 213 1097 299 1182.5 c 128,-1,8
 385 1268 385 1268 503.5 1313.5 c 128,-1,9
 622 1359 622 1359 763 1359 c 0,10,11
 970 1359 970 1359 1159 1249 c 1,12,-1
 1076 1035 l 1,13,14
 899 1136 899 1136 749 1125 c 0,15,16
 685 1120 685 1120 624.5 1089 c 128,-1,17
 564 1058 564 1058 514 1003.5 c 128,-1,18
 464 949 464 949 434 862.5 c 128,-1,19
 404 776 404 776 404 671 c 0,20,21
 404 456 404 456 506 337 c 128,-1,22
 608 218 608 218 787 213 c 0,23,24
 930 209 930 209 1078 293 c 1,25,-1
 1133 75 l 1,26,27
 1035 26 1035 26 955.5 5 c 128,-1,28
 876 -16 876 -16 772 -16 c 0,0,1
EndSplineSet
EndUndoOperation
UndoOperation
Index: 1
Type: 1
WasModified: 0
WasOrder2: 1
Width: 1222
VWidth: 2048
LBearingChange: 0
UnicodeEnc: 0
InstructionsLength: 0
SplineSet
772 -16 m 0,0,1
 876 -16 876 -16 955.5 5 c 128,-1,2
 1035 26 1035 26 1133 75 c 1,3,-1
 1078 293 l 1,4,5
 930 209 930 209 787 213 c 0,6,7
 608 218 608 218 506 337 c 128,-1,8
 404 456 404 456 404 671 c 0,9,10
 404 776 404 776 434 862.5 c 128,-1,11
 464 949 464 949 514 1003.5 c 128,-1,12
 564 1058 564 1058 624.5 1089 c 128,-1,13
 685 1120 685 1120 749 1125 c 0,14,15
 899 1136 899 1136 1076 1035 c 1,16,-1
 1159 1249 l 1,17,18
 970 1359 970 1359 763 1359 c 0,19,20
 622 1359 622 1359 503.5 1313.5 c 128,-1,21
 385 1268 385 1268 299 1182.5 c 128,-1,22
 213 1097 213 1097 164.5 967.5 c 128,-1,23
 116 838 116 838 116 677 c 0,24,25
 116 515 116 515 165 383.5 c 128,-1,26
 214 252 214 252 301 165 c 128,-1,27
 388 78 388 78 508.5 31 c 128,-1,28
 629 -16 629 -16 772 -16 c 0,0,1
EndSplineSet
EndUndoOperation
EndUndoes
Redoes
EndRedoes
EndUndoRedoHistory
Fore
SplineSet
772 -16 m 0,0,1
 629 -16 629 -16 508.5 31 c 128,-1,2
 388 78 388 78 301 165 c 128,-1,3
 214 252 214 252 165 383.5 c 128,-1,4
 116 515 116 515 116 677 c 0,5,6
 116 838 116 838 164.5 967.5 c 128,-1,7
 213 1097 213 1097 299 1182.5 c 128,-1,8
 385 1268 385 1268 503.5 1313.5 c 128,-1,9
 622 1359 622 1359 763 1359 c 0,10,11
 970 1359 970 1359 1159 1249 c 1,12,-1
 1076 1035 l 1,13,14
 899 1136 899 1136 749 1125 c 0,15,16
 685 1120 685 1120 624.5 1089 c 128,-1,17
 564 1058 564 1058 514 1003.5 c 128,-1,18
 464 949 464 949 434 862.5 c 128,-1,19
 404 776 404 776 404 671 c 0,20,21
 404 456 404 456 506 337 c 128,-1,22
 608 218 608 218 787 213 c 0,23,24
 930 209 930 209 1078 293 c 1,25,-1
 1133 75 l 1,26,27
 1035 26 1035 26 955.5 5 c 128,-1,28
 876 -16 876 -16 772 -16 c 0,0,1
EndSplineSet
EndChar

StartChar: D
Encoding: 68 68 38
Width: 1432
GlyphClass: 2
Flags: W
LayerCount: 2
UndoRedoHistory
Layer: 1
Undoes
UndoOperation
Index: 0
Type: 1
WasModified: 0
WasOrder2: 1
Width: 1432
VWidth: 2048
LBearingChange: 0
UnicodeEnc: 0
InstructionsLength: 0
SplineSet
164 0 m 1,0,-1
 164 1336 l 1,1,-1
 562 1336 l 2,2,3
 733 1336 733 1336 869.5 1296 c 128,-1,4
 1006 1256 1006 1256 1106.5 1176.5 c 128,-1,5
 1207 1097 1207 1097 1261.5 970 c 128,-1,6
 1316 843 1316 843 1316 676 c 0,7,8
 1316 353 1316 353 1119.5 176.5 c 128,-1,9
 923 0 923 0 585 0 c 2,10,-1
 164 0 l 1,0,-1
452 1126 m 1,11,-1
 452 216 l 1,12,-1
 599 216 l 2,13,14
 814 216 814 216 921.5 332 c 128,-1,15
 1029 448 1029 448 1029 671 c 0,16,17
 1029 909 1029 909 918 1017.5 c 128,-1,18
 807 1126 807 1126 573 1126 c 2,19,-1
 452 1126 l 1,11,-1
EndSplineSet
EndUndoOperation
UndoOperation
Index: 1
Type: 1
WasModified: 0
WasOrder2: 1
Width: 1432
VWidth: 2048
LBearingChange: 0
UnicodeEnc: 0
InstructionsLength: 0
SplineSet
164 0 m 1,0,-1
 164 1336 l 1,1,-1
 562 1336 l 2,2,3
 733 1336 733 1336 869.5 1296 c 128,-1,4
 1006 1256 1006 1256 1106.5 1176.5 c 128,-1,5
 1207 1097 1207 1097 1261.5 970 c 128,-1,6
 1316 843 1316 843 1316 676 c 0,7,8
 1316 353 1316 353 1119.5 176.5 c 128,-1,9
 923 0 923 0 585 0 c 2,10,-1
 164 0 l 1,0,-1
452 1126 m 1,11,-1
 452 216 l 1,12,-1
 599 216 l 2,13,14
 814 216 814 216 921.5 332 c 128,-1,15
 1029 448 1029 448 1029 671 c 0,16,17
 1029 909 1029 909 918 1017.5 c 128,-1,18
 807 1126 807 1126 573 1126 c 2,19,-1
 452 1126 l 1,11,-1
EndSplineSet
EndUndoOperation
EndUndoes
Redoes
EndRedoes
EndUndoRedoHistory
Fore
SplineSet
164 0 m 1,0,-1
 164 1336 l 1,1,-1
 562 1336 l 2,2,3
 733 1336 733 1336 869.5 1296 c 128,-1,4
 1006 1256 1006 1256 1106.5 1176.5 c 128,-1,5
 1207 1097 1207 1097 1261.5 970 c 128,-1,6
 1316 843 1316 843 1316 676 c 0,7,8
 1316 353 1316 353 1119.5 176.5 c 128,-1,9
 923 0 923 0 585 0 c 2,10,-1
 164 0 l 1,0,-1
452 1126 m 1,11,-1
 452 216 l 1,12,-1
 599 216 l 2,13,14
 814 216 814 216 921.5 332 c 128,-1,15
 1029 448 1029 448 1029 671 c 0,16,17
 1029 909 1029 909 918 1017.5 c 128,-1,18
 807 1126 807 1126 573 1126 c 2,19,-1
 452 1126 l 1,11,-1
EndSplineSet
EndChar

StartChar: E
Encoding: 69 69 39
Width: 1108
GlyphClass: 2
Flags: W
LayerCount: 2
UndoRedoHistory
Layer: 1
Undoes
UndoOperation
Index: 0
Type: 1
WasModified: 0
WasOrder2: 1
Width: 1108
VWidth: 2048
LBearingChange: 0
UnicodeEnc: 0
InstructionsLength: 0
SplineSet
452 1126 m 1,0,-1
 452 805 l 1,1,-1
 956 805 l 1,2,-1
 956 595 l 1,3,-1
 452 595 l 1,4,-1
 452 216 l 1,5,-1
 1004 216 l 1,6,-1
 987 0 l 1,7,-1
 164 0 l 1,8,-1
 164 1336 l 1,9,-1
 994 1336 l 1,10,-1
 983 1126 l 1,11,-1
 452 1126 l 1,0,-1
EndSplineSet
EndUndoOperation
UndoOperation
Index: 1
Type: 1
WasModified: 0
WasOrder2: 1
Width: 1108
VWidth: 2048
LBearingChange: 0
UnicodeEnc: 0
InstructionsLength: 0
SplineSet
452 1126 m 1,0,-1
 452 805 l 1,1,-1
 956 805 l 1,2,-1
 956 595 l 1,3,-1
 452 595 l 1,4,-1
 452 216 l 1,5,-1
 1004 216 l 1,6,-1
 987 0 l 1,7,-1
 164 0 l 1,8,-1
 164 1336 l 1,9,-1
 994 1336 l 1,10,-1
 983 1126 l 1,11,-1
 452 1126 l 1,0,-1
EndSplineSet
EndUndoOperation
EndUndoes
Redoes
EndRedoes
EndUndoRedoHistory
Fore
SplineSet
452 1126 m 1,0,-1
 452 805 l 1,1,-1
 956 805 l 1,2,-1
 956 595 l 1,3,-1
 452 595 l 1,4,-1
 452 216 l 1,5,-1
 1004 216 l 1,6,-1
 987 0 l 1,7,-1
 164 0 l 1,8,-1
 164 1336 l 1,9,-1
 994 1336 l 1,10,-1
 983 1126 l 1,11,-1
 452 1126 l 1,0,-1
EndSplineSet
EndChar

StartChar: F
Encoding: 70 70 40
Width: 1088
GlyphClass: 2
Flags: W
LayerCount: 2
UndoRedoHistory
Layer: 1
Undoes
UndoOperation
Index: 0
Type: 1
WasModified: 0
WasOrder2: 1
Width: 1088
VWidth: 2048
LBearingChange: 0
UnicodeEnc: 0
InstructionsLength: 0
SplineSet
452 1116 m 1,0,-1
 452 765 l 1,1,-1
 948 765 l 1,2,-1
 948 556 l 1,3,-1
 452 556 l 1,4,-1
 452 0 l 1,5,-1
 164 0 l 1,6,-1
 164 1336 l 1,7,-1
 993 1336 l 1,8,-1
 981 1116 l 1,9,-1
 452 1116 l 1,0,-1
EndSplineSet
EndUndoOperation
UndoOperation
Index: 1
Type: 1
WasModified: 0
WasOrder2: 1
Width: 1088
VWidth: 2048
LBearingChange: 0
UnicodeEnc: 0
InstructionsLength: 0
SplineSet
452 1116 m 1,0,-1
 452 765 l 1,1,-1
 948 765 l 1,2,-1
 948 556 l 1,3,-1
 452 556 l 1,4,-1
 452 0 l 1,5,-1
 164 0 l 1,6,-1
 164 1336 l 1,7,-1
 993 1336 l 1,8,-1
 981 1116 l 1,9,-1
 452 1116 l 1,0,-1
EndSplineSet
EndUndoOperation
EndUndoes
Redoes
EndRedoes
EndUndoRedoHistory
Fore
SplineSet
452 1116 m 1,0,-1
 452 765 l 1,1,-1
 948 765 l 1,2,-1
 948 556 l 1,3,-1
 452 556 l 1,4,-1
 452 0 l 1,5,-1
 164 0 l 1,6,-1
 164 1336 l 1,7,-1
 993 1336 l 1,8,-1
 981 1116 l 1,9,-1
 452 1116 l 1,0,-1
EndSplineSet
EndChar

StartChar: G
Encoding: 71 71 41
Width: 1347
GlyphClass: 2
Flags: W
LayerCount: 2
UndoRedoHistory
Layer: 1
Undoes
UndoOperation
Index: 0
Type: 1
WasModified: 0
WasOrder2: 1
Width: 1347
VWidth: 2048
LBearingChange: 0
UnicodeEnc: 0
InstructionsLength: 0
SplineSet
762 -16 m 0,0,1
 462 -16 462 -16 289 169 c 128,-1,2
 116 354 116 354 116 672 c 0,3,4
 116 996 116 996 293.5 1177.5 c 128,-1,5
 471 1359 471 1359 788 1359 c 0,6,7
 995 1359 995 1359 1207 1253 c 1,8,-1
 1118 1042 l 1,9,10
 955 1122 955 1122 793 1129 c 1,11,12
 600 1136 600 1136 502 1015.5 c 128,-1,13
 404 895 404 895 404 670 c 0,14,15
 404 449 404 449 495 331 c 128,-1,16
 586 213 586 213 773 213 c 0,17,18
 890 213 890 213 978 245 c 1,19,-1
 978 519 l 1,20,-1
 709 519 l 1,21,-1
 709 727 l 1,22,-1
 1225 727 l 1,23,-1
 1225 82 l 1,24,25
 1110 31 1110 31 1002.5 7.5 c 128,-1,26
 895 -16 895 -16 762 -16 c 0,0,1
EndSplineSet
EndUndoOperation
UndoOperation
Index: 1
Type: 1
WasModified: 0
WasOrder2: 1
Width: 1347
VWidth: 2048
LBearingChange: 0
UnicodeEnc: 0
InstructionsLength: 0
SplineSet
762 -16 m 0,0,1
 895 -16 895 -16 1002.5 7.5 c 128,-1,2
 1110 31 1110 31 1225 82 c 1,3,-1
 1225 727 l 1,4,-1
 709 727 l 1,5,-1
 709 519 l 1,6,-1
 978 519 l 1,7,-1
 978 245 l 1,8,9
 890 213 890 213 773 213 c 0,10,11
 586 213 586 213 495 331 c 128,-1,12
 404 449 404 449 404 670 c 0,13,14
 404 895 404 895 502 1015.5 c 128,-1,15
 600 1136 600 1136 793 1129 c 1,16,17
 955 1122 955 1122 1118 1042 c 1,18,-1
 1207 1253 l 1,19,20
 995 1359 995 1359 788 1359 c 0,21,22
 471 1359 471 1359 293.5 1177.5 c 128,-1,23
 116 996 116 996 116 672 c 0,24,25
 116 354 116 354 289 169 c 128,-1,26
 462 -16 462 -16 762 -16 c 0,0,1
EndSplineSet
EndUndoOperation
EndUndoes
Redoes
EndRedoes
EndUndoRedoHistory
Fore
SplineSet
762 -16 m 0,0,1
 462 -16 462 -16 289 169 c 128,-1,2
 116 354 116 354 116 672 c 0,3,4
 116 996 116 996 293.5 1177.5 c 128,-1,5
 471 1359 471 1359 788 1359 c 0,6,7
 995 1359 995 1359 1207 1253 c 1,8,-1
 1118 1042 l 1,9,10
 955 1122 955 1122 793 1129 c 1,11,12
 600 1136 600 1136 502 1015.5 c 128,-1,13
 404 895 404 895 404 670 c 0,14,15
 404 449 404 449 495 331 c 128,-1,16
 586 213 586 213 773 213 c 0,17,18
 890 213 890 213 978 245 c 1,19,-1
 978 519 l 1,20,-1
 709 519 l 1,21,-1
 709 727 l 1,22,-1
 1225 727 l 1,23,-1
 1225 82 l 1,24,25
 1110 31 1110 31 1002.5 7.5 c 128,-1,26
 895 -16 895 -16 762 -16 c 0,0,1
EndSplineSet
EndChar

StartChar: H
Encoding: 72 72 42
Width: 1471
GlyphClass: 2
Flags: W
LayerCount: 2
UndoRedoHistory
Layer: 1
Undoes
UndoOperation
Index: 0
Type: 1
WasModified: 0
WasOrder2: 1
Width: 1471
VWidth: 2048
LBearingChange: 0
UnicodeEnc: 0
InstructionsLength: 0
SplineSet
452 793 m 1,0,-1
 1019 793 l 1,1,-1
 1019 1336 l 1,2,-1
 1307 1336 l 1,3,-1
 1307 0 l 1,4,-1
 1019 0 l 1,5,-1
 1019 578 l 1,6,-1
 452 578 l 1,7,-1
 452 0 l 1,8,-1
 164 0 l 1,9,-1
 164 1336 l 1,10,-1
 452 1336 l 1,11,-1
 452 793 l 1,0,-1
EndSplineSet
EndUndoOperation
UndoOperation
Index: 1
Type: 1
WasModified: 0
WasOrder2: 1
Width: 1471
VWidth: 2048
LBearingChange: 0
UnicodeEnc: 0
InstructionsLength: 0
SplineSet
452 793 m 1,0,-1
 452 1336 l 1,1,-1
 164 1336 l 1,2,-1
 164 0 l 1,3,-1
 452 0 l 1,4,-1
 452 578 l 1,5,-1
 1019 578 l 1,6,-1
 1019 0 l 1,7,-1
 1307 0 l 1,8,-1
 1307 1336 l 1,9,-1
 1019 1336 l 1,10,-1
 1019 793 l 1,11,-1
 452 793 l 1,0,-1
EndSplineSet
EndUndoOperation
EndUndoes
Redoes
EndRedoes
EndUndoRedoHistory
Fore
SplineSet
452 793 m 1,0,-1
 1019 793 l 1,1,-1
 1019 1336 l 1,2,-1
 1307 1336 l 1,3,-1
 1307 0 l 1,4,-1
 1019 0 l 1,5,-1
 1019 578 l 1,6,-1
 452 578 l 1,7,-1
 452 0 l 1,8,-1
 164 0 l 1,9,-1
 164 1336 l 1,10,-1
 452 1336 l 1,11,-1
 452 793 l 1,0,-1
EndSplineSet
EndChar

StartChar: I
Encoding: 73 73 43
Width: 626
GlyphClass: 2
Flags: W
LayerCount: 2
UndoRedoHistory
Layer: 1
Undoes
UndoOperation
Index: 0
Type: 1
WasModified: 0
WasOrder2: 1
Width: 626
VWidth: 2048
LBearingChange: 0
UnicodeEnc: 0
InstructionsLength: 0
SplineSet
169 0 m 1,0,-1
 169 1336 l 1,1,-1
 457 1336 l 1,2,-1
 457 0 l 1,3,-1
 169 0 l 1,0,-1
EndSplineSet
EndUndoOperation
UndoOperation
Index: 1
Type: 1
WasModified: 0
WasOrder2: 1
Width: 626
VWidth: 2048
LBearingChange: 0
UnicodeEnc: 0
InstructionsLength: 0
SplineSet
169 0 m 1,0,-1
 169 1336 l 1,1,-1
 457 1336 l 1,2,-1
 457 0 l 1,3,-1
 169 0 l 1,0,-1
EndSplineSet
EndUndoOperation
EndUndoes
Redoes
EndRedoes
EndUndoRedoHistory
Fore
SplineSet
169 0 m 1,0,-1
 169 1336 l 1,1,-1
 457 1336 l 1,2,-1
 457 0 l 1,3,-1
 169 0 l 1,0,-1
EndSplineSet
EndChar

StartChar: J
Encoding: 74 74 44
Width: 704
GlyphClass: 2
Flags: W
LayerCount: 2
UndoRedoHistory
Layer: 1
Undoes
UndoOperation
Index: 0
Type: 1
WasModified: 0
WasOrder2: 1
Width: 704
VWidth: 2048
LBearingChange: 0
UnicodeEnc: 0
InstructionsLength: 0
SplineSet
-6 -285 m 1,0,1
 -18 -75 l 1,2,3
 121 -70 121 -70 182.5 -25.5 c 128,-1,4
 244 19 244 19 244 126 c 2,5,-1
 244 1336 l 1,6,-1
 532 1336 l 1,7,-1
 532 144 l 2,8,9
 532 -76 532 -76 400 -179.5 c 128,-1,10
 268 -283 268 -283 -6 -285 c 1,0,1
EndSplineSet
EndUndoOperation
UndoOperation
Index: 1
Type: 1
WasModified: 0
WasOrder2: 1
Width: 704
VWidth: 2048
LBearingChange: 0
UnicodeEnc: 0
InstructionsLength: 0
SplineSet
-6 -285 m 1,0,1
 268 -283 268 -283 400 -179.5 c 128,-1,2
 532 -76 532 -76 532 144 c 2,3,-1
 532 1336 l 1,4,-1
 244 1336 l 1,5,-1
 244 126 l 2,6,7
 244 19 244 19 182.5 -25.5 c 128,-1,8
 121 -70 121 -70 -18 -75 c 1,9,-1
 -6 -285 l 1,0,1
EndSplineSet
EndUndoOperation
EndUndoes
Redoes
EndRedoes
EndUndoRedoHistory
Fore
SplineSet
-6 -285 m 1,0,1
 -18 -75 l 1,2,3
 121 -70 121 -70 182.5 -25.5 c 128,-1,4
 244 19 244 19 244 126 c 2,5,-1
 244 1336 l 1,6,-1
 532 1336 l 1,7,-1
 532 144 l 2,8,9
 532 -76 532 -76 400 -179.5 c 128,-1,10
 268 -283 268 -283 -6 -285 c 1,0,1
EndSplineSet
EndChar

StartChar: K
Encoding: 75 75 45
Width: 1343
GlyphClass: 2
Flags: W
LayerCount: 2
UndoRedoHistory
Layer: 1
Undoes
UndoOperation
Index: 0
Type: 1
WasModified: 0
WasOrder2: 1
Width: 1343
VWidth: 2048
LBearingChange: 0
UnicodeEnc: 0
InstructionsLength: 0
SplineSet
920 1336 m 1,0,-1
 1252 1336 l 1,1,-1
 760 732 l 1,2,-1
 1262 0 l 1,3,-1
 936 0 l 1,4,-1
 523 611 l 1,5,-1
 452 537 l 1,6,-1
 452 0 l 1,7,-1
 164 0 l 1,8,-1
 164 1336 l 1,9,-1
 452 1336 l 1,10,-1
 452 775 l 1,11,-1
 920 1336 l 1,0,-1
EndSplineSet
EndUndoOperation
UndoOperation
Index: 1
Type: 1
WasModified: 0
WasOrder2: 1
Width: 1343
VWidth: 2048
LBearingChange: 0
UnicodeEnc: 0
InstructionsLength: 0
SplineSet
920 1336 m 1,0,-1
 1252 1336 l 1,1,-1
 760 732 l 1,2,-1
 1262 0 l 1,3,-1
 936 0 l 1,4,-1
 523 611 l 1,5,-1
 452 537 l 1,6,-1
 452 0 l 1,7,-1
 164 0 l 1,8,-1
 164 1336 l 1,9,-1
 452 1336 l 1,10,-1
 452 775 l 1,11,-1
 920 1336 l 1,0,-1
EndSplineSet
EndUndoOperation
EndUndoes
Redoes
EndRedoes
EndUndoRedoHistory
Fore
SplineSet
920 1336 m 1,0,-1
 1252 1336 l 1,1,-1
 760 732 l 1,2,-1
 1262 0 l 1,3,-1
 936 0 l 1,4,-1
 523 611 l 1,5,-1
 452 537 l 1,6,-1
 452 0 l 1,7,-1
 164 0 l 1,8,-1
 164 1336 l 1,9,-1
 452 1336 l 1,10,-1
 452 775 l 1,11,-1
 920 1336 l 1,0,-1
EndSplineSet
EndChar

StartChar: L
Encoding: 76 76 46
Width: 1082
GlyphClass: 2
Flags: W
LayerCount: 2
UndoRedoHistory
Layer: 1
Undoes
UndoOperation
Index: 0
Type: 1
WasModified: 0
WasOrder2: 1
Width: 1082
VWidth: 2048
LBearingChange: 0
UnicodeEnc: 0
InstructionsLength: 0
SplineSet
985 216 m 1,0,-1
 971 0 l 1,1,-1
 164 0 l 1,2,-1
 164 1336 l 1,3,-1
 452 1336 l 1,4,-1
 452 216 l 1,5,-1
 985 216 l 1,0,-1
EndSplineSet
EndUndoOperation
UndoOperation
Index: 1
Type: 1
WasModified: 0
WasOrder2: 1
Width: 1082
VWidth: 2048
LBearingChange: 0
UnicodeEnc: 0
InstructionsLength: 0
SplineSet
985 216 m 1,0,-1
 971 0 l 1,1,-1
 164 0 l 1,2,-1
 164 1336 l 1,3,-1
 452 1336 l 1,4,-1
 452 216 l 1,5,-1
 985 216 l 1,0,-1
EndSplineSet
EndUndoOperation
EndUndoes
Redoes
EndRedoes
EndUndoRedoHistory
Fore
SplineSet
985 216 m 1,0,-1
 971 0 l 1,1,-1
 164 0 l 1,2,-1
 164 1336 l 1,3,-1
 452 1336 l 1,4,-1
 452 216 l 1,5,-1
 985 216 l 1,0,-1
EndSplineSet
EndChar

StartChar: M
Encoding: 77 77 47
Width: 1672
GlyphClass: 2
Flags: W
LayerCount: 2
UndoRedoHistory
Layer: 1
Undoes
UndoOperation
Index: 0
Type: 1
WasModified: 0
WasOrder2: 1
Width: 1672
VWidth: 2048
LBearingChange: 0
UnicodeEnc: 0
InstructionsLength: 0
SplineSet
1227 1336 m 1,0,-1
 1508 1336 l 1,1,-1
 1508 0 l 1,2,-1
 1242 0 l 1,3,-1
 1242 487 l 1,4,-1
 1257 880 l 1,5,-1
 932 136 l 1,6,-1
 731 136 l 1,7,-1
 415 886 l 1,8,-1
 430 484 l 1,9,-1
 430 0 l 1,10,-1
 164 0 l 1,11,-1
 164 1336 l 1,12,-1
 450 1336 l 1,13,-1
 836 421 l 1,14,-1
 1227 1336 l 1,0,-1
EndSplineSet
EndUndoOperation
UndoOperation
Index: 1
Type: 1
WasModified: 0
WasOrder2: 1
Width: 1672
VWidth: 2048
LBearingChange: 0
UnicodeEnc: 0
InstructionsLength: 0
SplineSet
1227 1336 m 1,0,-1
 1508 1336 l 1,1,-1
 1508 0 l 1,2,-1
 1242 0 l 1,3,-1
 1242 487 l 1,4,-1
 1257 880 l 1,5,-1
 932 136 l 1,6,-1
 731 136 l 1,7,-1
 415 886 l 1,8,-1
 430 484 l 1,9,-1
 430 0 l 1,10,-1
 164 0 l 1,11,-1
 164 1336 l 1,12,-1
 450 1336 l 1,13,-1
 836 421 l 1,14,-1
 1227 1336 l 1,0,-1
EndSplineSet
EndUndoOperation
EndUndoes
Redoes
EndRedoes
EndUndoRedoHistory
Fore
SplineSet
1227 1336 m 1,0,-1
 1508 1336 l 1,1,-1
 1508 0 l 1,2,-1
 1242 0 l 1,3,-1
 1242 487 l 1,4,-1
 1257 880 l 1,5,-1
 932 136 l 1,6,-1
 731 136 l 1,7,-1
 415 886 l 1,8,-1
 430 484 l 1,9,-1
 430 0 l 1,10,-1
 164 0 l 1,11,-1
 164 1336 l 1,12,-1
 450 1336 l 1,13,-1
 836 421 l 1,14,-1
 1227 1336 l 1,0,-1
EndSplineSet
EndChar

StartChar: N
Encoding: 78 78 48
Width: 1465
GlyphClass: 2
Flags: W
LayerCount: 2
UndoRedoHistory
Layer: 1
Undoes
UndoOperation
Index: 0
Type: 1
WasModified: 0
WasOrder2: 1
Width: 1465
VWidth: 2048
LBearingChange: 0
UnicodeEnc: 0
InstructionsLength: 0
SplineSet
1049 350 m 1,0,1
 1030 787 1030 787 1030 795 c 2,2,-1
 1030 1336 l 1,3,-1
 1301 1336 l 1,4,-1
 1301 0 l 1,5,-1
 998 0 l 1,6,-1
 413 961 l 1,7,8
 441 430 441 430 441 409 c 2,9,-1
 441 0 l 1,10,-1
 164 0 l 1,11,-1
 164 1336 l 1,12,-1
 456 1336 l 1,13,-1
 1049 350 l 1,0,1
EndSplineSet
EndUndoOperation
UndoOperation
Index: 1
Type: 1
WasModified: 0
WasOrder2: 1
Width: 1465
VWidth: 2048
LBearingChange: 0
UnicodeEnc: 0
InstructionsLength: 0
SplineSet
1049 350 m 1,0,1
 1030 787 1030 787 1030 795 c 2,2,-1
 1030 1336 l 1,3,-1
 1301 1336 l 1,4,-1
 1301 0 l 1,5,-1
 998 0 l 1,6,-1
 413 961 l 1,7,8
 441 430 441 430 441 409 c 2,9,-1
 441 0 l 1,10,-1
 164 0 l 1,11,-1
 164 1336 l 1,12,-1
 456 1336 l 1,13,-1
 1049 350 l 1,0,1
EndSplineSet
EndUndoOperation
EndUndoes
Redoes
EndRedoes
EndUndoRedoHistory
Fore
SplineSet
1049 350 m 1,0,1
 1030 787 1030 787 1030 795 c 2,2,-1
 1030 1336 l 1,3,-1
 1301 1336 l 1,4,-1
 1301 0 l 1,5,-1
 998 0 l 1,6,-1
 413 961 l 1,7,8
 441 430 441 430 441 409 c 2,9,-1
 441 0 l 1,10,-1
 164 0 l 1,11,-1
 164 1336 l 1,12,-1
 456 1336 l 1,13,-1
 1049 350 l 1,0,1
EndSplineSet
EndChar

StartChar: O
Encoding: 79 79 49
Width: 1534
GlyphClass: 2
Flags: W
LayerCount: 2
UndoRedoHistory
Layer: 1
Undoes
UndoOperation
Index: 0
Type: 1
WasModified: 0
WasOrder2: 1
Width: 1534
VWidth: 2048
LBearingChange: 0
UnicodeEnc: 0
InstructionsLength: 0
SplineSet
768 1129 m 128,-1,1
 599 1129 599 1129 501.5 1004.5 c 128,-1,2
 404 880 404 880 404 669 c 0,3,4
 404 461 404 461 501.5 336.5 c 128,-1,5
 599 212 599 212 768 212 c 128,-1,6
 937 212 937 212 1033.5 336.5 c 128,-1,7
 1130 461 1130 461 1130 669 c 0,8,9
 1130 880 1130 880 1033.5 1004.5 c 128,-1,0
 937 1129 937 1129 768 1129 c 128,-1,1
768 -16 m 128,-1,11
 470 -16 470 -16 293 167 c 128,-1,12
 116 350 116 350 116 671 c 0,13,14
 116 994 116 994 293.5 1176.5 c 128,-1,15
 471 1359 471 1359 768 1359 c 128,-1,16
 1065 1359 1065 1359 1241.5 1176.5 c 128,-1,17
 1418 994 1418 994 1418 671 c 0,18,19
 1418 350 1418 350 1242 167 c 128,-1,10
 1066 -16 1066 -16 768 -16 c 128,-1,11
EndSplineSet
EndUndoOperation
UndoOperation
Index: 1
Type: 1
WasModified: 0
WasOrder2: 1
Width: 1534
VWidth: 2048
LBearingChange: 0
UnicodeEnc: 0
InstructionsLength: 0
SplineSet
768 1129 m 128,-1,1
 599 1129 599 1129 501.5 1004.5 c 128,-1,2
 404 880 404 880 404 669 c 0,3,4
 404 461 404 461 501.5 336.5 c 128,-1,5
 599 212 599 212 768 212 c 128,-1,6
 937 212 937 212 1033.5 336.5 c 128,-1,7
 1130 461 1130 461 1130 669 c 0,8,9
 1130 880 1130 880 1033.5 1004.5 c 128,-1,0
 937 1129 937 1129 768 1129 c 128,-1,1
768 -16 m 128,-1,11
 470 -16 470 -16 293 167 c 128,-1,12
 116 350 116 350 116 671 c 0,13,14
 116 994 116 994 293.5 1176.5 c 128,-1,15
 471 1359 471 1359 768 1359 c 128,-1,16
 1065 1359 1065 1359 1241.5 1176.5 c 128,-1,17
 1418 994 1418 994 1418 671 c 0,18,19
 1418 350 1418 350 1242 167 c 128,-1,10
 1066 -16 1066 -16 768 -16 c 128,-1,11
EndSplineSet
EndUndoOperation
EndUndoes
Redoes
EndRedoes
EndUndoRedoHistory
Fore
SplineSet
768 1129 m 128,-1,1
 599 1129 599 1129 501.5 1004.5 c 128,-1,2
 404 880 404 880 404 669 c 0,3,4
 404 461 404 461 501.5 336.5 c 128,-1,5
 599 212 599 212 768 212 c 128,-1,6
 937 212 937 212 1033.5 336.5 c 128,-1,7
 1130 461 1130 461 1130 669 c 0,8,9
 1130 880 1130 880 1033.5 1004.5 c 128,-1,0
 937 1129 937 1129 768 1129 c 128,-1,1
768 -16 m 128,-1,11
 470 -16 470 -16 293 167 c 128,-1,12
 116 350 116 350 116 671 c 0,13,14
 116 994 116 994 293.5 1176.5 c 128,-1,15
 471 1359 471 1359 768 1359 c 128,-1,16
 1065 1359 1065 1359 1241.5 1176.5 c 128,-1,17
 1418 994 1418 994 1418 671 c 0,18,19
 1418 350 1418 350 1242 167 c 128,-1,10
 1066 -16 1066 -16 768 -16 c 128,-1,11
EndSplineSet
EndChar

StartChar: P
Encoding: 80 80 50
Width: 1218
GlyphClass: 2
Flags: W
LayerCount: 2
UndoRedoHistory
Layer: 1
Undoes
UndoOperation
Index: 0
Type: 1
WasModified: 0
WasOrder2: 1
Width: 1218
VWidth: 2048
LBearingChange: 0
UnicodeEnc: 0
InstructionsLength: 0
SplineSet
609 677 m 0,0,1
 668 677 668 677 713 686 c 128,-1,2
 758 695 758 695 785.5 713 c 128,-1,3
 813 731 813 731 830.5 751 c 128,-1,4
 848 771 848 771 855.5 801 c 128,-1,5
 863 831 863 831 865.5 854 c 128,-1,6
 868 877 868 877 868 911 c 0,7,8
 868 1019 868 1019 811.5 1072.5 c 128,-1,9
 755 1126 755 1126 636 1126 c 2,10,-1
 452 1126 l 1,11,-1
 452 678 l 1,12,13
 480 677 480 677 609 677 c 0,0,1
164 0 m 1,14,-1
 164 1336 l 1,15,-1
 635 1336 l 2,16,17
 870 1336 870 1336 1013 1230.5 c 128,-1,18
 1156 1125 1156 1125 1156 919 c 0,19,20
 1156 824 1156 824 1128.5 748 c 128,-1,21
 1101 672 1101 672 1042 610.5 c 128,-1,22
 983 549 983 549 879.5 515.5 c 128,-1,23
 776 482 776 482 635 482 c 0,24,25
 530 482 530 482 452 489 c 1,26,-1
 452 0 l 1,27,-1
 164 0 l 1,14,-1
EndSplineSet
EndUndoOperation
UndoOperation
Index: 1
Type: 1
WasModified: 0
WasOrder2: 1
Width: 1218
VWidth: 2048
LBearingChange: 0
UnicodeEnc: 0
InstructionsLength: 0
SplineSet
609 677 m 0,0,1
 668 677 668 677 713 686 c 128,-1,2
 758 695 758 695 785.5 713 c 128,-1,3
 813 731 813 731 830.5 751 c 128,-1,4
 848 771 848 771 855.5 801 c 128,-1,5
 863 831 863 831 865.5 854 c 128,-1,6
 868 877 868 877 868 911 c 0,7,8
 868 1019 868 1019 811.5 1072.5 c 128,-1,9
 755 1126 755 1126 636 1126 c 2,10,-1
 452 1126 l 1,11,-1
 452 678 l 1,12,13
 480 677 480 677 609 677 c 0,0,1
164 0 m 1,14,-1
 164 1336 l 1,15,-1
 635 1336 l 2,16,17
 870 1336 870 1336 1013 1230.5 c 128,-1,18
 1156 1125 1156 1125 1156 919 c 0,19,20
 1156 824 1156 824 1128.5 748 c 128,-1,21
 1101 672 1101 672 1042 610.5 c 128,-1,22
 983 549 983 549 879.5 515.5 c 128,-1,23
 776 482 776 482 635 482 c 0,24,25
 530 482 530 482 452 489 c 1,26,-1
 452 0 l 1,27,-1
 164 0 l 1,14,-1
EndSplineSet
EndUndoOperation
EndUndoes
Redoes
EndRedoes
EndUndoRedoHistory
Fore
SplineSet
609 677 m 0,0,1
 668 677 668 677 713 686 c 128,-1,2
 758 695 758 695 785.5 713 c 128,-1,3
 813 731 813 731 830.5 751 c 128,-1,4
 848 771 848 771 855.5 801 c 128,-1,5
 863 831 863 831 865.5 854 c 128,-1,6
 868 877 868 877 868 911 c 0,7,8
 868 1019 868 1019 811.5 1072.5 c 128,-1,9
 755 1126 755 1126 636 1126 c 2,10,-1
 452 1126 l 1,11,-1
 452 678 l 1,12,13
 480 677 480 677 609 677 c 0,0,1
164 0 m 1,14,-1
 164 1336 l 1,15,-1
 635 1336 l 2,16,17
 870 1336 870 1336 1013 1230.5 c 128,-1,18
 1156 1125 1156 1125 1156 919 c 0,19,20
 1156 824 1156 824 1128.5 748 c 128,-1,21
 1101 672 1101 672 1042 610.5 c 128,-1,22
 983 549 983 549 879.5 515.5 c 128,-1,23
 776 482 776 482 635 482 c 0,24,25
 530 482 530 482 452 489 c 1,26,-1
 452 0 l 1,27,-1
 164 0 l 1,14,-1
EndSplineSet
EndChar

StartChar: Q
Encoding: 81 81 51
Width: 1530
GlyphClass: 2
Flags: W
LayerCount: 2
UndoRedoHistory
Layer: 1
Undoes
UndoOperation
Index: 0
Type: 1
WasModified: 0
WasOrder2: 1
Width: 1530
VWidth: 2048
LBearingChange: 0
UnicodeEnc: 0
InstructionsLength: 0
SplineSet
764 213 m 0,0,1
 945 213 945 213 1035.5 334 c 128,-1,2
 1126 455 1126 455 1126 669 c 0,3,4
 1126 885 1126 885 1035.5 1007 c 128,-1,5
 945 1129 945 1129 765 1129 c 128,-1,6
 585 1129 585 1129 494.5 1006.5 c 128,-1,7
 404 884 404 884 404 669 c 0,8,9
 404 456 404 456 494 334.5 c 128,-1,10
 584 213 584 213 764 213 c 0,0,1
1313 -313 m 1,11,-1
 1144 -460 l 1,12,13
 1014 -368 1014 -368 822 -14 c 1,14,15
 784 -16 784 -16 763 -16 c 0,16,17
 466 -16 466 -16 291 167 c 128,-1,18
 116 350 116 350 116 671 c 0,19,20
 116 994 116 994 291.5 1176 c 128,-1,21
 467 1358 467 1358 764 1358 c 128,-1,22
 1061 1358 1061 1358 1237.5 1175.5 c 128,-1,23
 1414 993 1414 993 1414 671 c 0,24,25
 1414 443 1414 443 1321 281 c 128,-1,26
 1228 119 1228 119 1061 43 c 1,27,28
 1062 41 1062 41 1082.5 6.5 c 128,-1,29
 1103 -28 1103 -28 1112 -42.5 c 128,-1,30
 1121 -57 1121 -57 1143.5 -92.5 c 128,-1,31
 1166 -128 1166 -128 1182.5 -151 c 128,-1,32
 1199 -174 1199 -174 1221.5 -205.5 c 128,-1,33
 1244 -237 1244 -237 1267 -263.5 c 128,-1,34
 1290 -290 1290 -290 1313 -313 c 1,11,-1
EndSplineSet
EndUndoOperation
UndoOperation
Index: 1
Type: 1
WasModified: 0
WasOrder2: 1
Width: 1530
VWidth: 2048
LBearingChange: 0
UnicodeEnc: 0
InstructionsLength: 0
SplineSet
764 213 m 0,0,1
 945 213 945 213 1035.5 334 c 128,-1,2
 1126 455 1126 455 1126 669 c 0,3,4
 1126 885 1126 885 1035.5 1007 c 128,-1,5
 945 1129 945 1129 765 1129 c 128,-1,6
 585 1129 585 1129 494.5 1006.5 c 128,-1,7
 404 884 404 884 404 669 c 0,8,9
 404 456 404 456 494 334.5 c 128,-1,10
 584 213 584 213 764 213 c 0,0,1
1313 -313 m 1,11,-1
 1144 -460 l 1,12,13
 1014 -368 1014 -368 822 -14 c 1,14,15
 784 -16 784 -16 763 -16 c 0,16,17
 466 -16 466 -16 291 167 c 128,-1,18
 116 350 116 350 116 671 c 0,19,20
 116 994 116 994 291.5 1176 c 128,-1,21
 467 1358 467 1358 764 1358 c 128,-1,22
 1061 1358 1061 1358 1237.5 1175.5 c 128,-1,23
 1414 993 1414 993 1414 671 c 0,24,25
 1414 443 1414 443 1321 281 c 128,-1,26
 1228 119 1228 119 1061 43 c 1,27,28
 1062 41 1062 41 1082.5 6.5 c 128,-1,29
 1103 -28 1103 -28 1112 -42.5 c 128,-1,30
 1121 -57 1121 -57 1143.5 -92.5 c 128,-1,31
 1166 -128 1166 -128 1182.5 -151 c 128,-1,32
 1199 -174 1199 -174 1221.5 -205.5 c 128,-1,33
 1244 -237 1244 -237 1267 -263.5 c 128,-1,34
 1290 -290 1290 -290 1313 -313 c 1,11,-1
EndSplineSet
EndUndoOperation
EndUndoes
Redoes
EndRedoes
EndUndoRedoHistory
Fore
SplineSet
764 213 m 0,0,1
 945 213 945 213 1035.5 334 c 128,-1,2
 1126 455 1126 455 1126 669 c 0,3,4
 1126 885 1126 885 1035.5 1007 c 128,-1,5
 945 1129 945 1129 765 1129 c 128,-1,6
 585 1129 585 1129 494.5 1006.5 c 128,-1,7
 404 884 404 884 404 669 c 0,8,9
 404 456 404 456 494 334.5 c 128,-1,10
 584 213 584 213 764 213 c 0,0,1
1313 -313 m 1,11,-1
 1144 -460 l 1,12,13
 1014 -368 1014 -368 822 -14 c 1,14,15
 784 -16 784 -16 763 -16 c 0,16,17
 466 -16 466 -16 291 167 c 128,-1,18
 116 350 116 350 116 671 c 0,19,20
 116 994 116 994 291.5 1176 c 128,-1,21
 467 1358 467 1358 764 1358 c 128,-1,22
 1061 1358 1061 1358 1237.5 1175.5 c 128,-1,23
 1414 993 1414 993 1414 671 c 0,24,25
 1414 443 1414 443 1321 281 c 128,-1,26
 1228 119 1228 119 1061 43 c 1,27,28
 1062 41 1062 41 1082.5 6.5 c 128,-1,29
 1103 -28 1103 -28 1112 -42.5 c 128,-1,30
 1121 -57 1121 -57 1143.5 -92.5 c 128,-1,31
 1166 -128 1166 -128 1182.5 -151 c 128,-1,32
 1199 -174 1199 -174 1221.5 -205.5 c 128,-1,33
 1244 -237 1244 -237 1267 -263.5 c 128,-1,34
 1290 -290 1290 -290 1313 -313 c 1,11,-1
EndSplineSet
EndChar

StartChar: R
Encoding: 82 82 52
Width: 1345
GlyphClass: 2
Flags: W
LayerCount: 2
UndoRedoHistory
Layer: 1
Undoes
UndoOperation
Index: 0
Type: 1
WasModified: 0
WasOrder2: 1
Width: 1345
VWidth: 2048
LBearingChange: 0
UnicodeEnc: 0
InstructionsLength: 0
SplineSet
164 0 m 1,0,-1
 164 1336 l 1,1,-1
 683 1336 l 2,2,3
 780 1336 780 1336 857 1325.5 c 128,-1,4
 934 1315 934 1315 1003.5 1288.5 c 128,-1,5
 1073 1262 1073 1262 1119.5 1218.5 c 128,-1,6
 1166 1175 1166 1175 1193 1106.5 c 128,-1,7
 1220 1038 1220 1038 1220 947 c 0,8,9
 1220 820 1220 820 1149.5 727 c 128,-1,10
 1079 634 1079 634 963 587 c 1,11,12
 1003 535 1003 535 1073 391 c 1,13,-1
 1270 0 l 1,14,-1
 967 0 l 1,15,-1
 804 331 l 1,16,17
 776 391 776 391 704 530 c 1,18,19
 687 531 687 531 632 531 c 2,20,-1
 452 531 l 1,21,-1
 452 0 l 1,22,-1
 164 0 l 1,0,-1
686 742 m 2,23,24
 820 742 820 742 876 789.5 c 128,-1,25
 932 837 932 837 932 943 c 0,26,27
 932 1035 932 1035 875 1080.5 c 128,-1,28
 818 1126 818 1126 696 1126 c 2,29,-1
 452 1126 l 1,30,-1
 452 742 l 1,31,-1
 686 742 l 2,23,24
EndSplineSet
EndUndoOperation
UndoOperation
Index: 1
Type: 1
WasModified: 0
WasOrder2: 1
Width: 1345
VWidth: 2048
LBearingChange: 0
UnicodeEnc: 0
InstructionsLength: 0
SplineSet
164 0 m 1,0,-1
 164 1336 l 1,1,-1
 683 1336 l 2,2,3
 780 1336 780 1336 857 1325.5 c 128,-1,4
 934 1315 934 1315 1003.5 1288.5 c 128,-1,5
 1073 1262 1073 1262 1119.5 1218.5 c 128,-1,6
 1166 1175 1166 1175 1193 1106.5 c 128,-1,7
 1220 1038 1220 1038 1220 947 c 0,8,9
 1220 820 1220 820 1149.5 727 c 128,-1,10
 1079 634 1079 634 963 587 c 1,11,12
 1003 535 1003 535 1073 391 c 1,13,-1
 1270 0 l 1,14,-1
 967 0 l 1,15,-1
 804 331 l 1,16,17
 776 391 776 391 704 530 c 1,18,19
 687 531 687 531 632 531 c 2,20,-1
 452 531 l 1,21,-1
 452 0 l 1,22,-1
 164 0 l 1,0,-1
686 742 m 2,23,24
 820 742 820 742 876 789.5 c 128,-1,25
 932 837 932 837 932 943 c 0,26,27
 932 1035 932 1035 875 1080.5 c 128,-1,28
 818 1126 818 1126 696 1126 c 2,29,-1
 452 1126 l 1,30,-1
 452 742 l 1,31,-1
 686 742 l 2,23,24
EndSplineSet
EndUndoOperation
EndUndoes
Redoes
EndRedoes
EndUndoRedoHistory
Fore
SplineSet
164 0 m 1,0,-1
 164 1336 l 1,1,-1
 683 1336 l 2,2,3
 780 1336 780 1336 857 1325.5 c 128,-1,4
 934 1315 934 1315 1003.5 1288.5 c 128,-1,5
 1073 1262 1073 1262 1119.5 1218.5 c 128,-1,6
 1166 1175 1166 1175 1193 1106.5 c 128,-1,7
 1220 1038 1220 1038 1220 947 c 0,8,9
 1220 820 1220 820 1149.5 727 c 128,-1,10
 1079 634 1079 634 963 587 c 1,11,12
 1003 535 1003 535 1073 391 c 1,13,-1
 1270 0 l 1,14,-1
 967 0 l 1,15,-1
 804 331 l 1,16,17
 776 391 776 391 704 530 c 1,18,19
 687 531 687 531 632 531 c 2,20,-1
 452 531 l 1,21,-1
 452 0 l 1,22,-1
 164 0 l 1,0,-1
686 742 m 2,23,24
 820 742 820 742 876 789.5 c 128,-1,25
 932 837 932 837 932 943 c 0,26,27
 932 1035 932 1035 875 1080.5 c 128,-1,28
 818 1126 818 1126 696 1126 c 2,29,-1
 452 1126 l 1,30,-1
 452 742 l 1,31,-1
 686 742 l 2,23,24
EndSplineSet
EndChar

StartChar: S
Encoding: 83 83 53
Width: 1141
GlyphClass: 2
Flags: W
LayerCount: 2
UndoRedoHistory
Layer: 1
Undoes
UndoOperation
Index: 0
Type: 1
WasModified: 0
WasOrder2: 1
Width: 1141
VWidth: 2048
LBearingChange: 0
UnicodeEnc: 0
InstructionsLength: 0
SplineSet
545 -17 m 0,0,1
 283 -17 283 -17 100 87 c 1,2,-1
 183 303 l 1,3,4
 242 265 242 265 350 237.5 c 128,-1,5
 458 210 458 210 555 210 c 0,6,7
 662 210 662 210 713.5 252 c 128,-1,8
 765 294 765 294 765 385 c 0,9,10
 765 494 765 494 613 544 c 2,11,-1
 389 617 l 2,12,13
 263 658 263 658 193 747.5 c 128,-1,14
 123 837 123 837 123 975 c 0,15,16
 123 1159 123 1159 251.5 1258.5 c 128,-1,17
 380 1358 380 1358 588 1358 c 0,18,19
 831 1358 831 1358 1019 1251 c 1,20,-1
 937 1035 l 1,21,22
 723 1128 723 1128 599 1128 c 0,23,24
 496 1128 496 1128 444 1093 c 128,-1,25
 392 1058 392 1058 392 980 c 0,26,27
 392 885 392 885 490 853 c 2,28,-1
 698 783 l 2,29,30
 878 723 878 723 958 631.5 c 128,-1,31
 1038 540 1038 540 1038 381 c 0,32,33
 1038 190 1038 190 903 86.5 c 128,-1,34
 768 -17 768 -17 545 -17 c 0,0,1
EndSplineSet
EndUndoOperation
UndoOperation
Index: 1
Type: 1
WasModified: 0
WasOrder2: 1
Width: 1141
VWidth: 2048
LBearingChange: 0
UnicodeEnc: 0
InstructionsLength: 0
SplineSet
545 -17 m 0,0,1
 768 -17 768 -17 903 86.5 c 128,-1,2
 1038 190 1038 190 1038 381 c 0,3,4
 1038 540 1038 540 958 631.5 c 128,-1,5
 878 723 878 723 698 783 c 2,6,-1
 490 853 l 2,7,8
 392 885 392 885 392 980 c 0,9,10
 392 1058 392 1058 444 1093 c 128,-1,11
 496 1128 496 1128 599 1128 c 0,12,13
 723 1128 723 1128 937 1035 c 1,14,-1
 1019 1251 l 1,15,16
 831 1358 831 1358 588 1358 c 0,17,18
 380 1358 380 1358 251.5 1258.5 c 128,-1,19
 123 1159 123 1159 123 975 c 0,20,21
 123 837 123 837 193 747.5 c 128,-1,22
 263 658 263 658 389 617 c 2,23,-1
 613 544 l 2,24,25
 765 494 765 494 765 385 c 0,26,27
 765 294 765 294 713.5 252 c 128,-1,28
 662 210 662 210 555 210 c 0,29,30
 458 210 458 210 350 237.5 c 128,-1,31
 242 265 242 265 183 303 c 1,32,-1
 100 87 l 1,33,34
 283 -17 283 -17 545 -17 c 0,0,1
EndSplineSet
EndUndoOperation
EndUndoes
Redoes
EndRedoes
EndUndoRedoHistory
Fore
SplineSet
545 -17 m 0,0,1
 283 -17 283 -17 100 87 c 1,2,-1
 183 303 l 1,3,4
 242 265 242 265 350 237.5 c 128,-1,5
 458 210 458 210 555 210 c 0,6,7
 662 210 662 210 713.5 252 c 128,-1,8
 765 294 765 294 765 385 c 0,9,10
 765 494 765 494 613 544 c 2,11,-1
 389 617 l 2,12,13
 263 658 263 658 193 747.5 c 128,-1,14
 123 837 123 837 123 975 c 0,15,16
 123 1159 123 1159 251.5 1258.5 c 128,-1,17
 380 1358 380 1358 588 1358 c 0,18,19
 831 1358 831 1358 1019 1251 c 1,20,-1
 937 1035 l 1,21,22
 723 1128 723 1128 599 1128 c 0,23,24
 496 1128 496 1128 444 1093 c 128,-1,25
 392 1058 392 1058 392 980 c 0,26,27
 392 885 392 885 490 853 c 2,28,-1
 698 783 l 2,29,30
 878 723 878 723 958 631.5 c 128,-1,31
 1038 540 1038 540 1038 381 c 0,32,33
 1038 190 1038 190 903 86.5 c 128,-1,34
 768 -17 768 -17 545 -17 c 0,0,1
EndSplineSet
EndChar

StartChar: T
Encoding: 84 84 54
Width: 1099
GlyphClass: 2
Flags: W
LayerCount: 2
UndoRedoHistory
Layer: 1
Undoes
UndoOperation
Index: 0
Type: 1
WasModified: 0
WasOrder2: 1
Width: 1099
VWidth: 2048
LBearingChange: 0
UnicodeEnc: 0
InstructionsLength: 0
SplineSet
1066 1336 m 1,0,-1
 1066 1126 l 1,1,-1
 696 1126 l 1,2,-1
 696 0 l 1,3,-1
 408 0 l 1,4,-1
 408 1126 l 1,5,-1
 32 1126 l 1,6,-1
 32 1336 l 1,7,-1
 1066 1336 l 1,0,-1
EndSplineSet
EndUndoOperation
UndoOperation
Index: 1
Type: 1
WasModified: 0
WasOrder2: 1
Width: 1099
VWidth: 2048
LBearingChange: 0
UnicodeEnc: 0
InstructionsLength: 0
SplineSet
1066 1336 m 1,0,-1
 1066 1126 l 1,1,-1
 696 1126 l 1,2,-1
 696 0 l 1,3,-1
 408 0 l 1,4,-1
 408 1126 l 1,5,-1
 32 1126 l 1,6,-1
 32 1336 l 1,7,-1
 1066 1336 l 1,0,-1
EndSplineSet
EndUndoOperation
EndUndoes
Redoes
EndRedoes
EndUndoRedoHistory
Fore
SplineSet
1066 1336 m 1,0,-1
 1066 1126 l 1,1,-1
 696 1126 l 1,2,-1
 696 0 l 1,3,-1
 408 0 l 1,4,-1
 408 1126 l 1,5,-1
 32 1126 l 1,6,-1
 32 1336 l 1,7,-1
 1066 1336 l 1,0,-1
EndSplineSet
EndChar

StartChar: U
Encoding: 85 85 55
Width: 1380
GlyphClass: 2
Flags: W
LayerCount: 2
UndoRedoHistory
Layer: 1
Undoes
UndoOperation
Index: 0
Type: 1
WasModified: 0
WasOrder2: 1
Width: 1380
VWidth: 2048
LBearingChange: 0
UnicodeEnc: 0
InstructionsLength: 0
SplineSet
690 -17 m 0,0,1
 429 -17 429 -17 284 115.5 c 128,-1,2
 139 248 139 248 139 485 c 2,3,-1
 139 1336 l 1,4,-1
 427 1336 l 1,5,-1
 427 504 l 2,6,7
 427 213 427 213 690 213 c 0,8,9
 825 213 825 213 889 285 c 128,-1,10
 953 357 953 357 953 505 c 2,11,-1
 953 1336 l 1,12,-1
 1241 1336 l 1,13,-1
 1241 484 l 2,14,15
 1241 249 1241 249 1095.5 116 c 128,-1,16
 950 -17 950 -17 690 -17 c 0,0,1
EndSplineSet
EndUndoOperation
UndoOperation
Index: 1
Type: 1
WasModified: 0
WasOrder2: 1
Width: 1380
VWidth: 2048
LBearingChange: 0
UnicodeEnc: 0
InstructionsLength: 0
SplineSet
690 -17 m 0,0,1
 429 -17 429 -17 284 115.5 c 128,-1,2
 139 248 139 248 139 485 c 2,3,-1
 139 1336 l 1,4,-1
 427 1336 l 1,5,-1
 427 504 l 2,6,7
 427 213 427 213 690 213 c 0,8,9
 825 213 825 213 889 285 c 128,-1,10
 953 357 953 357 953 505 c 2,11,-1
 953 1336 l 1,12,-1
 1241 1336 l 1,13,-1
 1241 484 l 2,14,15
 1241 249 1241 249 1095.5 116 c 128,-1,16
 950 -17 950 -17 690 -17 c 0,0,1
EndSplineSet
EndUndoOperation
EndUndoes
Redoes
EndRedoes
EndUndoRedoHistory
Fore
SplineSet
690 -17 m 0,0,1
 429 -17 429 -17 284 115.5 c 128,-1,2
 139 248 139 248 139 485 c 2,3,-1
 139 1336 l 1,4,-1
 427 1336 l 1,5,-1
 427 504 l 2,6,7
 427 213 427 213 690 213 c 0,8,9
 825 213 825 213 889 285 c 128,-1,10
 953 357 953 357 953 505 c 2,11,-1
 953 1336 l 1,12,-1
 1241 1336 l 1,13,-1
 1241 484 l 2,14,15
 1241 249 1241 249 1095.5 116 c 128,-1,16
 950 -17 950 -17 690 -17 c 0,0,1
EndSplineSet
EndChar

StartChar: V
Encoding: 86 86 56
Width: 1284
GlyphClass: 2
Flags: W
LayerCount: 2
UndoRedoHistory
Layer: 1
Undoes
UndoOperation
Index: 0
Type: 1
WasModified: 0
WasOrder2: 1
Width: 1284
VWidth: 2048
LBearingChange: 0
UnicodeEnc: 0
InstructionsLength: 0
SplineSet
810 0 m 1,0,-1
 482 0 l 1,1,-1
 46 1336 l 1,2,-1
 354 1336 l 1,3,-1
 568 607 l 1,4,-1
 650 328 l 1,5,-1
 730 608 l 1,6,-1
 932 1336 l 1,7,-1
 1238 1336 l 1,8,-1
 810 0 l 1,0,-1
EndSplineSet
EndUndoOperation
UndoOperation
Index: 1
Type: 1
WasModified: 0
WasOrder2: 1
Width: 1284
VWidth: 2048
LBearingChange: 0
UnicodeEnc: 0
InstructionsLength: 0
SplineSet
810 0 m 1,0,-1
 1238 1336 l 1,1,-1
 932 1336 l 1,2,-1
 730 608 l 1,3,-1
 650 328 l 1,4,-1
 568 607 l 1,5,-1
 354 1336 l 1,6,-1
 46 1336 l 1,7,-1
 482 0 l 1,8,-1
 810 0 l 1,0,-1
EndSplineSet
EndUndoOperation
EndUndoes
Redoes
EndRedoes
EndUndoRedoHistory
Fore
SplineSet
810 0 m 1,0,-1
 482 0 l 1,1,-1
 46 1336 l 1,2,-1
 354 1336 l 1,3,-1
 568 607 l 1,4,-1
 650 328 l 1,5,-1
 730 608 l 1,6,-1
 932 1336 l 1,7,-1
 1238 1336 l 1,8,-1
 810 0 l 1,0,-1
EndSplineSet
EndChar

StartChar: W
Encoding: 87 87 57
Width: 1868
GlyphClass: 2
Flags: W
LayerCount: 2
UndoRedoHistory
Layer: 1
Undoes
UndoOperation
Index: 0
Type: 1
WasModified: 0
WasOrder2: 1
Width: 1868
VWidth: 2048
LBearingChange: 0
UnicodeEnc: 0
InstructionsLength: 0
SplineSet
805 1330 m 1,0,-1
 1064 1330 l 1,1,-1
 1330 373 l 1,2,-1
 1574 1336 l 1,3,-1
 1855 1336 l 1,4,-1
 1472 0 l 1,5,-1
 1200 0 l 1,6,-1
 935 963 l 1,7,-1
 649 0 l 1,8,-1
 379 0 l 1,9,-1
 13 1336 l 1,10,-1
 295 1336 l 1,11,-1
 526 376 l 1,12,-1
 805 1330 l 1,0,-1
EndSplineSet
EndUndoOperation
UndoOperation
Index: 1
Type: 1
WasModified: 0
WasOrder2: 1
Width: 1868
VWidth: 2048
LBearingChange: 0
UnicodeEnc: 0
InstructionsLength: 0
SplineSet
805 1330 m 1,0,-1
 1064 1330 l 1,1,-1
 1330 373 l 1,2,-1
 1574 1336 l 1,3,-1
 1855 1336 l 1,4,-1
 1472 0 l 1,5,-1
 1200 0 l 1,6,-1
 935 963 l 1,7,-1
 649 0 l 1,8,-1
 379 0 l 1,9,-1
 13 1336 l 1,10,-1
 295 1336 l 1,11,-1
 526 376 l 1,12,-1
 805 1330 l 1,0,-1
EndSplineSet
EndUndoOperation
EndUndoes
Redoes
EndRedoes
EndUndoRedoHistory
Fore
SplineSet
805 1330 m 1,0,-1
 1064 1330 l 1,1,-1
 1330 373 l 1,2,-1
 1574 1336 l 1,3,-1
 1855 1336 l 1,4,-1
 1472 0 l 1,5,-1
 1200 0 l 1,6,-1
 935 963 l 1,7,-1
 649 0 l 1,8,-1
 379 0 l 1,9,-1
 13 1336 l 1,10,-1
 295 1336 l 1,11,-1
 526 376 l 1,12,-1
 805 1330 l 1,0,-1
EndSplineSet
EndChar

StartChar: X
Encoding: 88 88 58
Width: 1236
GlyphClass: 2
Flags: W
LayerCount: 2
UndoRedoHistory
Layer: 1
Undoes
UndoOperation
Index: 0
Type: 1
WasModified: 0
WasOrder2: 1
Width: 1236
VWidth: 2048
LBearingChange: 0
UnicodeEnc: 0
InstructionsLength: 0
SplineSet
778 682 m 1,0,-1
 1236 0 l 1,1,-1
 924 0 l 1,2,-1
 614 456 l 1,3,-1
 296 0 l 1,4,-1
 0 0 l 1,5,-1
 459 687 l 1,6,-1
 32 1336 l 1,7,-1
 337 1336 l 1,8,-1
 626 880 l 1,9,-1
 923 1336 l 1,10,-1
 1214 1336 l 1,11,-1
 778 682 l 1,0,-1
EndSplineSet
EndUndoOperation
UndoOperation
Index: 1
Type: 1
WasModified: 0
WasOrder2: 1
Width: 1236
VWidth: 2048
LBearingChange: 0
UnicodeEnc: 0
InstructionsLength: 0
SplineSet
778 682 m 1,0,-1
 1214 1336 l 1,1,-1
 923 1336 l 1,2,-1
 626 880 l 1,3,-1
 337 1336 l 1,4,-1
 32 1336 l 1,5,-1
 459 687 l 1,6,-1
 0 0 l 1,7,-1
 296 0 l 1,8,-1
 614 456 l 1,9,-1
 924 0 l 1,10,-1
 1236 0 l 1,11,-1
 778 682 l 1,0,-1
EndSplineSet
EndUndoOperation
EndUndoes
Redoes
EndRedoes
EndUndoRedoHistory
Fore
SplineSet
778 682 m 1,0,-1
 1236 0 l 1,1,-1
 924 0 l 1,2,-1
 614 456 l 1,3,-1
 296 0 l 1,4,-1
 0 0 l 1,5,-1
 459 687 l 1,6,-1
 32 1336 l 1,7,-1
 337 1336 l 1,8,-1
 626 880 l 1,9,-1
 923 1336 l 1,10,-1
 1214 1336 l 1,11,-1
 778 682 l 1,0,-1
EndSplineSet
EndChar

StartChar: Y
Encoding: 89 89 59
Width: 1183
GlyphClass: 2
Flags: W
LayerCount: 2
UndoRedoHistory
Layer: 1
Undoes
UndoOperation
Index: 0
Type: 1
WasModified: 0
WasOrder2: 1
Width: 1183
VWidth: 2048
LBearingChange: 0
UnicodeEnc: 0
InstructionsLength: 0
SplineSet
594 749 m 1,0,-1
 881 1336 l 1,1,-1
 1179 1336 l 1,2,-1
 735 499 l 1,3,-1
 735 0 l 1,4,-1
 453 0 l 1,5,-1
 453 495 l 1,6,-1
 10 1336 l 1,7,-1
 313 1336 l 1,8,-1
 594 749 l 1,0,-1
EndSplineSet
EndUndoOperation
UndoOperation
Index: 1
Type: 1
WasModified: 0
WasOrder2: 1
Width: 1183
VWidth: 2048
LBearingChange: 0
UnicodeEnc: 0
InstructionsLength: 0
SplineSet
594 749 m 1,0,-1
 881 1336 l 1,1,-1
 1179 1336 l 1,2,-1
 735 499 l 1,3,-1
 735 0 l 1,4,-1
 453 0 l 1,5,-1
 453 495 l 1,6,-1
 10 1336 l 1,7,-1
 313 1336 l 1,8,-1
 594 749 l 1,0,-1
EndSplineSet
EndUndoOperation
EndUndoes
Redoes
EndRedoes
EndUndoRedoHistory
Fore
SplineSet
594 749 m 1,0,-1
 881 1336 l 1,1,-1
 1179 1336 l 1,2,-1
 735 499 l 1,3,-1
 735 0 l 1,4,-1
 453 0 l 1,5,-1
 453 495 l 1,6,-1
 10 1336 l 1,7,-1
 313 1336 l 1,8,-1
 594 749 l 1,0,-1
EndSplineSet
EndChar

StartChar: Z
Encoding: 90 90 60
Width: 1109
GlyphClass: 2
Flags: W
LayerCount: 2
UndoRedoHistory
Layer: 1
Undoes
UndoOperation
Index: 0
Type: 1
WasModified: 0
WasOrder2: 1
Width: 1109
VWidth: 2048
LBearingChange: 0
UnicodeEnc: 0
InstructionsLength: 0
SplineSet
99 1336 m 1,0,-1
 1021 1336 l 1,1,-1
 1021 1150 l 1,2,-1
 462 216 l 1,3,-1
 1030 216 l 1,4,-1
 1030 0 l 1,5,-1
 92 0 l 1,6,-1
 92 172 l 1,7,-1
 681 1126 l 1,8,-1
 99 1126 l 1,9,-1
 99 1336 l 1,0,-1
EndSplineSet
EndUndoOperation
UndoOperation
Index: 1
Type: 1
WasModified: 0
WasOrder2: 1
Width: 1109
VWidth: 2048
LBearingChange: 0
UnicodeEnc: 0
InstructionsLength: 0
SplineSet
99 1336 m 1,0,-1
 99 1126 l 1,1,-1
 681 1126 l 1,2,-1
 92 172 l 1,3,-1
 92 0 l 1,4,-1
 1030 0 l 1,5,-1
 1030 216 l 1,6,-1
 462 216 l 1,7,-1
 1021 1150 l 1,8,-1
 1021 1336 l 1,9,-1
 99 1336 l 1,0,-1
EndSplineSet
EndUndoOperation
EndUndoes
Redoes
EndRedoes
EndUndoRedoHistory
Fore
SplineSet
99 1336 m 1,0,-1
 1021 1336 l 1,1,-1
 1021 1150 l 1,2,-1
 462 216 l 1,3,-1
 1030 216 l 1,4,-1
 1030 0 l 1,5,-1
 92 0 l 1,6,-1
 92 172 l 1,7,-1
 681 1126 l 1,8,-1
 99 1126 l 1,9,-1
 99 1336 l 1,0,-1
EndSplineSet
EndChar

StartChar: bracketleft
Encoding: 91 91 61
Width: 702
GlyphClass: 2
Flags: W
LayerCount: 2
UndoRedoHistory
Layer: 1
Undoes
UndoOperation
Index: 0
Type: 1
WasModified: 0
WasOrder2: 1
Width: 702
VWidth: 2048
LBearingChange: 0
UnicodeEnc: 0
InstructionsLength: 0
SplineSet
419 1200 m 1,0,-1
 419 -56 l 1,1,-1
 606 -56 l 1,2,-1
 606 -237 l 1,3,-1
 174 -237 l 1,4,-1
 174 1380 l 1,5,-1
 606 1380 l 1,6,-1
 606 1200 l 1,7,-1
 419 1200 l 1,0,-1
EndSplineSet
EndUndoOperation
UndoOperation
Index: 1
Type: 1
WasModified: 0
WasOrder2: 1
Width: 702
VWidth: 2048
LBearingChange: 0
UnicodeEnc: 0
InstructionsLength: 0
SplineSet
419 1200 m 1,0,-1
 419 -56 l 1,1,-1
 606 -56 l 1,2,-1
 606 -237 l 1,3,-1
 174 -237 l 1,4,-1
 174 1380 l 1,5,-1
 606 1380 l 1,6,-1
 606 1200 l 1,7,-1
 419 1200 l 1,0,-1
EndSplineSet
EndUndoOperation
EndUndoes
Redoes
EndRedoes
EndUndoRedoHistory
Fore
SplineSet
419 1200 m 1,0,-1
 419 -56 l 1,1,-1
 606 -56 l 1,2,-1
 606 -237 l 1,3,-1
 174 -237 l 1,4,-1
 174 1380 l 1,5,-1
 606 1380 l 1,6,-1
 606 1200 l 1,7,-1
 419 1200 l 1,0,-1
EndSplineSet
EndChar

StartChar: backslash
Encoding: 92 92 62
Width: 788
GlyphClass: 2
Flags: W
LayerCount: 2
UndoRedoHistory
Layer: 1
Undoes
UndoOperation
Index: 0
Type: 1
WasModified: 0
WasOrder2: 1
Width: 788
VWidth: 2048
LBearingChange: 0
UnicodeEnc: 0
InstructionsLength: 0
SplineSet
569 -54 m 1,0,-1
 18 1339 l 1,1,-1
 244 1339 l 1,2,-1
 795 -54 l 1,3,-1
 569 -54 l 1,0,-1
EndSplineSet
EndUndoOperation
UndoOperation
Index: 1
Type: 1
WasModified: 0
WasOrder2: 1
Width: 788
VWidth: 2048
LBearingChange: 0
UnicodeEnc: 0
InstructionsLength: 0
SplineSet
569 -54 m 1,0,-1
 18 1339 l 1,1,-1
 244 1339 l 1,2,-1
 795 -54 l 1,3,-1
 569 -54 l 1,0,-1
EndSplineSet
EndUndoOperation
EndUndoes
Redoes
EndRedoes
EndUndoRedoHistory
Fore
SplineSet
569 -54 m 1,0,-1
 18 1339 l 1,1,-1
 244 1339 l 1,2,-1
 795 -54 l 1,3,-1
 569 -54 l 1,0,-1
EndSplineSet
EndChar

StartChar: bracketright
Encoding: 93 93 63
Width: 703
GlyphClass: 2
Flags: W
LayerCount: 2
UndoRedoHistory
Layer: 1
Undoes
UndoOperation
Index: 0
Type: 1
WasModified: 0
WasOrder2: 1
Width: 703
VWidth: 2048
LBearingChange: 0
UnicodeEnc: 0
InstructionsLength: 0
SplineSet
96 1200 m 1,0,-1
 96 1380 l 1,1,-1
 529 1380 l 1,2,-1
 529 -237 l 1,3,-1
 96 -237 l 1,4,-1
 96 -56 l 1,5,-1
 283 -56 l 1,6,-1
 283 1200 l 1,7,-1
 96 1200 l 1,0,-1
EndSplineSet
EndUndoOperation
UndoOperation
Index: 1
Type: 1
WasModified: 0
WasOrder2: 1
Width: 703
VWidth: 2048
LBearingChange: 0
UnicodeEnc: 0
InstructionsLength: 0
SplineSet
96 1200 m 1,0,-1
 96 1380 l 1,1,-1
 529 1380 l 1,2,-1
 529 -237 l 1,3,-1
 96 -237 l 1,4,-1
 96 -56 l 1,5,-1
 283 -56 l 1,6,-1
 283 1200 l 1,7,-1
 96 1200 l 1,0,-1
EndSplineSet
EndUndoOperation
EndUndoes
Redoes
EndRedoes
EndUndoRedoHistory
Fore
SplineSet
96 1200 m 1,0,-1
 96 1380 l 1,1,-1
 529 1380 l 1,2,-1
 529 -237 l 1,3,-1
 96 -237 l 1,4,-1
 96 -56 l 1,5,-1
 283 -56 l 1,6,-1
 283 1200 l 1,7,-1
 96 1200 l 1,0,-1
EndSplineSet
EndChar

StartChar: asciicircum
Encoding: 94 94 64
Width: 1011
GlyphClass: 2
Flags: W
LayerCount: 2
UndoRedoHistory
Layer: 1
Undoes
UndoOperation
Index: 0
Type: 1
WasModified: 0
WasOrder2: 1
Width: 1011
VWidth: 2048
LBearingChange: 0
UnicodeEnc: 0
InstructionsLength: 0
SplineSet
22 491 m 1,0,-1
 441 1347 l 1,1,-1
 566 1347 l 1,2,-1
 1011 491 l 1,3,-1
 802 491 l 1,4,-1
 505 1075 l 1,5,-1
 231 491 l 1,6,-1
 22 491 l 1,0,-1
EndSplineSet
EndUndoOperation
UndoOperation
Index: 1
Type: 1
WasModified: 0
WasOrder2: 1
Width: 1011
VWidth: 2048
LBearingChange: 0
UnicodeEnc: 0
InstructionsLength: 0
SplineSet
22 491 m 1,0,-1
 441 1347 l 1,1,-1
 566 1347 l 1,2,-1
 1011 491 l 1,3,-1
 802 491 l 1,4,-1
 505 1075 l 1,5,-1
 231 491 l 1,6,-1
 22 491 l 1,0,-1
EndSplineSet
EndUndoOperation
EndUndoes
Redoes
EndRedoes
EndUndoRedoHistory
Fore
SplineSet
22 491 m 1,0,-1
 441 1347 l 1,1,-1
 566 1347 l 1,2,-1
 1011 491 l 1,3,-1
 802 491 l 1,4,-1
 505 1075 l 1,5,-1
 231 491 l 1,6,-1
 22 491 l 1,0,-1
EndSplineSet
EndChar

StartChar: underscore
Encoding: 95 95 65
Width: 1012
GlyphClass: 2
Flags: W
LayerCount: 2
UndoRedoHistory
Layer: 1
Undoes
UndoOperation
Index: 0
Type: 1
WasModified: 0
WasOrder2: 1
Width: 1012
VWidth: 2048
LBearingChange: 0
UnicodeEnc: 0
InstructionsLength: 0
SplineSet
59 -273 m 1,0,-1
 59 -98 l 1,1,-1
 973 -98 l 1,2,-1
 973 -273 l 1,3,-1
 59 -273 l 1,0,-1
EndSplineSet
EndUndoOperation
UndoOperation
Index: 1
Type: 1
WasModified: 0
WasOrder2: 1
Width: 1012
VWidth: 2048
LBearingChange: 0
UnicodeEnc: 0
InstructionsLength: 0
SplineSet
59 -273 m 1,0,-1
 59 -98 l 1,1,-1
 973 -98 l 1,2,-1
 973 -273 l 1,3,-1
 59 -273 l 1,0,-1
EndSplineSet
EndUndoOperation
EndUndoes
Redoes
EndRedoes
EndUndoRedoHistory
Fore
SplineSet
59 -273 m 1,0,-1
 59 -98 l 1,1,-1
 973 -98 l 1,2,-1
 973 -273 l 1,3,-1
 59 -273 l 1,0,-1
EndSplineSet
EndChar

StartChar: grave
Encoding: 96 96 66
Width: 447
GlyphClass: 2
Flags: W
LayerCount: 2
UndoRedoHistory
Layer: 1
Undoes
UndoOperation
Index: 0
Type: 1
WasModified: 0
WasOrder2: 1
Width: 447
VWidth: 2048
LBearingChange: 0
UnicodeEnc: 0
InstructionsLength: 0
SplineSet
291 1081 m 1,0,-1
 -20 1442 l 1,1,-1
 279 1442 l 1,2,-1
 456 1081 l 1,3,-1
 291 1081 l 1,0,-1
EndSplineSet
EndUndoOperation
UndoOperation
Index: 1
Type: 1
WasModified: 0
WasOrder2: 1
Width: 447
VWidth: 2048
LBearingChange: 0
UnicodeEnc: 0
InstructionsLength: 0
SplineSet
291 1081 m 1,0,-1
 -20 1442 l 1,1,-1
 279 1442 l 1,2,-1
 456 1081 l 1,3,-1
 291 1081 l 1,0,-1
EndSplineSet
EndUndoOperation
EndUndoes
Redoes
EndRedoes
EndUndoRedoHistory
Fore
SplineSet
291 1081 m 1,0,-1
 -20 1442 l 1,1,-1
 279 1442 l 1,2,-1
 456 1081 l 1,3,-1
 291 1081 l 1,0,-1
EndSplineSet
EndChar

StartChar: a
Encoding: 97 97 67
Width: 1072
GlyphClass: 2
Flags: W
LayerCount: 2
UndoRedoHistory
Layer: 1
Undoes
UndoOperation
Index: 0
Type: 1
WasModified: 0
WasOrder2: 1
Width: 1072
VWidth: 2048
LBearingChange: 0
UnicodeEnc: 0
InstructionsLength: 0
SplineSet
483 162 m 0,0,1
 555 162 555 162 609.5 202 c 128,-1,2
 664 242 664 242 681 281 c 1,3,-1
 681 482 l 1,4,5
 661 480 661 480 602 473 c 1,6,7
 473 462 473 462 416.5 418.5 c 128,-1,8
 360 375 360 375 360 287 c 0,9,10
 360 162 360 162 483 162 c 0,0,1
423 -18 m 0,11,12
 283 -18 283 -18 193.5 59 c 128,-1,13
 104 136 104 136 104 284 c 0,14,15
 104 445 104 445 207.5 522.5 c 128,-1,16
 311 600 311 600 512 621 c 1,17,18
 656 638 656 638 682 641 c 1,19,-1
 682 689 l 2,20,21
 682 776 682 776 645.5 814 c 128,-1,22
 609 852 609 852 531 852 c 0,23,24
 468 852 468 852 374 830 c 128,-1,25
 280 808 280 808 202 776 c 1,26,27
 200 780 200 780 186 823 c 128,-1,28
 172 866 172 866 158.5 906.5 c 128,-1,29
 145 947 145 947 142 953 c 1,30,31
 351 1041 351 1041 557 1041 c 0,32,33
 756 1041 756 1041 846.5 950.5 c 128,-1,34
 937 860 937 860 937 660 c 2,35,-1
 937 0 l 1,36,-1
 747 0 l 1,37,38
 747 2 747 2 732 67 c 128,-1,39
 717 132 717 132 712 153 c 1,40,41
 658 73 658 73 590 27.5 c 128,-1,42
 522 -18 522 -18 423 -18 c 0,11,12
EndSplineSet
EndUndoOperation
UndoOperation
Index: 1
Type: 1
WasModified: 0
WasOrder2: 1
Width: 1072
VWidth: 2048
LBearingChange: 0
UnicodeEnc: 0
InstructionsLength: 0
SplineSet
483 162 m 0,0,1
 360 162 360 162 360 287 c 0,2,3
 360 375 360 375 416.5 418.5 c 128,-1,4
 473 462 473 462 602 473 c 1,5,6
 661 480 661 480 681 482 c 1,7,-1
 681 281 l 1,8,9
 664 242 664 242 609.5 202 c 128,-1,10
 555 162 555 162 483 162 c 0,0,1
423 -18 m 0,11,12
 522 -18 522 -18 590 27.5 c 128,-1,13
 658 73 658 73 712 153 c 1,14,15
 717 132 717 132 732 67 c 128,-1,16
 747 2 747 2 747 0 c 1,17,-1
 937 0 l 1,18,-1
 937 660 l 2,19,20
 937 860 937 860 846.5 950.5 c 128,-1,21
 756 1041 756 1041 557 1041 c 0,22,23
 351 1041 351 1041 142 953 c 1,24,25
 145 947 145 947 158.5 906.5 c 128,-1,26
 172 866 172 866 186 823 c 128,-1,27
 200 780 200 780 202 776 c 1,28,29
 280 808 280 808 374 830 c 128,-1,30
 468 852 468 852 531 852 c 0,31,32
 609 852 609 852 645.5 814 c 128,-1,33
 682 776 682 776 682 689 c 2,34,-1
 682 641 l 1,35,36
 656 638 656 638 512 621 c 1,37,38
 311 600 311 600 207.5 522.5 c 128,-1,39
 104 445 104 445 104 284 c 0,40,41
 104 136 104 136 193.5 59 c 128,-1,42
 283 -18 283 -18 423 -18 c 0,11,12
EndSplineSet
EndUndoOperation
EndUndoes
Redoes
EndRedoes
EndUndoRedoHistory
Fore
SplineSet
483 162 m 0,0,1
 555 162 555 162 609.5 202 c 128,-1,2
 664 242 664 242 681 281 c 1,3,-1
 681 482 l 1,4,5
 661 480 661 480 602 473 c 1,6,7
 473 462 473 462 416.5 418.5 c 128,-1,8
 360 375 360 375 360 287 c 0,9,10
 360 162 360 162 483 162 c 0,0,1
423 -18 m 0,11,12
 283 -18 283 -18 193.5 59 c 128,-1,13
 104 136 104 136 104 284 c 0,14,15
 104 445 104 445 207.5 522.5 c 128,-1,16
 311 600 311 600 512 621 c 1,17,18
 656 638 656 638 682 641 c 1,19,-1
 682 689 l 2,20,21
 682 776 682 776 645.5 814 c 128,-1,22
 609 852 609 852 531 852 c 0,23,24
 468 852 468 852 374 830 c 128,-1,25
 280 808 280 808 202 776 c 1,26,27
 200 780 200 780 186 823 c 128,-1,28
 172 866 172 866 158.5 906.5 c 128,-1,29
 145 947 145 947 142 953 c 1,30,31
 351 1041 351 1041 557 1041 c 0,32,33
 756 1041 756 1041 846.5 950.5 c 128,-1,34
 937 860 937 860 937 660 c 2,35,-1
 937 0 l 1,36,-1
 747 0 l 1,37,38
 747 2 747 2 732 67 c 128,-1,39
 717 132 717 132 712 153 c 1,40,41
 658 73 658 73 590 27.5 c 128,-1,42
 522 -18 522 -18 423 -18 c 0,11,12
EndSplineSet
EndChar

StartChar: b
Encoding: 98 98 68
Width: 1181
GlyphClass: 2
Flags: W
LayerCount: 2
UndoRedoHistory
Layer: 1
Undoes
UndoOperation
Index: 0
Type: 1
WasModified: 0
WasOrder2: 1
Width: 1181
VWidth: 2048
LBearingChange: 0
UnicodeEnc: 0
InstructionsLength: 0
SplineSet
604 179 m 0,0,1
 701 179 701 179 758.5 265 c 128,-1,2
 816 351 816 351 816 516 c 128,-1,3
 816 681 816 681 760.5 763 c 128,-1,4
 705 845 705 845 607 845 c 0,5,6
 385 845 385 845 382 527 c 1,7,8
 382 345 382 345 438 262 c 128,-1,9
 494 179 494 179 604 179 c 0,0,1
661 -18 m 0,10,11
 567 -18 567 -18 491.5 23 c 128,-1,12
 416 64 416 64 372 127 c 1,13,-1
 352 1 l 1,14,-1
 131 1 l 1,15,-1
 131 1376 l 1,16,-1
 387 1393 l 1,17,-1
 387 1079 l 2,18,19
 387 1050 387 1050 384.5 989.5 c 128,-1,20
 382 929 382 929 381 908 c 1,21,22
 492 1041 492 1041 665 1041 c 0,23,24
 855 1041 855 1041 963.5 895.5 c 128,-1,25
 1072 750 1072 750 1072 519 c 0,26,27
 1072 279 1072 279 960.5 130.5 c 128,-1,28
 849 -18 849 -18 661 -18 c 0,10,11
EndSplineSet
EndUndoOperation
UndoOperation
Index: 1
Type: 1
WasModified: 0
WasOrder2: 1
Width: 1181
VWidth: 2048
LBearingChange: 0
UnicodeEnc: 0
InstructionsLength: 0
SplineSet
604 179 m 0,0,1
 494 179 494 179 438 262 c 128,-1,2
 382 345 382 345 382 527 c 1,3,4
 385 845 385 845 607 845 c 0,5,6
 705 845 705 845 760.5 763 c 128,-1,7
 816 681 816 681 816 516 c 128,-1,8
 816 351 816 351 758.5 265 c 128,-1,9
 701 179 701 179 604 179 c 0,0,1
661 -18 m 0,10,11
 849 -18 849 -18 960.5 130.5 c 128,-1,12
 1072 279 1072 279 1072 519 c 0,13,14
 1072 750 1072 750 963.5 895.5 c 128,-1,15
 855 1041 855 1041 665 1041 c 0,16,17
 492 1041 492 1041 381 908 c 1,18,19
 382 929 382 929 384.5 989.5 c 128,-1,20
 387 1050 387 1050 387 1079 c 2,21,-1
 387 1393 l 1,22,-1
 131 1376 l 1,23,-1
 131 1 l 1,24,-1
 352 1 l 1,25,-1
 372 127 l 1,26,27
 416 64 416 64 491.5 23 c 128,-1,28
 567 -18 567 -18 661 -18 c 0,10,11
EndSplineSet
EndUndoOperation
EndUndoes
Redoes
EndRedoes
EndUndoRedoHistory
Fore
SplineSet
604 179 m 0,0,1
 701 179 701 179 758.5 265 c 128,-1,2
 816 351 816 351 816 516 c 128,-1,3
 816 681 816 681 760.5 763 c 128,-1,4
 705 845 705 845 607 845 c 0,5,6
 385 845 385 845 382 527 c 1,7,8
 382 345 382 345 438 262 c 128,-1,9
 494 179 494 179 604 179 c 0,0,1
661 -18 m 0,10,11
 567 -18 567 -18 491.5 23 c 128,-1,12
 416 64 416 64 372 127 c 1,13,-1
 352 1 l 1,14,-1
 131 1 l 1,15,-1
 131 1376 l 1,16,-1
 387 1393 l 1,17,-1
 387 1079 l 2,18,19
 387 1050 387 1050 384.5 989.5 c 128,-1,20
 382 929 382 929 381 908 c 1,21,22
 492 1041 492 1041 665 1041 c 0,23,24
 855 1041 855 1041 963.5 895.5 c 128,-1,25
 1072 750 1072 750 1072 519 c 0,26,27
 1072 279 1072 279 960.5 130.5 c 128,-1,28
 849 -18 849 -18 661 -18 c 0,10,11
EndSplineSet
EndChar

StartChar: c
Encoding: 99 99 69
Width: 966
GlyphClass: 2
Flags: W
LayerCount: 2
UndoRedoHistory
Layer: 1
Undoes
UndoOperation
Index: 0
Type: 1
WasModified: 0
WasOrder2: 1
Width: 966
VWidth: 2048
LBearingChange: 0
UnicodeEnc: 0
InstructionsLength: 0
SplineSet
591 -18 m 0,0,1
 367 -18 367 -18 238 121 c 128,-1,2
 109 260 109 260 109 516 c 0,3,4
 109 764 109 764 244 902.5 c 128,-1,5
 379 1041 379 1041 594 1041 c 0,6,7
 764 1041 764 1041 895 959 c 1,8,-1
 835 781 l 1,9,10
 827 784 827 784 805 796.5 c 128,-1,11
 783 809 783 809 765 817 c 128,-1,12
 747 825 747 825 709 832.5 c 128,-1,13
 671 840 671 840 624 840 c 1,14,15
 508 834 508 834 436.5 752.5 c 128,-1,16
 365 671 365 671 365 513 c 0,17,18
 365 354 365 354 433.5 271.5 c 128,-1,19
 502 189 502 189 617 183 c 0,20,21
 728 177 728 177 852 247 c 1,22,-1
 885 64 l 1,23,24
 881 62 881 62 860 48.5 c 128,-1,25
 839 35 839 35 819.5 26 c 128,-1,26
 800 17 800 17 767.5 5.5 c 128,-1,27
 735 -6 735 -6 690 -12 c 128,-1,28
 645 -18 645 -18 591 -18 c 0,0,1
EndSplineSet
EndUndoOperation
UndoOperation
Index: 1
Type: 1
WasModified: 0
WasOrder2: 1
Width: 966
VWidth: 2048
LBearingChange: 0
UnicodeEnc: 0
InstructionsLength: 0
SplineSet
591 -18 m 0,0,1
 367 -18 367 -18 238 121 c 128,-1,2
 109 260 109 260 109 516 c 0,3,4
 109 764 109 764 244 902.5 c 128,-1,5
 379 1041 379 1041 594 1041 c 0,6,7
 764 1041 764 1041 895 959 c 1,8,-1
 835 781 l 1,9,10
 827 784 827 784 805 796.5 c 128,-1,11
 783 809 783 809 765 817 c 128,-1,12
 747 825 747 825 709 832.5 c 128,-1,13
 671 840 671 840 624 840 c 1,14,15
 508 834 508 834 436.5 752.5 c 128,-1,16
 365 671 365 671 365 513 c 0,17,18
 365 354 365 354 433.5 271.5 c 128,-1,19
 502 189 502 189 617 183 c 0,20,21
 728 177 728 177 852 247 c 1,22,-1
 885 64 l 1,23,24
 881 62 881 62 860 48.5 c 128,-1,25
 839 35 839 35 819.5 26 c 128,-1,26
 800 17 800 17 767.5 5.5 c 128,-1,27
 735 -6 735 -6 690 -12 c 128,-1,28
 645 -18 645 -18 591 -18 c 0,0,1
EndSplineSet
EndUndoOperation
EndUndoes
Redoes
EndRedoes
EndUndoRedoHistory
Fore
SplineSet
591 -18 m 0,0,1
 367 -18 367 -18 238 121 c 128,-1,2
 109 260 109 260 109 516 c 0,3,4
 109 764 109 764 244 902.5 c 128,-1,5
 379 1041 379 1041 594 1041 c 0,6,7
 764 1041 764 1041 895 959 c 1,8,-1
 835 781 l 1,9,10
 827 784 827 784 805 796.5 c 128,-1,11
 783 809 783 809 765 817 c 128,-1,12
 747 825 747 825 709 832.5 c 128,-1,13
 671 840 671 840 624 840 c 1,14,15
 508 834 508 834 436.5 752.5 c 128,-1,16
 365 671 365 671 365 513 c 0,17,18
 365 354 365 354 433.5 271.5 c 128,-1,19
 502 189 502 189 617 183 c 0,20,21
 728 177 728 177 852 247 c 1,22,-1
 885 64 l 1,23,24
 881 62 881 62 860 48.5 c 128,-1,25
 839 35 839 35 819.5 26 c 128,-1,26
 800 17 800 17 767.5 5.5 c 128,-1,27
 735 -6 735 -6 690 -12 c 128,-1,28
 645 -18 645 -18 591 -18 c 0,0,1
EndSplineSet
EndChar

StartChar: d
Encoding: 100 100 70
Width: 1181
GlyphClass: 2
Flags: W
LayerCount: 2
UndoRedoHistory
Layer: 1
Undoes
UndoOperation
Index: 0
Type: 1
WasModified: 0
WasOrder2: 1
Width: 1181
VWidth: 2048
LBearingChange: 0
UnicodeEnc: 0
InstructionsLength: 0
SplineSet
581 179 m 0,0,1
 689 179 689 179 746.5 254.5 c 128,-1,2
 804 330 804 330 805 497 c 1,3,4
 805 680 805 680 748 761.5 c 128,-1,5
 691 843 691 843 579 843 c 0,6,7
 481 843 481 843 423 760.5 c 128,-1,8
 365 678 365 678 365 512 c 0,9,10
 365 347 365 347 423 263 c 128,-1,11
 481 179 481 179 581 179 c 0,0,1
525 -17 m 0,12,13
 332 -17 332 -17 220.5 129.5 c 128,-1,14
 109 276 109 276 109 517 c 0,15,16
 109 753 109 753 220 897 c 128,-1,17
 331 1041 331 1041 525 1041 c 0,18,19
 710 1041 710 1041 802 920 c 1,20,21
 794 1006 794 1006 794 1052 c 2,22,-1
 794 1376 l 1,23,-1
 1050 1393 l 1,24,-1
 1050 0 l 1,25,-1
 830 0 l 1,26,-1
 806 117 l 1,27,28
 720 -17 720 -17 525 -17 c 0,12,13
EndSplineSet
EndUndoOperation
UndoOperation
Index: 1
Type: 1
WasModified: 0
WasOrder2: 1
Width: 1181
VWidth: 2048
LBearingChange: 0
UnicodeEnc: 0
InstructionsLength: 0
SplineSet
581 179 m 0,0,1
 481 179 481 179 423 263 c 128,-1,2
 365 347 365 347 365 512 c 0,3,4
 365 678 365 678 423 760.5 c 128,-1,5
 481 843 481 843 579 843 c 0,6,7
 691 843 691 843 748 761.5 c 128,-1,8
 805 680 805 680 805 497 c 1,9,10
 804 330 804 330 746.5 254.5 c 128,-1,11
 689 179 689 179 581 179 c 0,0,1
525 -17 m 0,12,13
 720 -17 720 -17 806 117 c 1,14,-1
 830 0 l 1,15,-1
 1050 0 l 1,16,-1
 1050 1393 l 1,17,-1
 794 1376 l 1,18,-1
 794 1052 l 2,19,20
 794 1006 794 1006 802 920 c 1,21,22
 710 1041 710 1041 525 1041 c 0,23,24
 331 1041 331 1041 220 897 c 128,-1,25
 109 753 109 753 109 517 c 0,26,27
 109 276 109 276 220.5 129.5 c 128,-1,28
 332 -17 332 -17 525 -17 c 0,12,13
EndSplineSet
EndUndoOperation
EndUndoes
Redoes
EndRedoes
EndUndoRedoHistory
Fore
SplineSet
581 179 m 0,0,1
 689 179 689 179 746.5 254.5 c 128,-1,2
 804 330 804 330 805 497 c 1,3,4
 805 680 805 680 748 761.5 c 128,-1,5
 691 843 691 843 579 843 c 0,6,7
 481 843 481 843 423 760.5 c 128,-1,8
 365 678 365 678 365 512 c 0,9,10
 365 347 365 347 423 263 c 128,-1,11
 481 179 481 179 581 179 c 0,0,1
525 -17 m 0,12,13
 332 -17 332 -17 220.5 129.5 c 128,-1,14
 109 276 109 276 109 517 c 0,15,16
 109 753 109 753 220 897 c 128,-1,17
 331 1041 331 1041 525 1041 c 0,18,19
 710 1041 710 1041 802 920 c 1,20,21
 794 1006 794 1006 794 1052 c 2,22,-1
 794 1376 l 1,23,-1
 1050 1393 l 1,24,-1
 1050 0 l 1,25,-1
 830 0 l 1,26,-1
 806 117 l 1,27,28
 720 -17 720 -17 525 -17 c 0,12,13
EndSplineSet
EndChar

StartChar: e
Encoding: 101 101 71
Width: 1113
GlyphClass: 2
Flags: W
LayerCount: 2
UndoRedoHistory
Layer: 1
Undoes
UndoOperation
Index: 0
Type: 1
WasModified: 0
WasOrder2: 1
Width: 1113
VWidth: 2048
LBearingChange: 0
UnicodeEnc: 0
InstructionsLength: 0
SplineSet
613 -18 m 0,0,1
 377 -18 377 -18 243 123.5 c 128,-1,2
 109 265 109 265 109 512 c 0,3,4
 109 752 109 752 235 896 c 128,-1,5
 361 1040 361 1040 576 1041 c 0,6,7
 781 1041 781 1041 894.5 908 c 128,-1,8
 1008 775 1008 775 1008 558 c 0,9,10
 1008 543 1008 543 1001 448 c 1,11,-1
 368 448 l 1,12,13
 388 174 388 174 637 174 c 0,14,15
 667 174 667 174 695.5 176.5 c 128,-1,16
 724 179 724 179 746 182 c 128,-1,17
 768 185 768 185 792 191 c 128,-1,18
 816 197 816 197 830.5 201 c 128,-1,19
 845 205 845 205 865 213 c 128,-1,20
 885 221 885 221 892 224 c 128,-1,21
 899 227 899 227 916 235 c 128,-1,22
 933 243 933 243 934 243 c 2,23,-1
 969 63 l 1,24,25
 899 18 899 18 816 0 c 128,-1,26
 733 -18 733 -18 613 -18 c 0,0,1
374 613 m 1,27,28
 768 613 l 1,29,30
 765 724 765 724 714.5 789 c 128,-1,31
 664 854 664 854 577 854 c 0,32,33
 497 854 497 854 442.5 792 c 128,-1,34
 388 730 388 730 374 613 c 1,27,28
EndSplineSet
EndUndoOperation
UndoOperation
Index: 1
Type: 1
WasModified: 0
WasOrder2: 1
Width: 1113
VWidth: 2048
LBearingChange: 0
UnicodeEnc: 0
InstructionsLength: 0
SplineSet
613 -18 m 0,0,1
 733 -18 733 -18 816 0 c 128,-1,2
 899 18 899 18 969 63 c 1,3,-1
 934 243 l 2,4,5
 933 243 933 243 916 235 c 128,-1,6
 899 227 899 227 892 224 c 128,-1,7
 885 221 885 221 865 213 c 128,-1,8
 845 205 845 205 830.5 201 c 128,-1,9
 816 197 816 197 792 191 c 128,-1,10
 768 185 768 185 746 182 c 128,-1,11
 724 179 724 179 695.5 176.5 c 128,-1,12
 667 174 667 174 637 174 c 0,13,14
 388 174 388 174 368 448 c 1,15,-1
 1001 448 l 1,16,17
 1008 543 1008 543 1008 558 c 0,18,19
 1008 775 1008 775 894.5 908 c 128,-1,20
 781 1041 781 1041 576 1041 c 0,21,22
 361 1040 361 1040 235 896 c 128,-1,23
 109 752 109 752 109 512 c 0,24,25
 109 265 109 265 243 123.5 c 128,-1,26
 377 -18 377 -18 613 -18 c 0,0,1
374 613 m 1,27,28
 388 730 388 730 442.5 792 c 128,-1,29
 497 854 497 854 577 854 c 0,30,31
 664 854 664 854 714.5 789 c 128,-1,32
 765 724 765 724 768 613 c 1,33,-1
 374 613 l 1,27,28
EndSplineSet
EndUndoOperation
EndUndoes
Redoes
EndRedoes
EndUndoRedoHistory
Fore
SplineSet
613 -18 m 0,0,1
 377 -18 377 -18 243 123.5 c 128,-1,2
 109 265 109 265 109 512 c 0,3,4
 109 752 109 752 235 896 c 128,-1,5
 361 1040 361 1040 576 1041 c 0,6,7
 781 1041 781 1041 894.5 908 c 128,-1,8
 1008 775 1008 775 1008 558 c 0,9,10
 1008 543 1008 543 1001 448 c 1,11,-1
 368 448 l 1,12,13
 388 174 388 174 637 174 c 0,14,15
 667 174 667 174 695.5 176.5 c 128,-1,16
 724 179 724 179 746 182 c 128,-1,17
 768 185 768 185 792 191 c 128,-1,18
 816 197 816 197 830.5 201 c 128,-1,19
 845 205 845 205 865 213 c 128,-1,20
 885 221 885 221 892 224 c 128,-1,21
 899 227 899 227 916 235 c 128,-1,22
 933 243 933 243 934 243 c 2,23,-1
 969 63 l 1,24,25
 899 18 899 18 816 0 c 128,-1,26
 733 -18 733 -18 613 -18 c 0,0,1
374 613 m 1,27,28
 768 613 l 1,29,30
 765 724 765 724 714.5 789 c 128,-1,31
 664 854 664 854 577 854 c 0,32,33
 497 854 497 854 442.5 792 c 128,-1,34
 388 730 388 730 374 613 c 1,27,28
EndSplineSet
EndChar

StartChar: f
Encoding: 102 102 72
Width: 809
GlyphClass: 2
Flags: W
LayerCount: 2
UndoRedoHistory
Layer: 1
Undoes
UndoOperation
Index: 0
Type: 1
WasModified: 0
WasOrder2: 1
Width: 809
VWidth: 2048
LBearingChange: 0
UnicodeEnc: 0
InstructionsLength: 0
SplineSet
228 0 m 1,0,-1
 228 839 l 1,1,-1
 82 839 l 1,2,-1
 87 998 l 1,3,-1
 228 1015 l 1,4,-1
 228 1061 l 2,5,6
 228 1166 228 1166 253 1238.5 c 128,-1,7
 278 1311 278 1311 326 1349.5 c 128,-1,8
 374 1388 374 1388 432.5 1404 c 128,-1,9
 491 1420 491 1420 569 1420 c 0,10,11
 659 1420 659 1420 757 1401 c 1,12,13
 734 1208 l 1,14,15
 668 1219 668 1219 615 1219 c 0,16,17
 546 1219 546 1219 515 1191 c 128,-1,18
 484 1163 484 1163 484 1074 c 2,19,-1
 484 1016 l 1,20,-1
 712 1016 l 1,21,-1
 712 839 l 1,22,-1
 484 839 l 1,23,-1
 484 0 l 1,24,-1
 228 0 l 1,0,-1
EndSplineSet
EndUndoOperation
UndoOperation
Index: 1
Type: 1
WasModified: 0
WasOrder2: 1
Width: 809
VWidth: 2048
LBearingChange: 0
UnicodeEnc: 0
InstructionsLength: 0
SplineSet
228 0 m 1,0,-1
 484 0 l 1,1,-1
 484 839 l 1,2,-1
 712 839 l 1,3,-1
 712 1016 l 1,4,-1
 484 1016 l 1,5,-1
 484 1074 l 2,6,7
 484 1163 484 1163 515 1191 c 128,-1,8
 546 1219 546 1219 615 1219 c 0,9,10
 668 1219 668 1219 734 1208 c 1,11,-1
 757 1401 l 1,12,13
 659 1420 659 1420 569 1420 c 0,14,15
 491 1420 491 1420 432.5 1404 c 128,-1,16
 374 1388 374 1388 326 1349.5 c 128,-1,17
 278 1311 278 1311 253 1238.5 c 128,-1,18
 228 1166 228 1166 228 1061 c 2,19,-1
 228 1015 l 1,20,-1
 87 998 l 1,21,-1
 82 839 l 1,22,-1
 228 839 l 1,23,-1
 228 0 l 1,0,-1
EndSplineSet
EndUndoOperation
EndUndoes
Redoes
EndRedoes
EndUndoRedoHistory
Fore
SplineSet
228 0 m 1,0,-1
 228 839 l 1,1,-1
 82 839 l 1,2,-1
 87 998 l 1,3,-1
 228 1015 l 1,4,-1
 228 1061 l 2,5,6
 228 1166 228 1166 253 1238.5 c 128,-1,7
 278 1311 278 1311 326 1349.5 c 128,-1,8
 374 1388 374 1388 432.5 1404 c 128,-1,9
 491 1420 491 1420 569 1420 c 0,10,11
 659 1420 659 1420 757 1401 c 1,12,13
 734 1208 l 1,14,15
 668 1219 668 1219 615 1219 c 0,16,17
 546 1219 546 1219 515 1191 c 128,-1,18
 484 1163 484 1163 484 1074 c 2,19,-1
 484 1016 l 1,20,-1
 712 1016 l 1,21,-1
 712 839 l 1,22,-1
 484 839 l 1,23,-1
 484 0 l 1,24,-1
 228 0 l 1,0,-1
EndSplineSet
EndChar

StartChar: g
Encoding: 103 103 73
Width: 1185
GlyphClass: 2
Flags: W
LayerCount: 2
UndoRedoHistory
Layer: 1
Undoes
UndoOperation
Index: 0
Type: 1
WasModified: 0
WasOrder2: 1
Width: 1185
VWidth: 2048
LBearingChange: 0
UnicodeEnc: 0
InstructionsLength: 0
SplineSet
515 -439 m 0,0,1
 362 -439 362 -439 263 -402 c 1,2,-1
 279 -207 l 1,3,4
 297 -209 297 -209 332.5 -217.5 c 128,-1,5
 368 -226 368 -226 406.5 -231.5 c 128,-1,6
 445 -237 445 -237 490 -237 c 0,7,8
 644 -237 644 -237 721 -145 c 128,-1,9
 798 -53 798 -53 798 87 c 0,10,11
 798 131 798 131 795 156 c 1,12,13
 765 87 765 87 695.5 43.5 c 128,-1,14
 626 0 626 0 527 0 c 0,15,16
 334 0 334 0 221.5 143 c 128,-1,17
 109 286 109 286 109 519 c 0,18,19
 109 762 109 762 231 901.5 c 128,-1,20
 353 1041 353 1041 536 1041 c 0,21,22
 638 1041 638 1041 701.5 1008 c 128,-1,23
 765 975 765 975 806 893 c 1,24,-1
 819 1017 l 1,25,-1
 1046 1017 l 1,26,-1
 1046 185 l 2,27,28
 1046 77 1046 77 1027.5 -15 c 128,-1,29
 1009 -107 1009 -107 968 -186 c 128,-1,30
 927 -265 927 -265 866 -320.5 c 128,-1,31
 805 -376 805 -376 715.5 -407.5 c 128,-1,32
 626 -439 626 -439 515 -439 c 0,0,1
588 195 m 0,33,34
 650 195 650 195 692.5 217 c 128,-1,35
 735 239 735 239 758 283 c 128,-1,36
 781 327 781 327 790.5 380.5 c 128,-1,37
 800 434 800 434 801 508 c 1,38,-1
 801 536 l 2,39,40
 801 688 801 688 753.5 765 c 128,-1,41
 706 842 706 842 601 843 c 1,42,43
 481 843 481 843 423 759 c 128,-1,44
 365 675 365 675 365 526 c 0,45,46
 365 382 365 382 423 288.5 c 128,-1,47
 481 195 481 195 588 195 c 0,33,34
EndSplineSet
EndUndoOperation
UndoOperation
Index: 1
Type: 1
WasModified: 0
WasOrder2: 1
Width: 1185
VWidth: 2048
LBearingChange: 0
UnicodeEnc: 0
InstructionsLength: 0
SplineSet
515 -439 m 0,0,1
 626 -439 626 -439 715.5 -407.5 c 128,-1,2
 805 -376 805 -376 866 -320.5 c 128,-1,3
 927 -265 927 -265 968 -186 c 128,-1,4
 1009 -107 1009 -107 1027.5 -15 c 128,-1,5
 1046 77 1046 77 1046 185 c 2,6,-1
 1046 1017 l 1,7,-1
 819 1017 l 1,8,-1
 806 893 l 1,9,10
 765 975 765 975 701.5 1008 c 128,-1,11
 638 1041 638 1041 536 1041 c 0,12,13
 353 1041 353 1041 231 901.5 c 128,-1,14
 109 762 109 762 109 519 c 0,15,16
 109 286 109 286 221.5 143 c 128,-1,17
 334 0 334 0 527 0 c 0,18,19
 626 0 626 0 695.5 43.5 c 128,-1,20
 765 87 765 87 795 156 c 1,21,22
 798 131 798 131 798 87 c 0,23,24
 798 -53 798 -53 721 -145 c 128,-1,25
 644 -237 644 -237 490 -237 c 0,26,27
 445 -237 445 -237 406.5 -231.5 c 128,-1,28
 368 -226 368 -226 332.5 -217.5 c 128,-1,29
 297 -209 297 -209 279 -207 c 1,30,-1
 263 -402 l 1,31,32
 362 -439 362 -439 515 -439 c 0,0,1
588 195 m 0,33,34
 481 195 481 195 423 288.5 c 128,-1,35
 365 382 365 382 365 526 c 0,36,37
 365 675 365 675 423 759 c 128,-1,38
 481 843 481 843 601 843 c 1,39,40
 706 842 706 842 753.5 765 c 128,-1,41
 801 688 801 688 801 536 c 2,42,-1
 801 508 l 1,43,44
 800 434 800 434 790.5 380.5 c 128,-1,45
 781 327 781 327 758 283 c 128,-1,46
 735 239 735 239 692.5 217 c 128,-1,47
 650 195 650 195 588 195 c 0,33,34
EndSplineSet
EndUndoOperation
EndUndoes
Redoes
EndRedoes
EndUndoRedoHistory
Fore
SplineSet
515 -439 m 0,0,1
 362 -439 362 -439 263 -402 c 1,2,-1
 279 -207 l 1,3,4
 297 -209 297 -209 332.5 -217.5 c 128,-1,5
 368 -226 368 -226 406.5 -231.5 c 128,-1,6
 445 -237 445 -237 490 -237 c 0,7,8
 644 -237 644 -237 721 -145 c 128,-1,9
 798 -53 798 -53 798 87 c 0,10,11
 798 131 798 131 795 156 c 1,12,13
 765 87 765 87 695.5 43.5 c 128,-1,14
 626 0 626 0 527 0 c 0,15,16
 334 0 334 0 221.5 143 c 128,-1,17
 109 286 109 286 109 519 c 0,18,19
 109 762 109 762 231 901.5 c 128,-1,20
 353 1041 353 1041 536 1041 c 0,21,22
 638 1041 638 1041 701.5 1008 c 128,-1,23
 765 975 765 975 806 893 c 1,24,-1
 819 1017 l 1,25,-1
 1046 1017 l 1,26,-1
 1046 185 l 2,27,28
 1046 77 1046 77 1027.5 -15 c 128,-1,29
 1009 -107 1009 -107 968 -186 c 128,-1,30
 927 -265 927 -265 866 -320.5 c 128,-1,31
 805 -376 805 -376 715.5 -407.5 c 128,-1,32
 626 -439 626 -439 515 -439 c 0,0,1
588 195 m 0,33,34
 650 195 650 195 692.5 217 c 128,-1,35
 735 239 735 239 758 283 c 128,-1,36
 781 327 781 327 790.5 380.5 c 128,-1,37
 800 434 800 434 801 508 c 1,38,-1
 801 536 l 2,39,40
 801 688 801 688 753.5 765 c 128,-1,41
 706 842 706 842 601 843 c 1,42,43
 481 843 481 843 423 759 c 128,-1,44
 365 675 365 675 365 526 c 0,45,46
 365 382 365 382 423 288.5 c 128,-1,47
 481 195 481 195 588 195 c 0,33,34
EndSplineSet
EndChar

StartChar: h
Encoding: 104 104 74
Width: 1148
GlyphClass: 2
Flags: W
LayerCount: 2
UndoRedoHistory
Layer: 1
Undoes
UndoOperation
Index: 0
Type: 1
WasModified: 0
WasOrder2: 1
Width: 1148
VWidth: 2048
LBearingChange: 0
UnicodeEnc: 0
InstructionsLength: 0
SplineSet
131 1376 m 1,0,-1
 387 1393 l 1,1,-1
 387 1102 l 2,2,3
 387 1100 387 1100 380 918 c 1,4,5
 497 1041 497 1041 676 1041 c 0,6,7
 842 1041 842 1041 935.5 942 c 128,-1,8
 1029 843 1029 843 1029 641 c 2,9,-1
 1029 0 l 1,10,-1
 773 0 l 1,11,-1
 773 618 l 2,12,13
 773 738 773 738 739 791 c 128,-1,14
 705 844 705 844 620 844 c 0,15,16
 565 844 565 844 523.5 827 c 128,-1,17
 482 810 482 810 455.5 780 c 128,-1,18
 429 750 429 750 413 704.5 c 128,-1,19
 397 659 397 659 390.5 608 c 128,-1,20
 384 557 384 557 384 491 c 2,21,-1
 384 0 l 1,22,-1
 131 0 l 1,23,-1
 131 1376 l 1,0,-1
EndSplineSet
EndUndoOperation
UndoOperation
Index: 1
Type: 1
WasModified: 0
WasOrder2: 1
Width: 1148
VWidth: 2048
LBearingChange: 0
UnicodeEnc: 0
InstructionsLength: 0
SplineSet
131 1376 m 1,0,-1
 131 0 l 1,1,-1
 384 0 l 1,2,-1
 384 491 l 2,3,4
 384 557 384 557 390.5 608 c 128,-1,5
 397 659 397 659 413 704.5 c 128,-1,6
 429 750 429 750 455.5 780 c 128,-1,7
 482 810 482 810 523.5 827 c 128,-1,8
 565 844 565 844 620 844 c 0,9,10
 705 844 705 844 739 791 c 128,-1,11
 773 738 773 738 773 618 c 2,12,-1
 773 0 l 1,13,-1
 1029 0 l 1,14,-1
 1029 641 l 2,15,16
 1029 843 1029 843 935.5 942 c 128,-1,17
 842 1041 842 1041 676 1041 c 0,18,19
 497 1041 497 1041 380 918 c 1,20,21
 387 1100 387 1100 387 1102 c 2,22,-1
 387 1393 l 1,23,-1
 131 1376 l 1,0,-1
EndSplineSet
EndUndoOperation
EndUndoes
Redoes
EndRedoes
EndUndoRedoHistory
Fore
SplineSet
131 1376 m 1,0,-1
 387 1393 l 1,1,-1
 387 1102 l 2,2,3
 387 1100 387 1100 380 918 c 1,4,5
 497 1041 497 1041 676 1041 c 0,6,7
 842 1041 842 1041 935.5 942 c 128,-1,8
 1029 843 1029 843 1029 641 c 2,9,-1
 1029 0 l 1,10,-1
 773 0 l 1,11,-1
 773 618 l 2,12,13
 773 738 773 738 739 791 c 128,-1,14
 705 844 705 844 620 844 c 0,15,16
 565 844 565 844 523.5 827 c 128,-1,17
 482 810 482 810 455.5 780 c 128,-1,18
 429 750 429 750 413 704.5 c 128,-1,19
 397 659 397 659 390.5 608 c 128,-1,20
 384 557 384 557 384 491 c 2,21,-1
 384 0 l 1,22,-1
 131 0 l 1,23,-1
 131 1376 l 1,0,-1
EndSplineSet
EndChar

StartChar: i
Encoding: 105 105 75
Width: 596
GlyphClass: 2
Flags: W
LayerCount: 2
UndoRedoHistory
Layer: 1
Undoes
UndoOperation
Index: 0
Type: 1
WasModified: 0
WasOrder2: 1
Width: 596
VWidth: 2048
LBearingChange: 0
UnicodeEnc: 0
InstructionsLength: 0
SplineSet
159 1157 m 1,0,-1
 159 1375 l 1,1,-1
 415 1375 l 1,2,-1
 415 1157 l 1,3,-1
 159 1157 l 1,0,-1
159 0 m 1,4,-1
 159 1016 l 1,5,-1
 415 1016 l 1,6,-1
 415 0 l 1,7,-1
 159 0 l 1,4,-1
EndSplineSet
EndUndoOperation
UndoOperation
Index: 1
Type: 1
WasModified: 0
WasOrder2: 1
Width: 596
VWidth: 2048
LBearingChange: 0
UnicodeEnc: 0
InstructionsLength: 0
SplineSet
159 1157 m 1,0,-1
 159 1375 l 1,1,-1
 415 1375 l 1,2,-1
 415 1157 l 1,3,-1
 159 1157 l 1,0,-1
159 0 m 1,4,-1
 159 1016 l 1,5,-1
 415 1016 l 1,6,-1
 415 0 l 1,7,-1
 159 0 l 1,4,-1
EndSplineSet
EndUndoOperation
EndUndoes
Redoes
EndRedoes
EndUndoRedoHistory
Fore
SplineSet
159 1157 m 1,0,-1
 159 1375 l 1,1,-1
 415 1375 l 1,2,-1
 415 1157 l 1,3,-1
 159 1157 l 1,0,-1
159 0 m 1,4,-1
 159 1016 l 1,5,-1
 415 1016 l 1,6,-1
 415 0 l 1,7,-1
 159 0 l 1,4,-1
EndSplineSet
EndChar

StartChar: j
Encoding: 106 106 76
Width: 636
GlyphClass: 2
Flags: W
LayerCount: 2
UndoRedoHistory
Layer: 1
Undoes
UndoOperation
Index: 0
Type: 1
WasModified: 0
WasOrder2: 1
Width: 636
VWidth: 2048
LBearingChange: 0
UnicodeEnc: 0
InstructionsLength: 0
SplineSet
15 -379 m 1,0,-1
 -14 -187 l 1,1,-1
 48 -187 l 2,2,3
 91 -187 91 -187 118 -181.5 c 128,-1,4
 145 -176 145 -176 162.5 -165 c 128,-1,5
 180 -154 180 -154 188.5 -130.5 c 128,-1,6
 197 -107 197 -107 199.5 -79.5 c 128,-1,7
 202 -52 202 -52 202 -4 c 2,8,-1
 202 1017 l 1,9,-1
 455 1017 l 1,10,-1
 455 40 l 2,11,12
 455 -49 455 -49 446 -111.5 c 128,-1,13
 437 -174 437 -174 413 -227.5 c 128,-1,14
 389 -281 389 -281 346.5 -312.5 c 128,-1,15
 304 -344 304 -344 237 -361.5 c 128,-1,16
 170 -379 170 -379 75 -379 c 2,17,-1
 15 -379 l 1,0,-1
202 1157 m 1,18,-1
 202 1375 l 1,19,-1
 455 1375 l 1,20,-1
 455 1157 l 1,21,-1
 202 1157 l 1,18,-1
EndSplineSet
EndUndoOperation
UndoOperation
Index: 1
Type: 1
WasModified: 0
WasOrder2: 1
Width: 636
VWidth: 2048
LBearingChange: 0
UnicodeEnc: 0
InstructionsLength: 0
SplineSet
15 -379 m 1,0,-1
 75 -379 l 2,1,2
 170 -379 170 -379 237 -361.5 c 128,-1,3
 304 -344 304 -344 346.5 -312.5 c 128,-1,4
 389 -281 389 -281 413 -227.5 c 128,-1,5
 437 -174 437 -174 446 -111.5 c 128,-1,6
 455 -49 455 -49 455 40 c 2,7,-1
 455 1017 l 1,8,-1
 202 1017 l 1,9,-1
 202 -4 l 2,10,11
 202 -52 202 -52 199.5 -79.5 c 128,-1,12
 197 -107 197 -107 188.5 -130.5 c 128,-1,13
 180 -154 180 -154 162.5 -165 c 128,-1,14
 145 -176 145 -176 118 -181.5 c 128,-1,15
 91 -187 91 -187 48 -187 c 2,16,-1
 -14 -187 l 1,17,-1
 15 -379 l 1,0,-1
202 1157 m 1,18,-1
 455 1157 l 1,19,-1
 455 1375 l 1,20,-1
 202 1375 l 1,21,-1
 202 1157 l 1,18,-1
EndSplineSet
EndUndoOperation
EndUndoes
Redoes
EndRedoes
EndUndoRedoHistory
Fore
SplineSet
15 -379 m 1,0,-1
 -14 -187 l 1,1,-1
 48 -187 l 2,2,3
 91 -187 91 -187 118 -181.5 c 128,-1,4
 145 -176 145 -176 162.5 -165 c 128,-1,5
 180 -154 180 -154 188.5 -130.5 c 128,-1,6
 197 -107 197 -107 199.5 -79.5 c 128,-1,7
 202 -52 202 -52 202 -4 c 2,8,-1
 202 1017 l 1,9,-1
 455 1017 l 1,10,-1
 455 40 l 2,11,12
 455 -49 455 -49 446 -111.5 c 128,-1,13
 437 -174 437 -174 413 -227.5 c 128,-1,14
 389 -281 389 -281 346.5 -312.5 c 128,-1,15
 304 -344 304 -344 237 -361.5 c 128,-1,16
 170 -379 170 -379 75 -379 c 2,17,-1
 15 -379 l 1,0,-1
202 1157 m 1,18,-1
 202 1375 l 1,19,-1
 455 1375 l 1,20,-1
 455 1157 l 1,21,-1
 202 1157 l 1,18,-1
EndSplineSet
EndChar

StartChar: k
Encoding: 107 107 77
Width: 1113
GlyphClass: 2
Flags: W
LayerCount: 2
UndoRedoHistory
Layer: 1
Undoes
UndoOperation
Index: 0
Type: 1
WasModified: 0
WasOrder2: 1
Width: 1113
VWidth: 2048
LBearingChange: 0
UnicodeEnc: 0
InstructionsLength: 0
SplineSet
132 1376 m 1,0,-1
 388 1392 l 1,1,-1
 388 785 l 1,2,-1
 383 582 l 1,3,-1
 745 1016 l 1,4,-1
 1068 1016 l 1,5,-1
 679 555 l 1,6,-1
 1096 0 l 1,7,-1
 784 0 l 1,8,-1
 469 422 l 1,9,-1
 388 354 l 1,10,-1
 388 0 l 1,11,-1
 132 0 l 1,12,-1
 132 1376 l 1,0,-1
EndSplineSet
EndUndoOperation
UndoOperation
Index: 1
Type: 1
WasModified: 0
WasOrder2: 1
Width: 1113
VWidth: 2048
LBearingChange: 0
UnicodeEnc: 0
InstructionsLength: 0
SplineSet
132 1376 m 1,0,-1
 388 1392 l 1,1,-1
 388 785 l 1,2,-1
 383 582 l 1,3,-1
 745 1016 l 1,4,-1
 1068 1016 l 1,5,-1
 679 555 l 1,6,-1
 1096 0 l 1,7,-1
 784 0 l 1,8,-1
 469 422 l 1,9,-1
 388 354 l 1,10,-1
 388 0 l 1,11,-1
 132 0 l 1,12,-1
 132 1376 l 1,0,-1
EndSplineSet
EndUndoOperation
EndUndoes
Redoes
EndRedoes
EndUndoRedoHistory
Fore
SplineSet
132 1376 m 1,0,-1
 388 1392 l 1,1,-1
 388 785 l 1,2,-1
 383 582 l 1,3,-1
 745 1016 l 1,4,-1
 1068 1016 l 1,5,-1
 679 555 l 1,6,-1
 1096 0 l 1,7,-1
 784 0 l 1,8,-1
 469 422 l 1,9,-1
 388 354 l 1,10,-1
 388 0 l 1,11,-1
 132 0 l 1,12,-1
 132 1376 l 1,0,-1
EndSplineSet
EndChar

StartChar: l
Encoding: 108 108 78
Width: 715
GlyphClass: 2
Flags: W
LayerCount: 2
UndoRedoHistory
Layer: 1
Undoes
UndoOperation
Index: 0
Type: 1
WasModified: 0
WasOrder2: 1
Width: 715
VWidth: 2048
LBearingChange: 0
UnicodeEnc: 0
InstructionsLength: 0
SplineSet
482 -13 m 0,0,1
 399 -13 399 -13 340 4 c 128,-1,2
 281 21 281 21 242.5 52.5 c 128,-1,3
 204 84 204 84 182 136 c 128,-1,4
 160 188 160 188 151 251 c 128,-1,5
 142 314 142 314 142 401 c 2,6,-1
 142 1376 l 1,7,-1
 398 1393 l 1,8,-1
 398 404 l 2,9,10
 398 306 398 306 411.5 256.5 c 128,-1,11
 425 207 425 207 448.5 192.5 c 128,-1,12
 472 178 472 178 518 178 c 1,13,-1
 601 187 l 1,14,-1
 632 7 l 1,15,16
 627 5 627 5 607.5 0.5 c 128,-1,17
 588 -4 588 -4 552 -8.5 c 128,-1,18
 516 -13 516 -13 482 -13 c 0,0,1
EndSplineSet
EndUndoOperation
UndoOperation
Index: 1
Type: 1
WasModified: 0
WasOrder2: 1
Width: 715
VWidth: 2048
LBearingChange: 0
UnicodeEnc: 0
InstructionsLength: 0
SplineSet
482 -13 m 0,0,1
 516 -13 516 -13 552 -8.5 c 128,-1,2
 588 -4 588 -4 607.5 0.5 c 128,-1,3
 627 5 627 5 632 7 c 1,4,-1
 601 187 l 1,5,-1
 518 178 l 1,6,7
 472 178 472 178 448.5 192.5 c 128,-1,8
 425 207 425 207 411.5 256.5 c 128,-1,9
 398 306 398 306 398 404 c 2,10,-1
 398 1393 l 1,11,-1
 142 1376 l 1,12,-1
 142 401 l 2,13,14
 142 314 142 314 151 251 c 128,-1,15
 160 188 160 188 182 136 c 128,-1,16
 204 84 204 84 242.5 52.5 c 128,-1,17
 281 21 281 21 340 4 c 128,-1,18
 399 -13 399 -13 482 -13 c 0,0,1
EndSplineSet
EndUndoOperation
EndUndoes
Redoes
EndRedoes
EndUndoRedoHistory
Fore
SplineSet
482 -13 m 0,0,1
 399 -13 399 -13 340 4 c 128,-1,2
 281 21 281 21 242.5 52.5 c 128,-1,3
 204 84 204 84 182 136 c 128,-1,4
 160 188 160 188 151 251 c 128,-1,5
 142 314 142 314 142 401 c 2,6,-1
 142 1376 l 1,7,-1
 398 1393 l 1,8,-1
 398 404 l 2,9,10
 398 306 398 306 411.5 256.5 c 128,-1,11
 425 207 425 207 448.5 192.5 c 128,-1,12
 472 178 472 178 518 178 c 1,13,-1
 601 187 l 1,14,-1
 632 7 l 1,15,16
 627 5 627 5 607.5 0.5 c 128,-1,17
 588 -4 588 -4 552 -8.5 c 128,-1,18
 516 -13 516 -13 482 -13 c 0,0,1
EndSplineSet
EndChar

StartChar: m
Encoding: 109 109 79
Width: 1754
GlyphClass: 2
Flags: W
LayerCount: 2
UndoRedoHistory
Layer: 1
Undoes
UndoOperation
Index: 0
Type: 1
WasModified: 0
WasOrder2: 1
Width: 1754
VWidth: 2048
LBearingChange: 0
UnicodeEnc: 0
InstructionsLength: 0
SplineSet
387 494 m 2,0,1
 387 0 l 1,2,-1
 131 0 l 1,3,-1
 131 1016 l 1,4,-1
 339 1016 l 1,5,-1
 363 903 l 1,6,7
 480 1041 480 1041 681 1041 c 0,8,9
 792 1041 792 1041 861.5 998 c 128,-1,10
 931 955 931 955 965 892 c 1,11,12
 1020 963 1020 963 1101.5 1002 c 128,-1,13
 1183 1041 1183 1041 1282 1041 c 0,14,15
 1456 1041 1456 1041 1545.5 938.5 c 128,-1,16
 1635 836 1635 836 1635 646 c 2,17,-1
 1635 0 l 1,18,-1
 1379 0 l 1,19,-1
 1379 579 l 2,20,21
 1379 718 1379 718 1343 781 c 128,-1,22
 1307 844 1307 844 1222 844 c 0,23,24
 1038 844 1038 844 1009 596 c 1,25,-1
 1009 0 l 1,26,-1
 753 0 l 1,27,-1
 753 590 l 2,28,29
 753 720 753 720 720.5 782 c 128,-1,30
 688 844 688 844 604 844 c 0,31,32
 550 844 550 844 510.5 826 c 128,-1,33
 471 808 471 808 447.5 779 c 128,-1,34
 424 750 424 750 410 703.5 c 128,-1,35
 396 657 396 657 391.5 608 c 128,-1,36
 387 559 387 559 387 494 c 2,0,1
EndSplineSet
EndUndoOperation
UndoOperation
Index: 1
Type: 1
WasModified: 0
WasOrder2: 1
Width: 1754
VWidth: 2048
LBearingChange: 0
UnicodeEnc: 0
InstructionsLength: 0
SplineSet
387 494 m 2,0,1
 387 559 387 559 391.5 608 c 128,-1,2
 396 657 396 657 410 703.5 c 128,-1,3
 424 750 424 750 447.5 779 c 128,-1,4
 471 808 471 808 510.5 826 c 128,-1,5
 550 844 550 844 604 844 c 0,6,7
 688 844 688 844 720.5 782 c 128,-1,8
 753 720 753 720 753 590 c 2,9,-1
 753 0 l 1,10,-1
 1009 0 l 1,11,-1
 1009 596 l 1,12,13
 1038 844 1038 844 1222 844 c 0,14,15
 1307 844 1307 844 1343 781 c 128,-1,16
 1379 718 1379 718 1379 579 c 2,17,-1
 1379 0 l 1,18,-1
 1635 0 l 1,19,-1
 1635 646 l 2,20,21
 1635 836 1635 836 1545.5 938.5 c 128,-1,22
 1456 1041 1456 1041 1282 1041 c 0,23,24
 1183 1041 1183 1041 1101.5 1002 c 128,-1,25
 1020 963 1020 963 965 892 c 1,26,27
 931 955 931 955 861.5 998 c 128,-1,28
 792 1041 792 1041 681 1041 c 0,29,30
 480 1041 480 1041 363 903 c 1,31,-1
 339 1016 l 1,32,-1
 131 1016 l 1,33,-1
 131 0 l 1,34,-1
 387 0 l 1,35,-1
 387 494 l 2,0,1
EndSplineSet
EndUndoOperation
EndUndoes
Redoes
EndRedoes
EndUndoRedoHistory
Fore
SplineSet
387 494 m 2,0,1
 387 0 l 1,2,-1
 131 0 l 1,3,-1
 131 1016 l 1,4,-1
 339 1016 l 1,5,-1
 363 903 l 1,6,7
 480 1041 480 1041 681 1041 c 0,8,9
 792 1041 792 1041 861.5 998 c 128,-1,10
 931 955 931 955 965 892 c 1,11,12
 1020 963 1020 963 1101.5 1002 c 128,-1,13
 1183 1041 1183 1041 1282 1041 c 0,14,15
 1456 1041 1456 1041 1545.5 938.5 c 128,-1,16
 1635 836 1635 836 1635 646 c 2,17,-1
 1635 0 l 1,18,-1
 1379 0 l 1,19,-1
 1379 579 l 2,20,21
 1379 718 1379 718 1343 781 c 128,-1,22
 1307 844 1307 844 1222 844 c 0,23,24
 1038 844 1038 844 1009 596 c 1,25,-1
 1009 0 l 1,26,-1
 753 0 l 1,27,-1
 753 590 l 2,28,29
 753 720 753 720 720.5 782 c 128,-1,30
 688 844 688 844 604 844 c 0,31,32
 550 844 550 844 510.5 826 c 128,-1,33
 471 808 471 808 447.5 779 c 128,-1,34
 424 750 424 750 410 703.5 c 128,-1,35
 396 657 396 657 391.5 608 c 128,-1,36
 387 559 387 559 387 494 c 2,0,1
EndSplineSet
EndChar

StartChar: n
Encoding: 110 110 80
Width: 1151
GlyphClass: 2
Flags: W
LayerCount: 2
UndoRedoHistory
Layer: 1
Undoes
UndoOperation
Index: 0
Type: 1
WasModified: 0
WasOrder2: 1
Width: 1151
VWidth: 2048
LBearingChange: 0
UnicodeEnc: 0
InstructionsLength: 0
SplineSet
131 0 m 1,0,-1
 131 1016 l 1,1,-1
 339 1016 l 1,2,-1
 363 902 l 1,3,4
 507 1041 507 1041 684 1041 c 0,5,6
 857 1041 857 1041 944.5 936.5 c 128,-1,7
 1032 832 1032 832 1032 640 c 2,8,-1
 1032 0 l 1,9,-1
 776 0 l 1,10,-1
 776 612 l 1,11,12
 775 732 775 732 742 788 c 128,-1,13
 709 844 709 844 619 844 c 0,14,15
 548 844 548 844 501 820.5 c 128,-1,16
 454 797 454 797 429.5 748.5 c 128,-1,17
 405 700 405 700 396 641 c 128,-1,18
 387 582 387 582 387 496 c 2,19,-1
 387 0 l 1,20,-1
 131 0 l 1,0,-1
EndSplineSet
EndUndoOperation
UndoOperation
Index: 1
Type: 1
WasModified: 0
WasOrder2: 1
Width: 1151
VWidth: 2048
LBearingChange: 0
UnicodeEnc: 0
InstructionsLength: 0
SplineSet
131 0 m 1,0,-1
 387 0 l 1,1,-1
 387 496 l 2,2,3
 387 582 387 582 396 641 c 128,-1,4
 405 700 405 700 429.5 748.5 c 128,-1,5
 454 797 454 797 501 820.5 c 128,-1,6
 548 844 548 844 619 844 c 0,7,8
 709 844 709 844 742 788 c 128,-1,9
 775 732 775 732 776 612 c 1,10,-1
 776 0 l 1,11,-1
 1032 0 l 1,12,-1
 1032 640 l 2,13,14
 1032 832 1032 832 944.5 936.5 c 128,-1,15
 857 1041 857 1041 684 1041 c 0,16,17
 507 1041 507 1041 363 902 c 1,18,-1
 339 1016 l 1,19,-1
 131 1016 l 1,20,-1
 131 0 l 1,0,-1
EndSplineSet
EndUndoOperation
EndUndoes
Redoes
EndRedoes
EndUndoRedoHistory
Fore
SplineSet
131 0 m 1,0,-1
 131 1016 l 1,1,-1
 339 1016 l 1,2,-1
 363 902 l 1,3,4
 507 1041 507 1041 684 1041 c 0,5,6
 857 1041 857 1041 944.5 936.5 c 128,-1,7
 1032 832 1032 832 1032 640 c 2,8,-1
 1032 0 l 1,9,-1
 776 0 l 1,10,-1
 776 612 l 1,11,12
 775 732 775 732 742 788 c 128,-1,13
 709 844 709 844 619 844 c 0,14,15
 548 844 548 844 501 820.5 c 128,-1,16
 454 797 454 797 429.5 748.5 c 128,-1,17
 405 700 405 700 396 641 c 128,-1,18
 387 582 387 582 387 496 c 2,19,-1
 387 0 l 1,20,-1
 131 0 l 1,0,-1
EndSplineSet
EndChar

StartChar: o
Encoding: 111 111 81
Width: 1178
GlyphClass: 2
Flags: W
LayerCount: 2
UndoRedoHistory
Layer: 1
Undoes
UndoOperation
Index: 0
Type: 1
WasModified: 0
WasOrder2: 1
Width: 1178
VWidth: 2048
LBearingChange: 0
UnicodeEnc: 0
InstructionsLength: 0
SplineSet
589 178 m 128,-1,1
 813 178 813 178 813 512 c 0,2,3
 813 844 813 844 589 844 c 128,-1,4
 365 844 365 844 365 511 c 128,-1,0
 365 178 365 178 589 178 c 128,-1,1
589 -18 m 0,5,6
 368 -18 368 -18 238.5 126 c 128,-1,7
 109 270 109 270 109 512 c 0,8,9
 109 762 109 762 234 901.5 c 128,-1,10
 359 1041 359 1041 589 1041 c 0,11,12
 811 1041 811 1041 940 898 c 128,-1,13
 1069 755 1069 755 1069 512 c 0,14,15
 1069 264 1069 264 943.5 123 c 128,-1,16
 818 -18 818 -18 589 -18 c 0,5,6
EndSplineSet
EndUndoOperation
UndoOperation
Index: 1
Type: 1
WasModified: 0
WasOrder2: 1
Width: 1178
VWidth: 2048
LBearingChange: 0
UnicodeEnc: 0
InstructionsLength: 0
SplineSet
589 178 m 128,-1,1
 365 178 365 178 365 511 c 128,-1,2
 365 844 365 844 589 844 c 128,-1,3
 813 844 813 844 813 512 c 0,4,0
 813 178 813 178 589 178 c 128,-1,1
589 -18 m 0,5,6
 818 -18 818 -18 943.5 123 c 128,-1,7
 1069 264 1069 264 1069 512 c 0,8,9
 1069 755 1069 755 940 898 c 128,-1,10
 811 1041 811 1041 589 1041 c 0,11,12
 359 1041 359 1041 234 901.5 c 128,-1,13
 109 762 109 762 109 512 c 0,14,15
 109 270 109 270 238.5 126 c 128,-1,16
 368 -18 368 -18 589 -18 c 0,5,6
EndSplineSet
EndUndoOperation
EndUndoes
Redoes
EndRedoes
EndUndoRedoHistory
Fore
SplineSet
589 178 m 128,-1,1
 813 178 813 178 813 512 c 0,2,3
 813 844 813 844 589 844 c 128,-1,4
 365 844 365 844 365 511 c 128,-1,0
 365 178 365 178 589 178 c 128,-1,1
589 -18 m 0,5,6
 368 -18 368 -18 238.5 126 c 128,-1,7
 109 270 109 270 109 512 c 0,8,9
 109 762 109 762 234 901.5 c 128,-1,10
 359 1041 359 1041 589 1041 c 0,11,12
 811 1041 811 1041 940 898 c 128,-1,13
 1069 755 1069 755 1069 512 c 0,14,15
 1069 264 1069 264 943.5 123 c 128,-1,16
 818 -18 818 -18 589 -18 c 0,5,6
EndSplineSet
EndChar

StartChar: p
Encoding: 112 112 82
Width: 1185
GlyphClass: 2
Flags: W
LayerCount: 2
UndoRedoHistory
Layer: 1
Undoes
UndoOperation
Index: 0
Type: 1
WasModified: 0
WasOrder2: 1
Width: 1185
VWidth: 2048
LBearingChange: 0
UnicodeEnc: 0
InstructionsLength: 0
SplineSet
610 179 m 0,0,1
 707 179 707 179 763.5 265 c 128,-1,2
 820 351 820 351 820 515 c 0,3,4
 820 682 820 682 763 763 c 128,-1,5
 706 844 706 844 606 844 c 0,6,7
 388 844 388 844 385 530 c 1,8,9
 385 345 385 345 441.5 262 c 128,-1,10
 498 179 498 179 610 179 c 0,0,1
131 1016 m 1,11,-1
 352 1016 l 1,12,-1
 374 906 l 1,13,14
 421 962 421 962 504.5 1001.5 c 128,-1,15
 588 1041 588 1041 679 1041 c 0,16,17
 800 1041 800 1041 891 970 c 128,-1,18
 982 899 982 899 1029 779.5 c 128,-1,19
 1076 660 1076 660 1076 513 c 0,20,21
 1076 360 1076 360 1026.5 240 c 128,-1,22
 977 120 977 120 881 51 c 128,-1,23
 785 -18 785 -18 658 -18 c 0,24,25
 492 -18 492 -18 382 99 c 1,26,27
 387 24 387 24 387 -15 c 2,28,-1
 387 -395 l 1,29,-1
 131 -408 l 1,30,-1
 131 1016 l 1,11,-1
EndSplineSet
EndUndoOperation
UndoOperation
Index: 1
Type: 1
WasModified: 0
WasOrder2: 1
Width: 1185
VWidth: 2048
LBearingChange: 0
UnicodeEnc: 0
InstructionsLength: 0
SplineSet
610 179 m 0,0,1
 707 179 707 179 763.5 265 c 128,-1,2
 820 351 820 351 820 515 c 0,3,4
 820 682 820 682 763 763 c 128,-1,5
 706 844 706 844 606 844 c 0,6,7
 388 844 388 844 385 530 c 1,8,9
 385 345 385 345 441.5 262 c 128,-1,10
 498 179 498 179 610 179 c 0,0,1
131 1016 m 1,11,-1
 352 1016 l 1,12,-1
 374 906 l 1,13,14
 421 962 421 962 504.5 1001.5 c 128,-1,15
 588 1041 588 1041 679 1041 c 0,16,17
 800 1041 800 1041 891 970 c 128,-1,18
 982 899 982 899 1029 779.5 c 128,-1,19
 1076 660 1076 660 1076 513 c 0,20,21
 1076 360 1076 360 1026.5 240 c 128,-1,22
 977 120 977 120 881 51 c 128,-1,23
 785 -18 785 -18 658 -18 c 0,24,25
 492 -18 492 -18 382 99 c 1,26,27
 387 24 387 24 387 -15 c 2,28,-1
 387 -395 l 1,29,-1
 131 -408 l 1,30,-1
 131 1016 l 1,11,-1
EndSplineSet
EndUndoOperation
EndUndoes
Redoes
EndRedoes
EndUndoRedoHistory
Fore
SplineSet
610 179 m 0,0,1
 707 179 707 179 763.5 265 c 128,-1,2
 820 351 820 351 820 515 c 0,3,4
 820 682 820 682 763 763 c 128,-1,5
 706 844 706 844 606 844 c 0,6,7
 388 844 388 844 385 530 c 1,8,9
 385 345 385 345 441.5 262 c 128,-1,10
 498 179 498 179 610 179 c 0,0,1
131 1016 m 1,11,-1
 352 1016 l 1,12,-1
 374 906 l 1,13,14
 421 962 421 962 504.5 1001.5 c 128,-1,15
 588 1041 588 1041 679 1041 c 0,16,17
 800 1041 800 1041 891 970 c 128,-1,18
 982 899 982 899 1029 779.5 c 128,-1,19
 1076 660 1076 660 1076 513 c 0,20,21
 1076 360 1076 360 1026.5 240 c 128,-1,22
 977 120 977 120 881 51 c 128,-1,23
 785 -18 785 -18 658 -18 c 0,24,25
 492 -18 492 -18 382 99 c 1,26,27
 387 24 387 24 387 -15 c 2,28,-1
 387 -395 l 1,29,-1
 131 -408 l 1,30,-1
 131 1016 l 1,11,-1
EndSplineSet
EndChar

StartChar: q
Encoding: 113 113 83
Width: 1186
GlyphClass: 2
Flags: W
LayerCount: 2
UndoRedoHistory
Layer: 1
Undoes
UndoOperation
Index: 0
Type: 1
WasModified: 0
WasOrder2: 1
Width: 1186
VWidth: 2048
LBearingChange: 0
UnicodeEnc: 0
InstructionsLength: 0
SplineSet
586 177 m 0,0,1
 694 177 694 177 750.5 252 c 128,-1,2
 807 327 807 327 809 495 c 1,3,4
 809 678 809 678 752 760.5 c 128,-1,5
 695 843 695 843 583 843 c 0,6,7
 483 843 483 843 424 761 c 128,-1,8
 365 679 365 679 365 511 c 0,9,10
 365 345 365 345 424 261 c 128,-1,11
 483 177 483 177 586 177 c 0,0,1
1055 1016 m 1,12,-1
 1055 -393 l 1,13,-1
 799 -408 l 1,14,-1
 799 16 l 2,15,16
 799 53 799 53 802 107 c 1,17,18
 712 -18 712 -18 540 -18 c 0,19,20
 347 -18 347 -18 228 130 c 128,-1,21
 109 278 109 278 109 513 c 0,22,23
 109 747 109 747 223 894 c 128,-1,24
 337 1041 337 1041 536 1041 c 0,25,26
 712 1041 712 1041 814 907 c 1,27,-1
 830 1016 l 1,28,-1
 1055 1016 l 1,12,-1
EndSplineSet
EndUndoOperation
UndoOperation
Index: 1
Type: 1
WasModified: 0
WasOrder2: 1
Width: 1186
VWidth: 2048
LBearingChange: 0
UnicodeEnc: 0
InstructionsLength: 0
SplineSet
586 177 m 0,0,1
 483 177 483 177 424 261 c 128,-1,2
 365 345 365 345 365 511 c 0,3,4
 365 679 365 679 424 761 c 128,-1,5
 483 843 483 843 583 843 c 0,6,7
 695 843 695 843 752 760.5 c 128,-1,8
 809 678 809 678 809 495 c 1,9,10
 807 327 807 327 750.5 252 c 128,-1,11
 694 177 694 177 586 177 c 0,0,1
1055 1016 m 1,12,-1
 830 1016 l 1,13,-1
 814 907 l 1,14,15
 712 1041 712 1041 536 1041 c 0,16,17
 337 1041 337 1041 223 894 c 128,-1,18
 109 747 109 747 109 513 c 0,19,20
 109 278 109 278 228 130 c 128,-1,21
 347 -18 347 -18 540 -18 c 0,22,23
 712 -18 712 -18 802 107 c 1,24,25
 799 53 799 53 799 16 c 2,26,-1
 799 -408 l 1,27,-1
 1055 -393 l 1,28,-1
 1055 1016 l 1,12,-1
EndSplineSet
EndUndoOperation
EndUndoes
Redoes
EndRedoes
EndUndoRedoHistory
Fore
SplineSet
586 177 m 0,0,1
 694 177 694 177 750.5 252 c 128,-1,2
 807 327 807 327 809 495 c 1,3,4
 809 678 809 678 752 760.5 c 128,-1,5
 695 843 695 843 583 843 c 0,6,7
 483 843 483 843 424 761 c 128,-1,8
 365 679 365 679 365 511 c 0,9,10
 365 345 365 345 424 261 c 128,-1,11
 483 177 483 177 586 177 c 0,0,1
1055 1016 m 1,12,-1
 1055 -393 l 1,13,-1
 799 -408 l 1,14,-1
 799 16 l 2,15,16
 799 53 799 53 802 107 c 1,17,18
 712 -18 712 -18 540 -18 c 0,19,20
 347 -18 347 -18 228 130 c 128,-1,21
 109 278 109 278 109 513 c 0,22,23
 109 747 109 747 223 894 c 128,-1,24
 337 1041 337 1041 536 1041 c 0,25,26
 712 1041 712 1041 814 907 c 1,27,-1
 830 1016 l 1,28,-1
 1055 1016 l 1,12,-1
EndSplineSet
EndChar

StartChar: r
Encoding: 114 114 84
Width: 736
GlyphClass: 2
Flags: W
LayerCount: 2
UndoRedoHistory
Layer: 1
Undoes
UndoOperation
Index: 0
Type: 1
WasModified: 0
WasOrder2: 1
Width: 736
VWidth: 2048
LBearingChange: 0
UnicodeEnc: 0
InstructionsLength: 0
SplineSet
131 1016 m 1,0,-1
 347 1016 l 1,1,-1
 375 860 l 1,2,3
 425 931 425 931 499.5 976 c 128,-1,4
 574 1021 574 1021 659 1021 c 0,5,6
 703 1021 703 1021 730 1015 c 1,7,-1
 726 799 l 1,8,9
 682 807 682 807 642 807 c 0,10,11
 516 807 516 807 451.5 739 c 128,-1,12
 387 671 387 671 387 551 c 2,13,-1
 387 0 l 1,14,-1
 131 0 l 1,15,-1
 131 1016 l 1,0,-1
EndSplineSet
EndUndoOperation
UndoOperation
Index: 1
Type: 1
WasModified: 0
WasOrder2: 1
Width: 736
VWidth: 2048
LBearingChange: 0
UnicodeEnc: 0
InstructionsLength: 0
SplineSet
131 1016 m 1,0,-1
 347 1016 l 1,1,-1
 375 860 l 1,2,3
 425 931 425 931 499.5 976 c 128,-1,4
 574 1021 574 1021 659 1021 c 0,5,6
 703 1021 703 1021 730 1015 c 1,7,-1
 726 799 l 1,8,9
 682 807 682 807 642 807 c 0,10,11
 516 807 516 807 451.5 739 c 128,-1,12
 387 671 387 671 387 551 c 2,13,-1
 387 0 l 1,14,-1
 131 0 l 1,15,-1
 131 1016 l 1,0,-1
EndSplineSet
EndUndoOperation
EndUndoes
Redoes
EndRedoes
EndUndoRedoHistory
Fore
SplineSet
131 1016 m 1,0,-1
 347 1016 l 1,1,-1
 375 860 l 1,2,3
 425 931 425 931 499.5 976 c 128,-1,4
 574 1021 574 1021 659 1021 c 0,5,6
 703 1021 703 1021 730 1015 c 1,7,-1
 726 799 l 1,8,9
 682 807 682 807 642 807 c 0,10,11
 516 807 516 807 451.5 739 c 128,-1,12
 387 671 387 671 387 551 c 2,13,-1
 387 0 l 1,14,-1
 131 0 l 1,15,-1
 131 1016 l 1,0,-1
EndSplineSet
EndChar

StartChar: s
Encoding: 115 115 85
Width: 987
GlyphClass: 2
Flags: W
LayerCount: 2
UndoRedoHistory
Layer: 1
Undoes
UndoOperation
Index: 0
Type: 1
WasModified: 0
WasOrder2: 1
Width: 987
VWidth: 2048
LBearingChange: 0
UnicodeEnc: 0
InstructionsLength: 0
SplineSet
517 -17 m 0,0,1
 448 -17 448 -17 380.5 -2 c 128,-1,2
 313 13 313 13 265.5 35.5 c 128,-1,3
 218 58 218 58 191 73.5 c 128,-1,4
 164 89 164 89 151 99 c 1,5,-1
 197 277 l 1,6,7
 262 234 262 234 354.5 199.5 c 128,-1,8
 447 165 447 165 517 167 c 0,9,10
 589 169 589 169 620 195 c 128,-1,11
 651 221 651 221 653 275 c 0,12,13
 653 289 653 289 650 300 c 128,-1,14
 647 311 647 311 636.5 322 c 128,-1,15
 626 333 626 333 618 340.5 c 128,-1,16
 610 348 610 348 589.5 359.5 c 128,-1,17
 569 371 569 371 556.5 377 c 128,-1,18
 544 383 544 383 513 398 c 128,-1,19
 482 413 482 413 465 421 c 2,20,-1
 412 447 l 1,21,22
 273 511 273 511 217.5 572 c 128,-1,23
 162 633 162 633 161 748 c 1,24,25
 161 890 161 890 257 965.5 c 128,-1,26
 353 1041 353 1041 526 1041 c 0,27,28
 689 1041 689 1041 867 953 c 1,29,-1
 808 781 l 1,30,31
 658 854 658 854 535 854 c 0,32,33
 392 854 392 854 392 768 c 0,34,35
 392 731 392 731 419.5 710.5 c 128,-1,36
 447 690 447 690 534 652 c 0,37,38
 556 642 556 642 568 637 c 2,39,-1
 624 612 l 2,40,41
 695 581 695 581 740.5 554 c 128,-1,42
 786 527 786 527 824.5 491 c 128,-1,43
 863 455 863 455 881 410 c 128,-1,44
 899 365 899 365 899 306 c 0,45,46
 899 151 899 151 799.5 67 c 128,-1,47
 700 -17 700 -17 517 -17 c 0,0,1
EndSplineSet
EndUndoOperation
UndoOperation
Index: 1
Type: 1
WasModified: 0
WasOrder2: 1
Width: 987
VWidth: 2048
LBearingChange: 0
UnicodeEnc: 0
InstructionsLength: 0
SplineSet
517 -17 m 0,0,1
 448 -17 448 -17 380.5 -2 c 128,-1,2
 313 13 313 13 265.5 35.5 c 128,-1,3
 218 58 218 58 191 73.5 c 128,-1,4
 164 89 164 89 151 99 c 1,5,-1
 197 277 l 1,6,7
 262 234 262 234 354.5 199.5 c 128,-1,8
 447 165 447 165 517 167 c 0,9,10
 589 169 589 169 620 195 c 128,-1,11
 651 221 651 221 653 275 c 0,12,13
 653 289 653 289 650 300 c 128,-1,14
 647 311 647 311 636.5 322 c 128,-1,15
 626 333 626 333 618 340.5 c 128,-1,16
 610 348 610 348 589.5 359.5 c 128,-1,17
 569 371 569 371 556.5 377 c 128,-1,18
 544 383 544 383 513 398 c 128,-1,19
 482 413 482 413 465 421 c 2,20,-1
 412 447 l 1,21,22
 273 511 273 511 217.5 572 c 128,-1,23
 162 633 162 633 161 748 c 1,24,25
 161 890 161 890 257 965.5 c 128,-1,26
 353 1041 353 1041 526 1041 c 0,27,28
 689 1041 689 1041 867 953 c 1,29,-1
 808 781 l 1,30,31
 658 854 658 854 535 854 c 0,32,33
 392 854 392 854 392 768 c 0,34,35
 392 731 392 731 419.5 710.5 c 128,-1,36
 447 690 447 690 534 652 c 0,37,38
 556 642 556 642 568 637 c 2,39,-1
 624 612 l 2,40,41
 695 581 695 581 740.5 554 c 128,-1,42
 786 527 786 527 824.5 491 c 128,-1,43
 863 455 863 455 881 410 c 128,-1,44
 899 365 899 365 899 306 c 0,45,46
 899 151 899 151 799.5 67 c 128,-1,47
 700 -17 700 -17 517 -17 c 0,0,1
EndSplineSet
EndUndoOperation
EndUndoes
Redoes
EndRedoes
EndUndoRedoHistory
Fore
SplineSet
517 -17 m 0,0,1
 448 -17 448 -17 380.5 -2 c 128,-1,2
 313 13 313 13 265.5 35.5 c 128,-1,3
 218 58 218 58 191 73.5 c 128,-1,4
 164 89 164 89 151 99 c 1,5,-1
 197 277 l 1,6,7
 262 234 262 234 354.5 199.5 c 128,-1,8
 447 165 447 165 517 167 c 0,9,10
 589 169 589 169 620 195 c 128,-1,11
 651 221 651 221 653 275 c 0,12,13
 653 289 653 289 650 300 c 128,-1,14
 647 311 647 311 636.5 322 c 128,-1,15
 626 333 626 333 618 340.5 c 128,-1,16
 610 348 610 348 589.5 359.5 c 128,-1,17
 569 371 569 371 556.5 377 c 128,-1,18
 544 383 544 383 513 398 c 128,-1,19
 482 413 482 413 465 421 c 2,20,-1
 412 447 l 1,21,22
 273 511 273 511 217.5 572 c 128,-1,23
 162 633 162 633 161 748 c 1,24,25
 161 890 161 890 257 965.5 c 128,-1,26
 353 1041 353 1041 526 1041 c 0,27,28
 689 1041 689 1041 867 953 c 1,29,-1
 808 781 l 1,30,31
 658 854 658 854 535 854 c 0,32,33
 392 854 392 854 392 768 c 0,34,35
 392 731 392 731 419.5 710.5 c 128,-1,36
 447 690 447 690 534 652 c 0,37,38
 556 642 556 642 568 637 c 2,39,-1
 624 612 l 2,40,41
 695 581 695 581 740.5 554 c 128,-1,42
 786 527 786 527 824.5 491 c 128,-1,43
 863 455 863 455 881 410 c 128,-1,44
 899 365 899 365 899 306 c 0,45,46
 899 151 899 151 799.5 67 c 128,-1,47
 700 -17 700 -17 517 -17 c 0,0,1
EndSplineSet
EndChar

StartChar: t
Encoding: 116 116 86
Width: 823
GlyphClass: 2
Flags: W
LayerCount: 2
UndoRedoHistory
Layer: 1
Undoes
UndoOperation
Index: 0
Type: 1
WasModified: 0
WasOrder2: 1
Width: 823
VWidth: 2048
LBearingChange: 0
UnicodeEnc: 0
InstructionsLength: 0
SplineSet
567 -13 m 0,0,1
 372 -13 372 -13 288 86.5 c 128,-1,2
 204 186 204 186 203 392 c 1,3,-1
 203 853 l 1,4,-1
 42 853 l 1,5,-1
 56 1004 l 1,6,-1
 219 1016 l 1,7,-1
 277 1268 l 1,8,-1
 459 1268 l 1,9,-1
 459 1016 l 1,10,-1
 734 1016 l 1,11,-1
 734 852 l 1,12,-1
 459 852 l 1,13,-1
 459 386 l 2,14,15
 459 269 459 269 500 220.5 c 128,-1,16
 541 172 541 172 620 172 c 0,17,18
 647 172 647 172 676.5 176 c 128,-1,19
 706 180 706 180 723 184.5 c 128,-1,20
 740 189 740 189 743 191 c 1,21,-1
 776 20 l 1,22,23
 767 16 767 16 742 9.5 c 128,-1,24
 717 3 717 3 665.5 -5 c 128,-1,25
 614 -13 614 -13 567 -13 c 0,0,1
EndSplineSet
EndUndoOperation
UndoOperation
Index: 1
Type: 1
WasModified: 0
WasOrder2: 1
Width: 823
VWidth: 2048
LBearingChange: 0
UnicodeEnc: 0
InstructionsLength: 0
SplineSet
567 -13 m 0,0,1
 372 -13 372 -13 288 86.5 c 128,-1,2
 204 186 204 186 203 392 c 1,3,-1
 203 853 l 1,4,-1
 42 853 l 1,5,-1
 56 1004 l 1,6,-1
 219 1016 l 1,7,-1
 277 1268 l 1,8,-1
 459 1268 l 1,9,-1
 459 1016 l 1,10,-1
 734 1016 l 1,11,-1
 734 852 l 1,12,-1
 459 852 l 1,13,-1
 459 386 l 2,14,15
 459 269 459 269 500 220.5 c 128,-1,16
 541 172 541 172 620 172 c 0,17,18
 647 172 647 172 676.5 176 c 128,-1,19
 706 180 706 180 723 184.5 c 128,-1,20
 740 189 740 189 743 191 c 1,21,-1
 776 20 l 1,22,23
 767 16 767 16 742 9.5 c 128,-1,24
 717 3 717 3 665.5 -5 c 128,-1,25
 614 -13 614 -13 567 -13 c 0,0,1
EndSplineSet
EndUndoOperation
EndUndoes
Redoes
EndRedoes
EndUndoRedoHistory
Fore
SplineSet
567 -13 m 0,0,1
 372 -13 372 -13 288 86.5 c 128,-1,2
 204 186 204 186 203 392 c 1,3,-1
 203 853 l 1,4,-1
 42 853 l 1,5,-1
 56 1004 l 1,6,-1
 219 1016 l 1,7,-1
 277 1268 l 1,8,-1
 459 1268 l 1,9,-1
 459 1016 l 1,10,-1
 734 1016 l 1,11,-1
 734 852 l 1,12,-1
 459 852 l 1,13,-1
 459 386 l 2,14,15
 459 269 459 269 500 220.5 c 128,-1,16
 541 172 541 172 620 172 c 0,17,18
 647 172 647 172 676.5 176 c 128,-1,19
 706 180 706 180 723 184.5 c 128,-1,20
 740 189 740 189 743 191 c 1,21,-1
 776 20 l 1,22,23
 767 16 767 16 742 9.5 c 128,-1,24
 717 3 717 3 665.5 -5 c 128,-1,25
 614 -13 614 -13 567 -13 c 0,0,1
EndSplineSet
EndChar

StartChar: u
Encoding: 117 117 87
Width: 1146
GlyphClass: 2
Flags: W
LayerCount: 2
UndoRedoHistory
Layer: 1
Undoes
UndoOperation
Index: 0
Type: 1
WasModified: 0
WasOrder2: 1
Width: 1146
VWidth: 2048
LBearingChange: 0
UnicodeEnc: 0
InstructionsLength: 0
SplineSet
1015 1016 m 1,0,-1
 1015 0 l 1,1,-1
 811 0 l 1,2,-1
 787 125 l 1,3,4
 654 -24 654 -24 467 -24 c 0,5,6
 294 -24 294 -24 206.5 80.5 c 128,-1,7
 119 185 119 185 119 377 c 2,8,-1
 119 1016 l 1,9,-1
 375 1016 l 1,10,-1
 375 404 l 2,11,12
 375 283 375 283 408.5 227.5 c 128,-1,13
 442 172 442 172 532 172 c 0,14,15
 590 172 590 172 631 188.5 c 128,-1,16
 672 205 672 205 697 232 c 128,-1,17
 722 259 722 259 736 305.5 c 128,-1,18
 750 352 750 352 754.5 401 c 128,-1,19
 759 450 759 450 759 520 c 2,20,-1
 759 1016 l 1,21,-1
 1015 1016 l 1,0,-1
EndSplineSet
EndUndoOperation
UndoOperation
Index: 1
Type: 1
WasModified: 0
WasOrder2: 1
Width: 1146
VWidth: 2048
LBearingChange: 0
UnicodeEnc: 0
InstructionsLength: 0
SplineSet
1015 1016 m 1,0,-1
 759 1016 l 1,1,-1
 759 520 l 2,2,3
 759 450 759 450 754.5 401 c 128,-1,4
 750 352 750 352 736 305.5 c 128,-1,5
 722 259 722 259 697 232 c 128,-1,6
 672 205 672 205 631 188.5 c 128,-1,7
 590 172 590 172 532 172 c 0,8,9
 442 172 442 172 408.5 227.5 c 128,-1,10
 375 283 375 283 375 404 c 2,11,-1
 375 1016 l 1,12,-1
 119 1016 l 1,13,-1
 119 377 l 2,14,15
 119 185 119 185 206.5 80.5 c 128,-1,16
 294 -24 294 -24 467 -24 c 0,17,18
 654 -24 654 -24 787 125 c 1,19,-1
 811 0 l 1,20,-1
 1015 0 l 1,21,-1
 1015 1016 l 1,0,-1
EndSplineSet
EndUndoOperation
EndUndoes
Redoes
EndRedoes
EndUndoRedoHistory
Fore
SplineSet
1015 1016 m 1,0,-1
 1015 0 l 1,1,-1
 811 0 l 1,2,-1
 787 125 l 1,3,4
 654 -24 654 -24 467 -24 c 0,5,6
 294 -24 294 -24 206.5 80.5 c 128,-1,7
 119 185 119 185 119 377 c 2,8,-1
 119 1016 l 1,9,-1
 375 1016 l 1,10,-1
 375 404 l 2,11,12
 375 283 375 283 408.5 227.5 c 128,-1,13
 442 172 442 172 532 172 c 0,14,15
 590 172 590 172 631 188.5 c 128,-1,16
 672 205 672 205 697 232 c 128,-1,17
 722 259 722 259 736 305.5 c 128,-1,18
 750 352 750 352 754.5 401 c 128,-1,19
 759 450 759 450 759 520 c 2,20,-1
 759 1016 l 1,21,-1
 1015 1016 l 1,0,-1
EndSplineSet
EndChar

StartChar: v
Encoding: 118 118 88
Width: 1034
GlyphClass: 2
Flags: W
LayerCount: 2
UndoRedoHistory
Layer: 1
Undoes
UndoOperation
Index: 0
Type: 1
WasModified: 0
WasOrder2: 1
Width: 1034
VWidth: 2048
LBearingChange: 0
UnicodeEnc: 0
InstructionsLength: 0
SplineSet
405 0 m 1,0,-1
 8 1016 l 1,1,-1
 279 1016 l 1,2,-1
 469 472 l 2,3,4
 487 422 487 422 531 275 c 1,5,6
 576 457 576 457 582 471 c 1,7,-1
 758 1016 l 1,8,-1
 1026 1016 l 1,9,-1
 651 0 l 1,10,-1
 405 0 l 1,0,-1
EndSplineSet
EndUndoOperation
UndoOperation
Index: 1
Type: 1
WasModified: 0
WasOrder2: 1
Width: 1034
VWidth: 2048
LBearingChange: 0
UnicodeEnc: 0
InstructionsLength: 0
SplineSet
405 0 m 1,0,-1
 651 0 l 1,1,-1
 1026 1016 l 1,2,-1
 758 1016 l 1,3,-1
 582 471 l 1,4,5
 576 457 576 457 531 275 c 1,6,7
 487 422 487 422 469 472 c 2,8,-1
 279 1016 l 1,9,-1
 8 1016 l 1,10,-1
 405 0 l 1,0,-1
EndSplineSet
EndUndoOperation
EndUndoes
Redoes
EndRedoes
EndUndoRedoHistory
Fore
SplineSet
405 0 m 1,0,-1
 8 1016 l 1,1,-1
 279 1016 l 1,2,-1
 469 472 l 2,3,4
 487 422 487 422 531 275 c 1,5,6
 576 457 576 457 582 471 c 1,7,-1
 758 1016 l 1,8,-1
 1026 1016 l 1,9,-1
 651 0 l 1,10,-1
 405 0 l 1,0,-1
EndSplineSet
EndChar

StartChar: w
Encoding: 119 119 89
Width: 1573
GlyphClass: 2
Flags: W
LayerCount: 2
UndoRedoHistory
Layer: 1
Undoes
UndoOperation
Index: 0
Type: 1
WasModified: 0
WasOrder2: 1
Width: 1573
VWidth: 2048
LBearingChange: 0
UnicodeEnc: 0
InstructionsLength: 0
SplineSet
36 1016 m 1,0,-1
 285 1016 l 1,1,-1
 464 298 l 1,2,-1
 663 1016 l 1,3,-1
 917 1016 l 1,4,5
 917 1008 917 1008 992.5 722.5 c 128,-1,6
 1068 437 1068 437 1106 300 c 1,7,-1
 1291 1016 l 1,8,-1
 1537 1016 l 1,9,-1
 1234 0 l 1,10,-1
 988 0 l 1,11,12
 903 332 903 332 786 749 c 1,13,-1
 571 0 l 1,14,-1
 327 0 l 1,15,-1
 36 1016 l 1,0,-1
EndSplineSet
EndUndoOperation
UndoOperation
Index: 1
Type: 1
WasModified: 0
WasOrder2: 1
Width: 1573
VWidth: 2048
LBearingChange: 0
UnicodeEnc: 0
InstructionsLength: 0
SplineSet
36 1016 m 1,0,-1
 285 1016 l 1,1,-1
 464 298 l 1,2,-1
 663 1016 l 1,3,-1
 917 1016 l 1,4,5
 917 1008 917 1008 992.5 722.5 c 128,-1,6
 1068 437 1068 437 1106 300 c 1,7,-1
 1291 1016 l 1,8,-1
 1537 1016 l 1,9,-1
 1234 0 l 1,10,-1
 988 0 l 1,11,12
 903 332 903 332 786 749 c 1,13,-1
 571 0 l 1,14,-1
 327 0 l 1,15,-1
 36 1016 l 1,0,-1
EndSplineSet
EndUndoOperation
EndUndoes
Redoes
EndRedoes
EndUndoRedoHistory
Fore
SplineSet
36 1016 m 1,0,-1
 285 1016 l 1,1,-1
 464 298 l 1,2,-1
 663 1016 l 1,3,-1
 917 1016 l 1,4,5
 917 1008 917 1008 992.5 722.5 c 128,-1,6
 1068 437 1068 437 1106 300 c 1,7,-1
 1291 1016 l 1,8,-1
 1537 1016 l 1,9,-1
 1234 0 l 1,10,-1
 988 0 l 1,11,12
 903 332 903 332 786 749 c 1,13,-1
 571 0 l 1,14,-1
 327 0 l 1,15,-1
 36 1016 l 1,0,-1
EndSplineSet
EndChar

StartChar: x
Encoding: 120 120 90
Width: 1045
GlyphClass: 2
Flags: W
LayerCount: 2
UndoRedoHistory
Layer: 1
Undoes
UndoOperation
Index: 0
Type: 1
WasModified: 0
WasOrder2: 1
Width: 1045
VWidth: 2048
LBearingChange: 0
UnicodeEnc: 0
InstructionsLength: 0
SplineSet
523 688 m 1,0,-1
 739 1017 l 1,1,-1
 1023 1017 l 1,2,-1
 684 521 l 1,3,-1
 1034 0 l 1,4,-1
 743 0 l 1,5,-1
 523 355 l 1,6,-1
 298 0 l 1,7,-1
 11 0 l 1,8,-1
 364 520 l 1,9,-1
 28 1017 l 1,10,-1
 316 1017 l 1,11,-1
 523 688 l 1,0,-1
EndSplineSet
EndUndoOperation
UndoOperation
Index: 1
Type: 1
WasModified: 0
WasOrder2: 1
Width: 1045
VWidth: 2048
LBearingChange: 0
UnicodeEnc: 0
InstructionsLength: 0
SplineSet
523 688 m 1,0,-1
 739 1017 l 1,1,-1
 1023 1017 l 1,2,-1
 684 521 l 1,3,-1
 1034 0 l 1,4,-1
 743 0 l 1,5,-1
 523 355 l 1,6,-1
 298 0 l 1,7,-1
 11 0 l 1,8,-1
 364 520 l 1,9,-1
 28 1017 l 1,10,-1
 316 1017 l 1,11,-1
 523 688 l 1,0,-1
EndSplineSet
EndUndoOperation
EndUndoes
Redoes
EndRedoes
EndUndoRedoHistory
Fore
SplineSet
523 688 m 1,0,-1
 739 1017 l 1,1,-1
 1023 1017 l 1,2,-1
 684 521 l 1,3,-1
 1034 0 l 1,4,-1
 743 0 l 1,5,-1
 523 355 l 1,6,-1
 298 0 l 1,7,-1
 11 0 l 1,8,-1
 364 520 l 1,9,-1
 28 1017 l 1,10,-1
 316 1017 l 1,11,-1
 523 688 l 1,0,-1
EndSplineSet
EndChar

StartChar: y
Encoding: 121 121 91
Width: 1027
GlyphClass: 2
Flags: W
LayerCount: 2
UndoRedoHistory
Layer: 1
Undoes
UndoOperation
Index: 0
Type: 1
WasModified: 0
WasOrder2: 1
Width: 1027
VWidth: 2048
LBearingChange: 0
UnicodeEnc: 0
InstructionsLength: 0
SplineSet
91 -392 m 1,0,1
 79 -201 l 1,2,3
 139 -209 139 -209 191 -209 c 0,4,5
 266 -209 266 -209 304.5 -179.5 c 128,-1,6
 343 -150 343 -150 374 -68 c 0,7,8
 378 -58 378 -58 392.5 -26 c 128,-1,9
 407 6 407 6 414 28 c 1,10,-1
 28 1016 l 1,11,-1
 293 1016 l 1,12,-1
 534 297 l 1,13,-1
 748 1016 l 1,14,-1
 1014 1016 l 1,15,16
 1011 1006 1011 1006 811.5 457 c 128,-1,17
 612 -92 612 -92 609 -99 c 0,18,19
 546 -266 546 -266 457.5 -335 c 128,-1,20
 369 -404 369 -404 220 -404 c 0,21,22
 185 -404 185 -404 91 -392 c 1,0,1
EndSplineSet
EndUndoOperation
UndoOperation
Index: 1
Type: 1
WasModified: 0
WasOrder2: 1
Width: 1027
VWidth: 2048
LBearingChange: 0
UnicodeEnc: 0
InstructionsLength: 0
SplineSet
91 -392 m 1,0,1
 185 -404 185 -404 220 -404 c 0,2,3
 369 -404 369 -404 457.5 -335 c 128,-1,4
 546 -266 546 -266 609 -99 c 0,5,6
 612 -92 612 -92 811.5 457 c 128,-1,7
 1011 1006 1011 1006 1014 1016 c 1,8,-1
 748 1016 l 1,9,-1
 534 297 l 1,10,-1
 293 1016 l 1,11,-1
 28 1016 l 1,12,-1
 414 28 l 1,13,14
 407 6 407 6 392.5 -26 c 128,-1,15
 378 -58 378 -58 374 -68 c 0,16,17
 343 -150 343 -150 304.5 -179.5 c 128,-1,18
 266 -209 266 -209 191 -209 c 0,19,20
 139 -209 139 -209 79 -201 c 1,21,-1
 91 -392 l 1,0,1
EndSplineSet
EndUndoOperation
EndUndoes
Redoes
EndRedoes
EndUndoRedoHistory
Fore
SplineSet
91 -392 m 1,0,1
 79 -201 l 1,2,3
 139 -209 139 -209 191 -209 c 0,4,5
 266 -209 266 -209 304.5 -179.5 c 128,-1,6
 343 -150 343 -150 374 -68 c 0,7,8
 378 -58 378 -58 392.5 -26 c 128,-1,9
 407 6 407 6 414 28 c 1,10,-1
 28 1016 l 1,11,-1
 293 1016 l 1,12,-1
 534 297 l 1,13,-1
 748 1016 l 1,14,-1
 1014 1016 l 1,15,16
 1011 1006 1011 1006 811.5 457 c 128,-1,17
 612 -92 612 -92 609 -99 c 0,18,19
 546 -266 546 -266 457.5 -335 c 128,-1,20
 369 -404 369 -404 220 -404 c 0,21,22
 185 -404 185 -404 91 -392 c 1,0,1
EndSplineSet
EndChar

StartChar: z
Encoding: 122 122 92
Width: 904
GlyphClass: 2
Flags: W
LayerCount: 2
UndoRedoHistory
Layer: 1
Undoes
UndoOperation
Index: 0
Type: 1
WasModified: 0
WasOrder2: 1
Width: 904
VWidth: 2048
LBearingChange: 0
UnicodeEnc: 0
InstructionsLength: 0
SplineSet
92 1016 m 1,0,-1
 824 1016 l 1,1,-1
 824 840 l 1,2,-1
 382 192 l 1,3,-1
 840 192 l 1,4,-1
 840 0 l 1,5,-1
 70 0 l 1,6,-1
 70 158 l 1,7,-1
 537 832 l 1,8,-1
 92 832 l 1,9,-1
 92 1016 l 1,0,-1
EndSplineSet
EndUndoOperation
UndoOperation
Index: 1
Type: 1
WasModified: 0
WasOrder2: 1
Width: 904
VWidth: 2048
LBearingChange: 0
UnicodeEnc: 0
InstructionsLength: 0
SplineSet
92 1016 m 1,0,-1
 824 1016 l 1,1,-1
 824 840 l 1,2,-1
 382 192 l 1,3,-1
 840 192 l 1,4,-1
 840 0 l 1,5,-1
 70 0 l 1,6,-1
 70 158 l 1,7,-1
 537 832 l 1,8,-1
 92 832 l 1,9,-1
 92 1016 l 1,0,-1
EndSplineSet
EndUndoOperation
EndUndoes
Redoes
EndRedoes
EndUndoRedoHistory
Fore
SplineSet
92 1016 m 1,0,-1
 824 1016 l 1,1,-1
 824 840 l 1,2,-1
 382 192 l 1,3,-1
 840 192 l 1,4,-1
 840 0 l 1,5,-1
 70 0 l 1,6,-1
 70 158 l 1,7,-1
 537 832 l 1,8,-1
 92 832 l 1,9,-1
 92 1016 l 1,0,-1
EndSplineSet
EndChar

StartChar: braceleft
Encoding: 123 123 93
Width: 691
GlyphClass: 2
Flags: W
LayerCount: 2
UndoRedoHistory
Layer: 1
Undoes
UndoOperation
Index: 0
Type: 1
WasModified: 0
WasOrder2: 1
Width: 691
VWidth: 2048
LBearingChange: 0
UnicodeEnc: 0
InstructionsLength: 0
SplineSet
240 277 m 2,0,1
 240 381 240 381 201.5 419.5 c 128,-1,2
 163 458 163 458 49 458 c 2,3,-1
 39 458 l 1,4,-1
 39 671 l 1,5,-1
 49 671 l 1,6,7
 168 672 168 672 204 707.5 c 128,-1,8
 240 743 240 743 240 849 c 2,9,-1
 240 1112 l 2,10,11
 240 1265 240 1265 334.5 1324 c 128,-1,12
 429 1383 429 1383 630 1383 c 2,13,-1
 640 1383 l 1,14,-1
 640 1183 l 1,15,-1
 630 1183 l 1,16,17
 538 1182 538 1182 511.5 1153 c 128,-1,18
 485 1124 485 1124 485 1037 c 2,19,-1
 485 796 l 1,20,21
 484 708 484 708 444.5 654.5 c 128,-1,22
 405 601 405 601 318 564 c 1,23,24
 485 515 485 515 485 340 c 2,25,-1
 485 97 l 2,26,27
 485 10 485 10 511 -18 c 128,-1,28
 537 -46 537 -46 630 -47 c 1,29,-1
 640 -47 l 1,30,-1
 640 -245 l 1,31,-1
 630 -245 l 2,32,33
 427 -245 427 -245 333.5 -185.5 c 128,-1,34
 240 -126 240 -126 240 30 c 2,35,-1
 240 277 l 2,0,1
EndSplineSet
EndUndoOperation
UndoOperation
Index: 1
Type: 1
WasModified: 0
WasOrder2: 1
Width: 691
VWidth: 2048
LBearingChange: 0
UnicodeEnc: 0
InstructionsLength: 0
SplineSet
240 277 m 2,0,1
 240 381 240 381 201.5 419.5 c 128,-1,2
 163 458 163 458 49 458 c 2,3,-1
 39 458 l 1,4,-1
 39 671 l 1,5,-1
 49 671 l 1,6,7
 168 672 168 672 204 707.5 c 128,-1,8
 240 743 240 743 240 849 c 2,9,-1
 240 1112 l 2,10,11
 240 1265 240 1265 334.5 1324 c 128,-1,12
 429 1383 429 1383 630 1383 c 2,13,-1
 640 1383 l 1,14,-1
 640 1183 l 1,15,-1
 630 1183 l 1,16,17
 538 1182 538 1182 511.5 1153 c 128,-1,18
 485 1124 485 1124 485 1037 c 2,19,-1
 485 796 l 1,20,21
 484 708 484 708 444.5 654.5 c 128,-1,22
 405 601 405 601 318 564 c 1,23,24
 485 515 485 515 485 340 c 2,25,-1
 485 97 l 2,26,27
 485 10 485 10 511 -18 c 128,-1,28
 537 -46 537 -46 630 -47 c 1,29,-1
 640 -47 l 1,30,-1
 640 -245 l 1,31,-1
 630 -245 l 2,32,33
 427 -245 427 -245 333.5 -185.5 c 128,-1,34
 240 -126 240 -126 240 30 c 2,35,-1
 240 277 l 2,0,1
EndSplineSet
EndUndoOperation
EndUndoes
Redoes
EndRedoes
EndUndoRedoHistory
Fore
SplineSet
240 277 m 2,0,1
 240 381 240 381 201.5 419.5 c 128,-1,2
 163 458 163 458 49 458 c 2,3,-1
 39 458 l 1,4,-1
 39 671 l 1,5,-1
 49 671 l 1,6,7
 168 672 168 672 204 707.5 c 128,-1,8
 240 743 240 743 240 849 c 2,9,-1
 240 1112 l 2,10,11
 240 1265 240 1265 334.5 1324 c 128,-1,12
 429 1383 429 1383 630 1383 c 2,13,-1
 640 1383 l 1,14,-1
 640 1183 l 1,15,-1
 630 1183 l 1,16,17
 538 1182 538 1182 511.5 1153 c 128,-1,18
 485 1124 485 1124 485 1037 c 2,19,-1
 485 796 l 1,20,21
 484 708 484 708 444.5 654.5 c 128,-1,22
 405 601 405 601 318 564 c 1,23,24
 485 515 485 515 485 340 c 2,25,-1
 485 97 l 2,26,27
 485 10 485 10 511 -18 c 128,-1,28
 537 -46 537 -46 630 -47 c 1,29,-1
 640 -47 l 1,30,-1
 640 -245 l 1,31,-1
 630 -245 l 2,32,33
 427 -245 427 -245 333.5 -185.5 c 128,-1,34
 240 -126 240 -126 240 30 c 2,35,-1
 240 277 l 2,0,1
EndSplineSet
EndChar

StartChar: bar
Encoding: 124 124 94
Width: 667
GlyphClass: 2
Flags: W
LayerCount: 2
UndoRedoHistory
Layer: 1
Undoes
UndoOperation
Index: 0
Type: 1
WasModified: 0
WasOrder2: 1
Width: 667
VWidth: 2048
LBearingChange: 0
UnicodeEnc: 0
InstructionsLength: 0
SplineSet
241 -338 m 1,0,-1
 241 1406 l 1,1,-1
 442 1406 l 1,2,-1
 442 -338 l 1,3,-1
 241 -338 l 1,0,-1
EndSplineSet
EndUndoOperation
UndoOperation
Index: 1
Type: 1
WasModified: 0
WasOrder2: 1
Width: 667
VWidth: 2048
LBearingChange: 0
UnicodeEnc: 0
InstructionsLength: 0
SplineSet
241 -338 m 1,0,-1
 241 1406 l 1,1,-1
 442 1406 l 1,2,-1
 442 -338 l 1,3,-1
 241 -338 l 1,0,-1
EndSplineSet
EndUndoOperation
EndUndoes
Redoes
EndRedoes
EndUndoRedoHistory
Fore
SplineSet
241 -338 m 1,0,-1
 241 1406 l 1,1,-1
 442 1406 l 1,2,-1
 442 -338 l 1,3,-1
 241 -338 l 1,0,-1
EndSplineSet
EndChar

StartChar: braceright
Encoding: 125 125 95
Width: 691
GlyphClass: 2
Flags: W
LayerCount: 2
UndoRedoHistory
Layer: 1
Undoes
UndoOperation
Index: 0
Type: 1
WasModified: 0
WasOrder2: 1
Width: 691
VWidth: 2048
LBearingChange: 0
UnicodeEnc: 0
InstructionsLength: 0
SplineSet
80 -245 m 1,0,-1
 80 -47 l 1,1,2
 172 -46 172 -46 198 -18.5 c 128,-1,3
 224 9 224 9 224 97 c 2,4,-1
 224 340 l 2,5,6
 224 429 224 429 265.5 481.5 c 128,-1,7
 307 534 307 534 392 564 c 1,8,9
 308 595 308 595 266.5 650.5 c 128,-1,10
 225 706 225 706 224 796 c 1,11,-1
 224 1037 l 2,12,13
 224 1125 224 1125 198.5 1153.5 c 128,-1,14
 173 1182 173 1182 80 1183 c 1,15,-1
 80 1383 l 1,16,17
 181 1383 181 1383 249.5 1370.5 c 128,-1,18
 318 1358 318 1358 369.5 1327 c 128,-1,19
 421 1296 421 1296 445 1241 c 128,-1,20
 469 1186 469 1186 469 1104 c 2,21,-1
 469 848 l 2,22,23
 469 744 469 744 506 708 c 128,-1,24
 543 672 543 672 661 671 c 1,25,-1
 661 458 l 1,26,27
 546 458 546 458 507.5 420.5 c 128,-1,28
 469 383 469 383 469 277 c 2,29,-1
 469 22 l 2,30,31
 469 -130 469 -130 376.5 -187.5 c 128,-1,32
 284 -245 284 -245 80 -245 c 1,0,-1
EndSplineSet
EndUndoOperation
UndoOperation
Index: 1
Type: 1
WasModified: 0
WasOrder2: 1
Width: 691
VWidth: 2048
LBearingChange: 0
UnicodeEnc: 0
InstructionsLength: 0
SplineSet
80 -245 m 1,0,-1
 80 -47 l 1,1,2
 172 -46 172 -46 198 -18.5 c 128,-1,3
 224 9 224 9 224 97 c 2,4,-1
 224 340 l 2,5,6
 224 429 224 429 265.5 481.5 c 128,-1,7
 307 534 307 534 392 564 c 1,8,9
 308 595 308 595 266.5 650.5 c 128,-1,10
 225 706 225 706 224 796 c 1,11,-1
 224 1037 l 2,12,13
 224 1125 224 1125 198.5 1153.5 c 128,-1,14
 173 1182 173 1182 80 1183 c 1,15,-1
 80 1383 l 1,16,17
 181 1383 181 1383 249.5 1370.5 c 128,-1,18
 318 1358 318 1358 369.5 1327 c 128,-1,19
 421 1296 421 1296 445 1241 c 128,-1,20
 469 1186 469 1186 469 1104 c 2,21,-1
 469 848 l 2,22,23
 469 744 469 744 506 708 c 128,-1,24
 543 672 543 672 661 671 c 1,25,-1
 661 458 l 1,26,27
 546 458 546 458 507.5 420.5 c 128,-1,28
 469 383 469 383 469 277 c 2,29,-1
 469 22 l 2,30,31
 469 -130 469 -130 376.5 -187.5 c 128,-1,32
 284 -245 284 -245 80 -245 c 1,0,-1
EndSplineSet
EndUndoOperation
EndUndoes
Redoes
EndRedoes
EndUndoRedoHistory
Fore
SplineSet
80 -245 m 1,0,-1
 80 -47 l 1,1,2
 172 -46 172 -46 198 -18.5 c 128,-1,3
 224 9 224 9 224 97 c 2,4,-1
 224 340 l 2,5,6
 224 429 224 429 265.5 481.5 c 128,-1,7
 307 534 307 534 392 564 c 1,8,9
 308 595 308 595 266.5 650.5 c 128,-1,10
 225 706 225 706 224 796 c 1,11,-1
 224 1037 l 2,12,13
 224 1125 224 1125 198.5 1153.5 c 128,-1,14
 173 1182 173 1182 80 1183 c 1,15,-1
 80 1383 l 1,16,17
 181 1383 181 1383 249.5 1370.5 c 128,-1,18
 318 1358 318 1358 369.5 1327 c 128,-1,19
 421 1296 421 1296 445 1241 c 128,-1,20
 469 1186 469 1186 469 1104 c 2,21,-1
 469 848 l 2,22,23
 469 744 469 744 506 708 c 128,-1,24
 543 672 543 672 661 671 c 1,25,-1
 661 458 l 1,26,27
 546 458 546 458 507.5 420.5 c 128,-1,28
 469 383 469 383 469 277 c 2,29,-1
 469 22 l 2,30,31
 469 -130 469 -130 376.5 -187.5 c 128,-1,32
 284 -245 284 -245 80 -245 c 1,0,-1
EndSplineSet
EndChar

StartChar: asciitilde
Encoding: 126 126 96
Width: 1139
GlyphClass: 2
Flags: W
LayerCount: 2
UndoRedoHistory
Layer: 1
Undoes
UndoOperation
Index: 0
Type: 1
WasModified: 0
WasOrder2: 1
Width: 1139
VWidth: 2048
LBearingChange: 0
UnicodeEnc: 0
InstructionsLength: 0
SplineSet
196 433 m 1,0,-1
 112 571 l 1,1,2
 200 750 200 750 375 750 c 0,3,4
 474 750 474 750 610 691 c 1,5,6
 736 635 736 635 797 635 c 0,7,8
 894 635 894 635 999 753 c 1,9,-1
 1077 620 l 1,10,11
 1038 547 1038 547 957.5 495 c 128,-1,12
 877 443 877 443 783 443 c 0,13,14
 724 443 724 443 674 458.5 c 128,-1,15
 624 474 624 474 547 508 c 1,16,17
 489 536 489 536 450 548.5 c 128,-1,18
 411 561 411 561 367 561 c 0,19,20
 265 561 265 561 196 433 c 1,0,-1
EndSplineSet
EndUndoOperation
UndoOperation
Index: 1
Type: 1
WasModified: 0
WasOrder2: 1
Width: 1139
VWidth: 2048
LBearingChange: 0
UnicodeEnc: 0
InstructionsLength: 0
SplineSet
196 433 m 1,0,-1
 112 571 l 1,1,2
 200 750 200 750 375 750 c 0,3,4
 474 750 474 750 610 691 c 1,5,6
 736 635 736 635 797 635 c 0,7,8
 894 635 894 635 999 753 c 1,9,-1
 1077 620 l 1,10,11
 1038 547 1038 547 957.5 495 c 128,-1,12
 877 443 877 443 783 443 c 0,13,14
 724 443 724 443 674 458.5 c 128,-1,15
 624 474 624 474 547 508 c 1,16,17
 489 536 489 536 450 548.5 c 128,-1,18
 411 561 411 561 367 561 c 0,19,20
 265 561 265 561 196 433 c 1,0,-1
EndSplineSet
EndUndoOperation
EndUndoes
Redoes
EndRedoes
EndUndoRedoHistory
Fore
SplineSet
196 433 m 1,0,-1
 112 571 l 1,1,2
 200 750 200 750 375 750 c 0,3,4
 474 750 474 750 610 691 c 1,5,6
 736 635 736 635 797 635 c 0,7,8
 894 635 894 635 999 753 c 1,9,-1
 1077 620 l 1,10,11
 1038 547 1038 547 957.5 495 c 128,-1,12
 877 443 877 443 783 443 c 0,13,14
 724 443 724 443 674 458.5 c 128,-1,15
 624 474 624 474 547 508 c 1,16,17
 489 536 489 536 450 548.5 c 128,-1,18
 411 561 411 561 367 561 c 0,19,20
 265 561 265 561 196 433 c 1,0,-1
EndSplineSet
EndChar

StartChar: exclamdown
Encoding: 161 161 98
Width: 386
GlyphClass: 2
Flags: W
LayerCount: 2
UndoRedoHistory
Layer: 1
Undoes
UndoOperation
Index: 0
Type: 1
WasModified: 0
WasOrder2: 1
Width: 386
VWidth: 2048
LBearingChange: 0
UnicodeEnc: 0
InstructionsLength: 0
SplineSet
202 1046 m 0,0,1
 140 1046 140 1046 97.5 1089.5 c 128,-1,2
 55 1133 55 1133 55 1193 c 128,-1,3
 55 1253 55 1253 97.5 1295.5 c 128,-1,4
 140 1338 140 1338 202 1338 c 128,-1,5
 264 1338 264 1338 306 1295.5 c 128,-1,6
 348 1253 348 1253 348 1193 c 128,-1,7
 348 1133 348 1133 305.5 1089.5 c 128,-1,8
 263 1046 263 1046 202 1046 c 0,0,1
324 203 m 1,9,-1
 324 -4 l 1,10,-1
 89 -4 l 1,11,-1
 89 203 l 1,12,-1
 152 913 l 1,13,-1
 266 913 l 1,14,-1
 324 203 l 1,9,-1
EndSplineSet
EndUndoOperation
UndoOperation
Index: 1
Type: 1
WasModified: 0
WasOrder2: 1
Width: 386
VWidth: 2048
LBearingChange: 0
UnicodeEnc: 0
InstructionsLength: 0
SplineSet
202 1046 m 0,0,1
 140 1046 140 1046 97.5 1089.5 c 128,-1,2
 55 1133 55 1133 55 1193 c 128,-1,3
 55 1253 55 1253 97.5 1295.5 c 128,-1,4
 140 1338 140 1338 202 1338 c 128,-1,5
 264 1338 264 1338 306 1295.5 c 128,-1,6
 348 1253 348 1253 348 1193 c 128,-1,7
 348 1133 348 1133 305.5 1089.5 c 128,-1,8
 263 1046 263 1046 202 1046 c 0,0,1
324 203 m 1,9,-1
 324 -4 l 1,10,-1
 89 -4 l 1,11,-1
 89 203 l 1,12,-1
 152 913 l 1,13,-1
 266 913 l 1,14,-1
 324 203 l 1,9,-1
EndSplineSet
EndUndoOperation
EndUndoes
Redoes
EndRedoes
EndUndoRedoHistory
Fore
SplineSet
202 1046 m 0,0,1
 140 1046 140 1046 97.5 1089.5 c 128,-1,2
 55 1133 55 1133 55 1193 c 128,-1,3
 55 1253 55 1253 97.5 1295.5 c 128,-1,4
 140 1338 140 1338 202 1338 c 128,-1,5
 264 1338 264 1338 306 1295.5 c 128,-1,6
 348 1253 348 1253 348 1193 c 128,-1,7
 348 1133 348 1133 305.5 1089.5 c 128,-1,8
 263 1046 263 1046 202 1046 c 0,0,1
324 203 m 1,9,-1
 324 -4 l 1,10,-1
 89 -4 l 1,11,-1
 89 203 l 1,12,-1
 152 913 l 1,13,-1
 266 913 l 1,14,-1
 324 203 l 1,9,-1
EndSplineSet
EndChar

